<svg xmlns="http://www.w3.org/2000/svg" viewBox="0 0 800 500" fill-rule="evenodd" clip-rule="evenodd" stroke-linejoin="round" stroke-miterlimit="2"><path fill="#091f2a" d="M0 0h800v500H0z"/><path d="M26.756 321.204l8.074-16.764 2.346 1.095L29.12 322.3l-2.364-1.096zM42.463 312.38l-3.307-1.52-.884 2.73 3.576.731-2.461 2.692 2.307 1.673 1.807-3.153 1.807 3.153 2.307-1.673-2.46-2.692 3.575-.73-.884-2.73-3.307 1.519.404-3.634h-2.884l.404 3.634zM53.998 312.38l-3.307-1.52-.884 2.73 3.576.731-2.461 2.692 2.307 1.673 1.807-3.153 1.807 3.153 2.307-1.673-2.46-2.692 3.575-.73-.884-2.73-3.307 1.519.404-3.634h-2.884l.404 3.634zM42.463 331.605l-3.307-1.519-.884 2.73 3.576.73-2.461 2.692 2.307 1.673 1.807-3.153 1.807 3.153 2.307-1.673-2.46-2.691 3.575-.73-.884-2.73-3.307 1.518.404-3.633h-2.884l.404 3.633zM70.84 339.372H67.57l-.98-9.536-1.077 9.536h-3.326l-1.442-13.323h2.942l.461 10.632 1.096-9.094h2.73l1.019 9.094.654-10.632h2.749l-1.557 13.323zM76.319 335.162c.192 1.557 1.019 2.326 2.46 2.326.866 0 1.75-.288 2.615-.846l1.211 1.654c-.5.442-1.095.769-1.787 1.019-.693.269-1.462.384-2.288.384-1.135 0-2.115-.23-2.903-.692a4.182 4.182 0 01-1.788-1.903c-.423-.808-.616-1.75-.616-2.827 0-1.018.193-1.96.596-2.787a4.585 4.585 0 011.712-1.961c.75-.48 1.634-.712 2.672-.712.98 0 1.826.212 2.538.616.71.423 1.268 1.038 1.672 1.807.385.807.577 1.73.577 2.826 0 .423-.02.788-.058 1.096H76.32zm1.884-4.307c-.558 0-1 .193-1.327.596-.327.404-.538 1.039-.596 1.865h3.75c-.02-1.634-.635-2.46-1.827-2.46zM90.546 336.162c0 .75.442 1.134 1.307 1.134.48 0 .961-.096 1.461-.308l.711 2.038c-.826.442-1.807.673-2.941.673-1.192 0-2.076-.346-2.672-1.038-.596-.673-.904-1.634-.904-2.884v-8.594h-3v-2.076h6.038v11.055zM102.08 336.162c0 .75.443 1.134 1.308 1.134.48 0 .961-.096 1.461-.308l.712 2.038c-.827.442-1.808.673-2.942.673-1.192 0-2.076-.346-2.672-1.038-.596-.673-.904-1.634-.904-2.884v-8.594h-2.999v-2.076h6.037v11.055zM113.712 337.296c.385 0 .75-.077 1.115-.23.366-.135.75-.347 1.154-.635l1.346 1.922a6.1 6.1 0 01-1.692.98c-.635.25-1.346.366-2.096.366-1.096 0-2.018-.23-2.807-.673a4.54 4.54 0 01-1.826-1.884c-.423-.807-.635-1.75-.635-2.807s.212-2.019.654-2.845a4.946 4.946 0 011.865-1.961c.788-.48 1.73-.712 2.807-.712.75 0 1.442.097 2.038.308a5.394 5.394 0 011.692.98l-1.308 1.827c-.75-.52-1.5-.769-2.288-.769-1.518 0-2.287 1.057-2.287 3.172 0 1.058.192 1.827.596 2.269.403.461.96.692 1.672.692zM124.248 328.817c1.557 0 2.768.481 3.652 1.462.866.98 1.308 2.307 1.308 3.96 0 1.711-.442 3.057-1.308 4.018-.865.961-2.095 1.442-3.652 1.442-1.558 0-2.788-.48-3.653-1.442-.865-.942-1.308-2.288-1.308-3.999 0-1.096.193-2.038.596-2.864a4.435 4.435 0 011.711-1.904c.75-.442 1.635-.673 2.654-.673zm0 2.25c-.635 0-1.096.25-1.385.75-.288.519-.442 1.326-.442 2.441 0 1.135.154 1.942.442 2.442.289.519.75.769 1.385.769.634 0 1.095-.25 1.384-.77.288-.518.442-1.326.442-2.46 0-1.096-.154-1.903-.442-2.422-.289-.5-.75-.75-1.384-.75zM138.917 328.817c.73 0 1.269.231 1.615.712.327.48.5 1.25.5 2.288v7.555h-2.596v-7.21c0-.365-.038-.634-.096-.768-.077-.135-.211-.212-.404-.212-.365 0-.71.23-1.057.673v7.517h-2.153v-7.21c0-.365-.039-.634-.096-.768-.077-.135-.212-.212-.404-.212-.365 0-.711.23-1.057.673v7.517h-2.634v-10.208h2.21l.212.98c.327-.461.673-.807 1-1.019.327-.211.692-.308 1.134-.308.404 0 .73.097 1 .289.269.211.461.519.577.923.692-.808 1.442-1.212 2.249-1.212zM145.53 335.162c.192 1.557 1.019 2.326 2.46 2.326.866 0 1.75-.288 2.615-.846l1.212 1.654c-.5.442-1.096.769-1.788 1.019-.692.269-1.462.384-2.288.384-1.135 0-2.115-.23-2.903-.692a4.182 4.182 0 01-1.788-1.903c-.423-.808-.615-1.75-.615-2.827 0-1.018.192-1.96.596-2.787a4.585 4.585 0 011.71-1.961c.75-.48 1.635-.712 2.673-.712.98 0 1.826.212 2.538.616.711.423 1.269 1.038 1.672 1.807.385.807.577 1.73.577 2.826 0 .423-.02.788-.058 1.096h-6.613zm1.884-4.307c-.558 0-1 .193-1.327.596-.326.404-.538 1.039-.596 1.865h3.75c-.02-1.634-.635-2.46-1.827-2.46zM171.62 334.47h-2.442l-.404-8.421h3.23l-.384 8.42zm-1.23 1.75c.48 0 .903.172 1.23.5.326.345.5.749.5 1.23 0 .48-.174.903-.5 1.23-.327.346-.75.519-1.23.519a1.6 1.6 0 01-1.212-.519 1.641 1.641 0 01-.52-1.23c0-.481.174-.885.52-1.23.327-.328.73-.5 1.211-.5zM42.463 350.83l-3.307-1.518-.884 2.73 3.576.73-2.461 2.692 2.307 1.673 1.807-3.153 1.807 3.153 2.307-1.673-2.46-2.692 3.575-.73-.884-2.73-3.307 1.519.404-3.634h-2.884l.404 3.634zM42.463 370.056l-3.307-1.519-.884 2.73 3.576.73-2.461 2.692 2.307 1.673 1.807-3.153 1.807 3.153 2.307-1.673-2.46-2.691 3.575-.73-.884-2.73-3.307 1.518.404-3.634h-2.884l.404 3.634zM68.129 377.823h-3.153v-10.9h-3.75V364.5h10.786l-.307 2.422h-3.576v10.901zM76.722 368.633c.866-.903 1.865-1.365 3-1.365.903 0 1.595.27 2.076.789.48.538.73 1.288.73 2.268v7.498h-3.037v-6.652c0-.615-.077-1.038-.212-1.288-.134-.25-.403-.365-.769-.365-.307 0-.596.096-.884.307-.288.212-.596.539-.904.942v7.056h-3.037v-14.265l3.037-.308v5.383zM89.623 362.27c.519 0 .961.154 1.288.48.327.327.5.75.5 1.23 0 .5-.173.904-.5 1.231-.327.327-.77.48-1.288.48-.52 0-.962-.172-1.288-.499a1.6 1.6 0 01-.52-1.211c0-.48.174-.904.52-1.23.326-.327.769-.481 1.288-.481zm1.826 13.477h2.615v2.076h-8.536v-2.076h2.884v-6.056h-2.788v-2.077h5.825v8.133zM100.85 375.977c.52 0 .942-.076 1.25-.25.288-.153.442-.384.442-.71 0-.232-.057-.424-.173-.558-.134-.135-.365-.289-.692-.423-.327-.135-.846-.289-1.557-.481-1.02-.27-1.807-.654-2.346-1.134-.538-.48-.807-1.135-.807-1.98 0-.943.384-1.692 1.173-2.288.769-.596 1.845-.885 3.249-.885 1.615 0 2.999.423 4.133 1.25l-1.211 1.788c-.942-.577-1.884-.865-2.826-.865-.5 0-.865.057-1.096.192-.25.135-.365.327-.365.596 0 .173.057.327.192.442.115.135.346.25.692.385.327.134.846.288 1.519.48.73.212 1.326.423 1.807.673.462.25.827.577 1.077.98.25.404.384.943.384 1.577 0 .712-.211 1.327-.653 1.846-.443.519-1.02.903-1.75 1.153s-1.538.385-2.422.385c-.942 0-1.808-.135-2.577-.404a5.78 5.78 0 01-1.96-1.134l1.518-1.711c.923.711 1.923 1.076 3 1.076zM126.324 363.231c1.307 0 2.48.211 3.499.654l-.846 1.98a6.064 6.064 0 00-2.172-.385c-.596 0-1.039.116-1.289.327-.269.212-.403.577-.403 1.077v1.365h3.326l-.346 2.115h-2.98v7.46h-3.019v-7.46h-2.153v-2.115h2.153v-1.461c0-1.058.366-1.904 1.115-2.577.731-.653 1.77-.98 3.115-.98zM134.399 374.593c0 .48.096.808.27 1 .172.211.422.308.768.308.308 0 .615-.097.942-.308.327-.192.577-.461.788-.808v-7.17h3.038v10.208h-2.653l-.135-1.192c-.326.48-.788.865-1.345 1.115a4.06 4.06 0 01-1.788.404c-.962 0-1.692-.27-2.173-.846-.5-.558-.75-1.327-.75-2.326v-7.364h3.038v6.98zM142.896 367.614h2.653l.212 1.173c.461-.519.942-.903 1.46-1.153.5-.25 1.077-.366 1.712-.366.884 0 1.576.27 2.076.808.48.538.73 1.288.73 2.25v7.497h-3.037v-6.613c0-.635-.077-1.077-.211-1.327-.135-.25-.404-.365-.77-.365-.307 0-.595.096-.884.288-.288.212-.596.5-.903.884v7.133h-3.038v-10.209zM159.853 375.747c.385 0 .75-.077 1.115-.231.366-.135.75-.346 1.154-.634l1.346 1.922a6.1 6.1 0 01-1.692.98c-.635.25-1.346.366-2.096.366-1.096 0-2.019-.23-2.807-.673a4.54 4.54 0 01-1.826-1.884c-.423-.808-.635-1.75-.635-2.807s.212-2.019.654-2.845a4.946 4.946 0 011.865-1.961c.788-.481 1.73-.712 2.807-.712.75 0 1.442.096 2.038.308a5.394 5.394 0 011.692.98l-1.308 1.827c-.75-.52-1.5-.77-2.288-.77-1.518 0-2.287 1.058-2.287 3.173 0 1.057.192 1.826.596 2.269.403.461.96.692 1.672.692zM175.157 377.227c-.961.615-2.076.923-3.345.923-1.308 0-2.288-.327-2.942-1-.673-.673-1-1.596-1-2.807v-4.633h-2.133v-2.096h2.134v-2.21l3.037-.366v2.576h3.288l-.308 2.096h-2.98v4.633c0 .5.116.865.346 1.077.231.211.596.327 1.115.327.635 0 1.23-.154 1.788-.462l1 1.942zM181.904 362.27c.52 0 .962.154 1.289.48.326.327.5.75.5 1.23 0 .5-.174.904-.5 1.231-.327.327-.77.48-1.289.48-.519 0-.96-.172-1.288-.499a1.6 1.6 0 01-.519-1.211c0-.48.173-.904.52-1.23.326-.327.768-.481 1.287-.481zm1.827 13.477h2.615v2.076h-8.537v-2.076h2.884v-6.056h-2.787v-2.077h5.825v8.133zM193.46 367.268c1.557 0 2.768.481 3.652 1.461.865.981 1.308 2.308 1.308 3.96 0 1.712-.443 3.058-1.308 4.019-.865.961-2.095 1.442-3.653 1.442-1.557 0-2.787-.48-3.652-1.442-.866-.942-1.308-2.288-1.308-3.999 0-1.096.192-2.038.596-2.864a4.435 4.435 0 011.711-1.904c.75-.442 1.634-.673 2.653-.673zm0 2.25c-.635 0-1.097.25-1.385.75-.288.519-.442 1.326-.442 2.441 0 1.134.154 1.942.442 2.442.288.519.75.769 1.384.769.635 0 1.096-.25 1.385-.77.288-.518.442-1.326.442-2.46 0-1.096-.154-1.903-.442-2.423-.289-.5-.75-.75-1.385-.75zM200.573 367.614h2.653l.212 1.173c.461-.519.942-.903 1.46-1.153.5-.25 1.077-.366 1.712-.366.884 0 1.576.27 2.076.808.48.538.73 1.288.73 2.25v7.497h-3.037v-6.613c0-.635-.077-1.077-.211-1.327-.135-.25-.404-.365-.77-.365-.307 0-.595.096-.884.288-.288.212-.596.5-.903.884v7.133h-3.038v-10.209zM226.277 373.613c.193 1.557 1.02 2.326 2.461 2.326.865 0 1.75-.288 2.615-.846l1.211 1.653c-.5.443-1.096.77-1.788 1.02-.692.269-1.461.384-2.288.384-1.134 0-2.115-.23-2.903-.692a4.182 4.182 0 01-1.788-1.904c-.423-.807-.615-1.749-.615-2.826 0-1.019.192-1.96.596-2.787a4.585 4.585 0 011.711-1.961c.75-.481 1.634-.712 2.672-.712.98 0 1.827.212 2.538.616.711.422 1.269 1.038 1.673 1.807.384.807.576 1.73.576 2.826 0 .423-.019.788-.057 1.096h-6.614zm1.884-4.307c-.557 0-1 .192-1.326.596-.327.404-.539 1.038-.596 1.865h3.749c-.02-1.634-.635-2.46-1.827-2.46zM234.256 377.823l3.5-5.364-3.173-4.845h3.403l1.634 3.269 1.577-3.269h3.23l-3 4.73 3.519 5.48h-3.442l-2.018-3.827-1.942 3.826h-3.288zM252.366 367.268c1.288 0 2.23.462 2.826 1.404.596.942.904 2.288.904 4.018 0 1.057-.154 1.98-.462 2.807-.327.827-.769 1.48-1.365 1.942-.596.48-1.288.71-2.095.71-.98 0-1.788-.345-2.423-1.056v4.671l-3.037.327v-14.477h2.691l.135 1.135c.403-.5.846-.865 1.346-1.115.48-.25.98-.366 1.48-.366zm-.942 2.25c-.635 0-1.192.403-1.673 1.192v4.306c.212.308.442.538.692.673.231.154.5.23.808.23.557 0 1-.25 1.288-.768.288-.5.423-1.308.423-2.423 0-1.21-.135-2.038-.385-2.518-.25-.462-.634-.692-1.153-.692zM263.575 374.612c0 .75.442 1.135 1.307 1.135.48 0 .961-.096 1.461-.308l.711 2.038c-.826.442-1.807.673-2.941.673-1.192 0-2.076-.346-2.672-1.038-.596-.673-.904-1.634-.904-2.884v-8.594h-3v-2.076h6.038v11.054zM278.378 374.882c0 .365.057.653.153.826.097.173.27.308.52.404l-.635 2c-.615-.058-1.134-.193-1.538-.423a2.224 2.224 0 01-.961-.923 3.646 3.646 0 01-1.461 1.019 4.77 4.77 0 01-1.884.365c-1.058 0-1.885-.288-2.519-.904-.634-.596-.942-1.365-.942-2.307 0-1.096.442-1.96 1.307-2.576.865-.596 2.096-.904 3.672-.904h1.365v-.365c0-1.057-.673-1.576-2.018-1.576-.346 0-.77.038-1.288.134-.52.096-1.039.231-1.52.404l-.691-2.019c.653-.25 1.345-.442 2.057-.576a10.314 10.314 0 011.922-.193c2.98 0 4.46 1.212 4.46 3.615v3.999zm-4.768 1.095c.346 0 .692-.096 1.057-.307.346-.192.615-.462.788-.808v-1.672h-.75c-1.634 0-2.46.519-2.46 1.538 0 .404.115.711.365.923.23.211.558.326 1 .326zM285.722 362.27c.52 0 .961.154 1.288.48.327.327.5.75.5 1.23 0 .5-.173.904-.5 1.231-.327.327-.769.48-1.288.48s-.961-.172-1.288-.499a1.6 1.6 0 01-.52-1.211c0-.48.174-.904.52-1.23.327-.327.769-.481 1.288-.481zm1.827 13.477h2.614v2.076h-8.536v-2.076h2.884v-6.056h-2.788v-2.077h5.826v8.133zM292.855 367.614h2.653l.212 1.173c.461-.519.942-.903 1.46-1.153.5-.25 1.077-.366 1.712-.366.884 0 1.576.27 2.076.808.48.538.73 1.288.73 2.25v7.497h-3.037v-6.613c0-.635-.077-1.077-.211-1.327-.135-.25-.404-.365-.77-.365-.307 0-.595.096-.884.288-.288.212-.596.5-.903.884v7.133h-3.038v-10.209zM308.485 375.977c.519 0 .942-.076 1.25-.25.288-.153.442-.384.442-.71 0-.232-.058-.424-.173-.558-.135-.135-.366-.289-.693-.423-.326-.135-.846-.289-1.557-.481-1.019-.27-1.807-.654-2.345-1.134-.539-.48-.808-1.135-.808-1.98 0-.943.385-1.692 1.173-2.288.769-.596 1.846-.885 3.249-.885 1.615 0 3 .423 4.134 1.25l-1.212 1.788c-.942-.577-1.884-.865-2.826-.865-.5 0-.865.057-1.096.192-.25.135-.365.327-.365.596 0 .173.058.327.192.442.116.135.346.25.692.385.327.134.846.288 1.52.48.73.212 1.326.423 1.806.673.462.25.827.577 1.077.98.25.404.385.943.385 1.577 0 .712-.212 1.327-.654 1.846-.442.519-1.02.903-1.75 1.153s-1.538.385-2.422.385c-.942 0-1.807-.135-2.576-.404a5.78 5.78 0 01-1.961-1.134l1.519-1.711c.922.711 1.922 1.076 2.999 1.076zM330.095 373.613c.192 1.557 1.019 2.326 2.46 2.326.866 0 1.75-.288 2.615-.846l1.212 1.653c-.5.443-1.096.77-1.788 1.02-.692.269-1.462.384-2.288.384-1.135 0-2.115-.23-2.903-.692a4.182 4.182 0 01-1.788-1.904c-.423-.807-.615-1.749-.615-2.826 0-1.019.192-1.96.596-2.787a4.585 4.585 0 011.71-1.961c.75-.481 1.635-.712 2.673-.712.98 0 1.826.212 2.538.616.711.422 1.269 1.038 1.672 1.807.385.807.577 1.73.577 2.826 0 .423-.02.788-.058 1.096h-6.613zm1.884-4.307c-.558 0-1 .192-1.327.596-.326.404-.538 1.038-.596 1.865h3.75c-.02-1.634-.635-2.46-1.827-2.46zM345.225 377.823h-3.576l-3.442-10.209h3.288l1.98 7.883 2.076-7.883h3.077l-3.403 10.21zM353.165 373.613c.192 1.557 1.019 2.326 2.461 2.326.865 0 1.75-.288 2.615-.846l1.21 1.653c-.499.443-1.095.77-1.787 1.02-.692.269-1.461.384-2.288.384-1.134 0-2.115-.23-2.903-.692a4.182 4.182 0 01-1.788-1.904c-.423-.807-.615-1.749-.615-2.826 0-1.019.192-1.96.596-2.787a4.585 4.585 0 011.71-1.961c.75-.481 1.635-.712 2.673-.712.98 0 1.827.212 2.538.616.711.422 1.269 1.038 1.673 1.807.384.807.576 1.73.576 2.826 0 .423-.019.788-.057 1.096h-6.614zm1.884-4.307c-.557 0-1 .192-1.326.596-.327.404-.539 1.038-.596 1.865h3.749c-.02-1.634-.635-2.46-1.827-2.46zM369.853 367.307c.615 0 1.173.096 1.692.307l-.558 4.268h-1.922v-1.864c-.558.096-1.057.384-1.5.903-.442.52-.769 1.154-1.019 1.942v2.922h2.02v2.038h-6.403v-2.038h1.346v-6.152h-1.346v-2.019h3.672l.538 2.288c.366-.865.846-1.519 1.404-1.96.557-.424 1.25-.635 2.076-.635zM379.85 377.823c-.462 1.365-1.154 2.403-2.057 3.115-.904.692-2.134 1.076-3.653 1.172l-.346-2.153c.98-.134 1.692-.346 2.172-.654.462-.307.827-.807 1.115-1.48h-1.057l-3.23-10.209h3.21l1.98 8.267 2.154-8.267h3.115l-3.403 10.21zM394.327 377.227c-.961.615-2.077.923-3.345.923-1.308 0-2.288-.327-2.942-1-.673-.673-1-1.596-1-2.807v-4.633h-2.134v-2.096h2.134v-2.21l3.038-.366v2.576h3.288l-.308 2.096h-2.98v4.633c0 .5.115.865.346 1.077.23.211.596.327 1.115.327.635 0 1.23-.154 1.788-.462l1 1.942zM399.71 368.633c.864-.903 1.864-1.365 2.998-1.365.904 0 1.596.27 2.077.789.48.538.73 1.288.73 2.268v7.498h-3.037v-6.652c0-.615-.077-1.038-.212-1.288-.134-.25-.403-.365-.769-.365-.307 0-.596.096-.884.307-.288.212-.596.539-.904.942v7.056h-3.037v-14.265l3.037-.308v5.383zM412.61 362.27c.519 0 .961.154 1.288.48.327.327.5.75.5 1.23 0 .5-.173.904-.5 1.231-.327.327-.769.48-1.288.48-.52 0-.961-.172-1.288-.499a1.6 1.6 0 01-.52-1.211c0-.48.174-.904.52-1.23.327-.327.769-.481 1.288-.481zm1.826 13.477h2.615v2.076h-8.536v-2.076h2.884v-6.056h-2.788v-2.077h5.825v8.133zM419.743 367.614h2.653l.212 1.173c.461-.519.942-.903 1.46-1.153.5-.25 1.077-.366 1.712-.366.884 0 1.576.27 2.076.808.48.538.73 1.288.73 2.25v7.497h-3.037v-6.613c0-.635-.077-1.077-.211-1.327-.135-.25-.404-.365-.77-.365-.307 0-.595.096-.884.288-.288.212-.596.5-.903.884v7.133h-3.038v-10.209zM441.044 368.21c-.673.27-1.653.404-2.941.404.672.288 1.172.654 1.5 1.058.326.403.48.942.48 1.576 0 .654-.173 1.23-.539 1.75-.365.519-.865.942-1.518 1.23-.654.288-1.404.442-2.269.442-.423 0-.827-.038-1.192-.115a.663.663 0 00-.23.23.783.783 0 00-.097.347c0 .192.077.346.231.442.135.115.442.173.884.173h1.692c.77 0 1.442.134 2.038.384.596.25 1.038.615 1.365 1.058.327.442.48.96.48 1.518 0 1.058-.46 1.904-1.384 2.5-.942.596-2.287.884-4.075.884-1.27 0-2.269-.134-2.98-.384-.73-.27-1.25-.635-1.52-1.115-.287-.481-.441-1.077-.441-1.788h2.691c0 .326.058.576.193.75.115.172.346.307.672.403.327.096.827.135 1.462.135.903 0 1.518-.096 1.864-.308.327-.211.5-.5.5-.865 0-.308-.115-.558-.365-.73-.25-.193-.634-.289-1.115-.289h-1.615c-1.057 0-1.846-.192-2.365-.577-.519-.365-.788-.846-.788-1.442 0-.384.096-.75.308-1.096.192-.326.461-.615.826-.845-.634-.347-1.095-.75-1.384-1.23-.288-.462-.423-1.02-.423-1.693 0-.75.192-1.422.577-1.98.384-.557.923-1 1.615-1.307.692-.289 1.48-.442 2.365-.442 1.019.019 1.903-.077 2.614-.308.712-.212 1.442-.558 2.192-1l.692 2.23zm-5.422 1.058c-.48 0-.865.154-1.134.461-.288.308-.423.73-.423 1.25 0 .557.135.98.423 1.288.289.308.654.461 1.134.461.5 0 .885-.153 1.154-.461.27-.288.404-.73.404-1.327 0-1.115-.52-1.672-1.558-1.672zM462.943 374.882c0 .365.057.653.153.826.097.173.27.308.52.404l-.635 2c-.615-.058-1.134-.193-1.538-.423a2.224 2.224 0 01-.961-.923 3.646 3.646 0 01-1.461 1.019 4.77 4.77 0 01-1.884.365c-1.058 0-1.885-.288-2.519-.904-.634-.596-.942-1.365-.942-2.307 0-1.096.442-1.96 1.307-2.576.865-.596 2.096-.904 3.672-.904h1.365v-.365c0-1.057-.673-1.576-2.018-1.576-.346 0-.77.038-1.288.134-.52.096-1.039.231-1.52.404l-.691-2.019c.653-.25 1.345-.442 2.057-.576a10.314 10.314 0 011.922-.193c2.98 0 4.46 1.212 4.46 3.615v3.999zm-4.768 1.095c.346 0 .692-.096 1.057-.307.346-.192.615-.462.788-.808v-1.672h-.75c-1.634 0-2.46.519-2.46 1.538 0 .404.115.711.365.923.23.211.558.326 1 .326zM468.921 368.653a3.49 3.49 0 011.173-1.02c.442-.25.923-.365 1.442-.365 1.269 0 2.21.481 2.845 1.423.615.942.923 2.288.923 3.999 0 1.057-.154 2-.48 2.826-.328.827-.789 1.461-1.404 1.923-.615.48-1.346.71-2.211.71-.52 0-.98-.114-1.423-.326a2.826 2.826 0 01-1.096-.923l-.115.923h-2.692v-14.265l3.038-.327v5.422zm1.5 7.286c1.172 0 1.75-1.077 1.75-3.21 0-1.193-.135-2.02-.405-2.5-.269-.48-.672-.711-1.192-.711-.634 0-1.172.403-1.653 1.192v4.306c.404.615.904.923 1.5.923zM481.84 367.268c1.558 0 2.77.481 3.654 1.461.865.981 1.307 2.308 1.307 3.96 0 1.712-.442 3.058-1.307 4.019-.865.961-2.096 1.442-3.653 1.442s-2.788-.48-3.653-1.442c-.865-.942-1.307-2.288-1.307-3.999 0-1.096.192-2.038.596-2.864a4.435 4.435 0 011.71-1.904c.75-.442 1.635-.673 2.654-.673zm0 2.25c-.634 0-1.095.25-1.383.75-.289.519-.443 1.326-.443 2.441 0 1.134.154 1.942.443 2.442.288.519.75.769 1.384.769.634 0 1.096-.25 1.384-.77.289-.518.442-1.326.442-2.46 0-1.096-.153-1.903-.442-2.423-.288-.5-.75-.75-1.384-.75zM491.992 374.593c0 .48.096.808.27 1 .173.211.422.308.768.308.308 0 .616-.097.943-.308.326-.192.576-.461.788-.808v-7.17h3.037v10.208h-2.653l-.134-1.192c-.327.48-.789.865-1.346 1.115a4.06 4.06 0 01-1.788.404c-.961 0-1.692-.27-2.173-.846-.5-.558-.75-1.327-.75-2.326v-7.364h3.038v6.98zM509.68 377.227c-.962.615-2.077.923-3.346.923-1.308 0-2.288-.327-2.942-1-.673-.673-1-1.596-1-2.807v-4.633h-2.133v-2.096h2.134v-2.21l3.037-.366v2.576h3.288l-.308 2.096h-2.98v4.633c0 .5.116.865.346 1.077.231.211.596.327 1.115.327.635 0 1.23-.154 1.788-.462l1 1.942zM532.75 377.227c-.96.615-2.076.923-3.345.923-1.307 0-2.288-.327-2.941-1-.673-.673-1-1.596-1-2.807v-4.633h-2.134v-2.096h2.134v-2.21l3.038-.366v2.576h3.287l-.308 2.096h-2.98v4.633c0 .5.116.865.347 1.077.23.211.596.327 1.115.327.634 0 1.23-.154 1.788-.462l1 1.942zM538.133 368.633c.865-.903 1.865-1.365 2.999-1.365.904 0 1.596.27 2.076.789.48.538.73 1.288.73 2.268v7.498h-3.037v-6.652c0-.615-.077-1.038-.211-1.288-.135-.25-.404-.365-.77-.365-.307 0-.595.096-.884.307-.288.212-.596.539-.903.942v7.056h-3.038v-14.265l3.038-.308v5.383zM551.033 362.27c.52 0 .962.154 1.289.48.326.327.5.75.5 1.23 0 .5-.174.904-.5 1.231-.327.327-.77.48-1.289.48-.519 0-.96-.172-1.288-.499a1.6 1.6 0 01-.519-1.211c0-.48.173-.904.52-1.23.326-.327.768-.481 1.287-.481zm1.827 13.477h2.615v2.076h-8.537v-2.076h2.884v-6.056h-2.787v-2.077h5.825v8.133zM562.26 375.977c.52 0 .942-.076 1.25-.25.288-.153.442-.384.442-.71 0-.232-.057-.424-.173-.558-.134-.135-.365-.289-.692-.423-.327-.135-.846-.289-1.557-.481-1.02-.27-1.807-.654-2.346-1.134-.538-.48-.807-1.135-.807-1.98 0-.943.384-1.692 1.173-2.288.769-.596 1.845-.885 3.249-.885 1.615 0 2.999.423 4.133 1.25l-1.211 1.788c-.942-.577-1.884-.865-2.826-.865-.5 0-.865.057-1.096.192-.25.135-.365.327-.365.596 0 .173.057.327.192.442.115.135.346.25.692.385.327.134.846.288 1.519.48.73.212 1.326.423 1.807.673.462.25.827.577 1.077.98.25.404.384.943.384 1.577 0 .712-.211 1.327-.653 1.846-.443.519-1.02.903-1.75 1.153s-1.538.385-2.422.385c-.942 0-1.808-.135-2.577-.404a5.78 5.78 0 01-1.96-1.134l1.518-1.711c.923.711 1.923 1.076 3 1.076zM590.869 373.92c0 1.423-.5 2.423-1.5 3.019-1.019.596-2.345.884-3.98.884h-4.421V364.5h4.23c1.518 0 2.748.269 3.69.788.942.538 1.404 1.404 1.404 2.615 0 .75-.23 1.384-.692 1.865a3.532 3.532 0 01-1.75 1 4.488 4.488 0 012.153.941c.577.5.866 1.23.866 2.211zm-3.75-5.69c0-.52-.153-.904-.48-1.154-.327-.23-.846-.346-1.557-.346h-.962v3.095h1.077c.673 0 1.154-.134 1.461-.384.308-.23.462-.654.462-1.211zm.5 5.556c0-.673-.192-1.135-.557-1.423-.385-.288-.942-.423-1.653-.423h-1.289v3.576h1.154c.73 0 1.307-.115 1.73-.365.404-.25.616-.692.616-1.365zM598.097 374.612c0 .75.442 1.135 1.307 1.135.48 0 .961-.096 1.461-.308l.712 2.038c-.827.442-1.808.673-2.942.673-1.192 0-2.076-.346-2.672-1.038-.596-.673-.904-1.634-.904-2.884v-8.594h-3v-2.076h6.038v11.054zM608.729 367.268c1.557 0 2.768.481 3.653 1.461.865.981 1.307 2.308 1.307 3.96 0 1.712-.442 3.058-1.307 4.019-.866.961-2.096 1.442-3.653 1.442-1.558 0-2.788-.48-3.653-1.442-.865-.942-1.307-2.288-1.307-3.999 0-1.096.192-2.038.596-2.864a4.435 4.435 0 011.71-1.904c.75-.442 1.635-.673 2.654-.673zm0 2.25c-.635 0-1.096.25-1.384.75-.289.519-.443 1.326-.443 2.441 0 1.134.154 1.942.443 2.442.288.519.75.769 1.384.769.634 0 1.096-.25 1.384-.77.288-.518.442-1.326.442-2.46 0-1.096-.154-1.903-.442-2.423-.288-.5-.75-.75-1.384-.75zM625.61 368.21c-.674.27-1.654.404-2.942.404.672.288 1.172.654 1.5 1.058.326.403.48.942.48 1.576 0 .654-.173 1.23-.539 1.75-.365.519-.865.942-1.518 1.23-.654.288-1.404.442-2.269.442-.423 0-.827-.038-1.192-.115a.663.663 0 00-.23.23.783.783 0 00-.097.347c0 .192.077.346.231.442.135.115.442.173.884.173h1.692c.77 0 1.442.134 2.038.384.596.25 1.038.615 1.365 1.058.327.442.48.96.48 1.518 0 1.058-.46 1.904-1.384 2.5-.942.596-2.287.884-4.075.884-1.27 0-2.269-.134-2.98-.384-.73-.27-1.25-.635-1.52-1.115-.287-.481-.441-1.077-.441-1.788h2.691c0 .326.058.576.193.75.115.172.346.307.672.403.327.096.827.135 1.462.135.903 0 1.518-.096 1.864-.308.327-.211.5-.5.5-.865 0-.308-.115-.558-.365-.73-.25-.193-.634-.289-1.115-.289h-1.615c-1.057 0-1.846-.192-2.365-.577-.519-.365-.788-.846-.788-1.442 0-.384.096-.75.308-1.096.192-.326.461-.615.826-.845-.634-.347-1.095-.75-1.384-1.23-.288-.462-.423-1.02-.423-1.693 0-.75.192-1.422.577-1.98.384-.557.923-1 1.615-1.307.692-.289 1.48-.442 2.365-.442 1.019.019 1.903-.077 2.614-.308.712-.212 1.442-.558 2.192-1l.692 2.23zm-5.423 1.058c-.48 0-.865.154-1.134.461-.288.308-.423.73-.423 1.25 0 .557.135.98.423 1.288.289.308.654.461 1.134.461.5 0 .885-.153 1.154-.461.27-.288.404-.73.404-1.327 0-1.115-.52-1.672-1.558-1.672zM641.316 369.48c0-.558.192-1.02.596-1.423.384-.404.865-.596 1.423-.596.557 0 1.038.192 1.422.596.385.403.577.865.577 1.422a1.9 1.9 0 01-.577 1.404c-.384.403-.865.596-1.422.596-.558 0-1.039-.193-1.423-.596a1.847 1.847 0 01-.596-1.404zm0 6.632c0-.538.192-1 .596-1.403a1.943 1.943 0 011.423-.577c.557 0 1.038.192 1.422.577.385.403.577.865.577 1.403 0 .558-.192 1.038-.577 1.442-.384.404-.865.596-1.422.596-.558 0-1.039-.192-1.423-.596a1.96 1.96 0 01-.596-1.442zM667.155 371.094c0-1.557-.27-2.96-.827-4.191-.558-1.211-1.5-2.538-2.807-3.98l1.75-1.595c1.634 1.403 2.864 2.864 3.71 4.422.827 1.557 1.25 3.345 1.25 5.344 0 2-.423 3.768-1.25 5.326-.846 1.576-2.076 3.037-3.71 4.44l-1.75-1.595c.942-1.019 1.673-1.961 2.192-2.788a9.25 9.25 0 001.115-2.499c.211-.846.327-1.807.327-2.884zM42.463 389.281l-3.307-1.518-.884 2.73 3.576.73-2.461 2.692 2.307 1.672 1.807-3.153 1.807 3.153 2.307-1.672-2.46-2.692 3.575-.73-.884-2.73-3.307 1.518.404-3.633h-2.884l.404 3.633zM43.155 408.045l-3.307-1.518-.884 2.73 3.576.73-2.461 2.692 2.307 1.672 1.807-3.153L46 414.351l2.307-1.672-2.46-2.692 3.575-.73-.884-2.73-3.307 1.518.404-3.633H42.75l.404 3.633zm5.075 9.286l8.075-16.764 2.346 1.096-8.056 16.764-2.365-1.096z" fill="#94ff00" fill-rule="nonzero"/><path d="M34.042 440.133c1.307 0 2.48.212 3.499.654l-.846 1.98a6.064 6.064 0 00-2.172-.384c-.596 0-1.039.115-1.288.326-.27.212-.404.577-.404 1.077v1.365h3.326l-.346 2.115h-2.98v7.46h-3.019v-7.46H27.66v-2.115h2.153v-1.461c0-1.058.366-1.903 1.115-2.576.731-.654 1.77-.98 3.115-.98zM42.117 451.495c0 .481.096.808.269 1 .173.212.423.308.769.308.308 0 .615-.096.942-.308.327-.192.577-.461.788-.807v-7.171h3.038v10.208H45.27l-.135-1.192c-.327.48-.788.865-1.346 1.115a4.06 4.06 0 01-1.788.404c-.96 0-1.691-.27-2.172-.846-.5-.557-.75-1.326-.75-2.326v-7.363h3.038v6.978zM50.614 444.517h2.653l.212 1.172c.461-.519.942-.903 1.461-1.153.5-.25 1.077-.366 1.711-.366.884 0 1.577.27 2.076.808.481.538.731 1.288.731 2.25v7.497H56.42v-6.613c0-.635-.076-1.077-.211-1.327s-.404-.365-.77-.365c-.307 0-.595.096-.883.288-.289.212-.596.5-.904.885v7.132h-3.038v-10.208z" fill="#ffeb4f" fill-rule="nonzero"/><path d="M83.451 445.113c-.672.269-1.653.403-2.941.403.673.289 1.173.654 1.5 1.058.326.403.48.942.48 1.576 0 .654-.173 1.23-.538 1.75-.365.519-.865.942-1.519 1.23-.654.288-1.403.442-2.269.442-.423 0-.826-.038-1.192-.115a.663.663 0 00-.23.23.783.783 0 00-.096.347c0 .192.076.346.23.442.135.115.442.173.885.173h1.692c.769 0 1.441.134 2.037.384.596.25 1.039.616 1.365 1.058.327.442.481.961.481 1.519 0 1.057-.461 1.903-1.384 2.499-.942.596-2.288.884-4.076.884-1.269 0-2.269-.134-2.98-.384-.73-.27-1.25-.635-1.519-1.115-.288-.48-.442-1.077-.442-1.788h2.692c0 .327.057.577.192.75.115.173.346.307.673.403.327.096.826.135 1.46.135.905 0 1.52-.096 1.866-.308.327-.211.5-.5.5-.865 0-.307-.116-.557-.366-.73-.25-.193-.634-.289-1.115-.289h-1.615c-1.057 0-1.845-.192-2.364-.577-.52-.365-.789-.846-.789-1.442 0-.384.097-.75.308-1.095.192-.327.461-.616.827-.846-.635-.346-1.096-.75-1.385-1.23-.288-.462-.423-1.02-.423-1.693 0-.75.193-1.422.577-1.98.385-.557.923-1 1.615-1.307.692-.288 1.48-.442 2.365-.442 1.019.019 1.903-.077 2.615-.308.71-.211 1.441-.557 2.191-1l.692 2.23zm-5.421 1.057c-.48 0-.865.154-1.134.461-.289.308-.423.73-.423 1.25 0 .558.134.98.423 1.288.288.308.653.462 1.134.462.5 0 .884-.154 1.153-.462.27-.288.404-.73.404-1.326 0-1.116-.519-1.673-1.557-1.673zM87.854 450.515c.192 1.557 1.019 2.326 2.46 2.326.866 0 1.75-.288 2.615-.846l1.212 1.654c-.5.442-1.096.769-1.788 1.019-.692.269-1.461.384-2.288.384-1.134 0-2.115-.23-2.903-.692a4.182 4.182 0 01-1.788-1.903c-.423-.808-.615-1.75-.615-2.826 0-1.02.192-1.961.596-2.788a4.585 4.585 0 011.71-1.961c.75-.48 1.635-.712 2.673-.712.98 0 1.826.212 2.538.616.711.423 1.269 1.038 1.672 1.807.385.807.577 1.73.577 2.826 0 .423-.019.788-.057 1.096h-6.614zm1.884-4.307c-.557 0-1 .193-1.326.596-.327.404-.539 1.039-.596 1.865h3.748c-.019-1.634-.634-2.46-1.826-2.46zM105.945 454.13c-.961.614-2.076.922-3.345.922-1.307 0-2.288-.327-2.942-1-.672-.673-1-1.595-1-2.807v-4.633h-2.133v-2.095h2.134v-2.211l3.037-.366v2.577h3.288l-.308 2.095h-2.98v4.633c0 .5.116.866.346 1.077.231.212.596.327 1.115.327.635 0 1.23-.154 1.788-.461l1 1.941zM117.73 445.459c0 .903-.23 1.653-.711 2.249-.5.615-1.134 1.077-1.942 1.403l3.48 5.614h-3.576l-2.884-5.094h-.884v5.094h-3.153v-13.323h4.191c1.826 0 3.21.327 4.114 1 .904.673 1.365 1.692 1.365 3.057zm-3.249 0c0-.635-.173-1.115-.538-1.404-.365-.288-.942-.442-1.692-.442h-1.038v3.845h1.173c.692 0 1.21-.154 1.576-.48.346-.327.52-.827.52-1.52zM122.46 450.515c.192 1.557 1.019 2.326 2.46 2.326.866 0 1.75-.288 2.615-.846l1.211 1.654c-.5.442-1.095.769-1.788 1.019-.692.269-1.46.384-2.287.384-1.135 0-2.115-.23-2.903-.692a4.182 4.182 0 01-1.788-1.903c-.423-.808-.616-1.75-.616-2.826 0-1.02.193-1.961.596-2.788a4.585 4.585 0 011.711-1.961c.75-.48 1.635-.712 2.673-.712.98 0 1.826.212 2.537.616.712.423 1.27 1.038 1.673 1.807.385.807.577 1.73.577 2.826 0 .423-.02.788-.058 1.096h-6.613zm1.884-4.307c-.558 0-1 .193-1.327.596-.327.404-.538 1.039-.596 1.865h3.75c-.02-1.634-.635-2.46-1.827-2.46zM139.955 451.784c0 .365.058.653.154.826.096.173.27.308.52.404l-.635 2c-.616-.058-1.135-.193-1.538-.423a2.224 2.224 0 01-.962-.923 3.646 3.646 0 01-1.46 1.019 4.77 4.77 0 01-1.885.365c-1.057 0-1.884-.288-2.518-.904-.635-.595-.942-1.365-.942-2.307 0-1.095.442-1.96 1.307-2.576.865-.596 2.095-.903 3.672-.903h1.365v-.366c0-1.057-.673-1.576-2.019-1.576-.346 0-.769.038-1.288.134-.519.097-1.038.231-1.519.404l-.692-2.018c.654-.25 1.346-.443 2.057-.577a10.314 10.314 0 011.923-.193c2.98 0 4.46 1.212 4.46 3.615v3.999zm-4.768 1.096c.346 0 .692-.097 1.058-.308.346-.192.615-.461.788-.807v-1.673h-.75c-1.634 0-2.46.519-2.46 1.538 0 .404.115.711.365.923.23.211.557.327 1 .327zM151.74 440.46v14.265h-2.692l-.154-1.115a3.21 3.21 0 01-1.172 1.038c-.481.27-1.02.404-1.654.404-1.23 0-2.153-.48-2.788-1.461-.653-.98-.96-2.307-.96-3.999 0-1.057.172-1.98.5-2.807.326-.827.807-1.461 1.422-1.922.615-.462 1.326-.693 2.153-.693.923 0 1.692.327 2.307.962v-4.999l3.038.327zm-4.538 5.94c-.557 0-.98.25-1.288.77-.307.519-.461 1.345-.461 2.441 0 1.173.135 2 .423 2.48.27.481.654.73 1.153.73.635 0 1.192-.384 1.673-1.172v-4.402a2.29 2.29 0 00-.673-.635 1.704 1.704 0 00-.827-.211zM161.987 444.17c.73 0 1.27.231 1.615.712.327.48.5 1.25.5 2.288v7.555h-2.595v-7.21c0-.365-.039-.634-.097-.768-.076-.135-.211-.212-.403-.212-.366 0-.712.23-1.058.673v7.517h-2.153v-7.21c0-.365-.038-.634-.096-.768-.077-.135-.212-.212-.404-.212-.365 0-.711.23-1.057.673v7.517h-2.634v-10.208h2.21l.212.98c.327-.461.673-.807 1-1.019.327-.211.692-.308 1.134-.308.404 0 .73.097 1 .289.27.211.461.519.577.923.692-.808 1.442-1.212 2.25-1.212zM168.601 450.515c.192 1.557 1.02 2.326 2.461 2.326.865 0 1.75-.288 2.615-.846l1.21 1.654c-.499.442-1.095.769-1.787 1.019-.692.269-1.461.384-2.288.384-1.134 0-2.115-.23-2.903-.692a4.182 4.182 0 01-1.788-1.903c-.423-.808-.615-1.75-.615-2.826 0-1.02.192-1.961.596-2.788a4.585 4.585 0 011.71-1.961c.75-.48 1.635-.712 2.673-.712.98 0 1.827.212 2.538.616.711.423 1.269 1.038 1.673 1.807.384.807.576 1.73.576 2.826 0 .423-.019.788-.057 1.096H168.6zm1.884-4.307c-.557 0-1 .193-1.326.596-.327.404-.539 1.039-.596 1.865h3.749c-.02-1.634-.635-2.46-1.827-2.46zM179.943 451.841l-.692 2.884h-3.306l4.075-13.323h3.826l4.076 13.323h-3.384l-.692-2.884h-3.903zm3.384-2.268l-1.442-5.902-1.442 5.902h2.884zM196.824 444.209c.615 0 1.173.096 1.692.308l-.558 4.268h-1.922v-1.865c-.558.096-1.058.384-1.5.903-.442.52-.769 1.154-1.019 1.942v2.922h2.019v2.038h-6.402v-2.038h1.345v-6.152h-1.345v-2.018h3.672l.538 2.287c.365-.865.846-1.518 1.403-1.96.558-.424 1.25-.635 2.077-.635zM209.763 454.13c-.961.614-2.076.922-3.345.922-1.308 0-2.288-.327-2.942-1-.673-.673-1-1.595-1-2.807v-4.633h-2.134v-2.095h2.134v-2.211l3.038-.366v2.577h3.288l-.308 2.095h-2.98v4.633c0 .5.115.866.346 1.077.23.212.596.327 1.115.327.635 0 1.23-.154 1.788-.461l1 1.941zM216.51 439.172c.52 0 .962.154 1.288.48.327.327.5.75.5 1.23 0 .5-.173.905-.5 1.231-.326.327-.769.481-1.288.481s-.96-.173-1.288-.5a1.6 1.6 0 01-.519-1.211c0-.48.173-.904.52-1.23.326-.327.768-.481 1.287-.481zm1.827 13.477h2.614v2.076h-8.536v-2.076h2.884v-6.056h-2.788v-2.076h5.826v8.132zM229.065 452.649c.384 0 .75-.077 1.115-.23.365-.135.75-.347 1.154-.635l1.345 1.922a6.1 6.1 0 01-1.692.98c-.634.25-1.345.366-2.095.366-1.096 0-2.019-.23-2.807-.673a4.54 4.54 0 01-1.826-1.884c-.423-.807-.635-1.75-.635-2.807s.212-2.018.654-2.845a4.946 4.946 0 011.865-1.961c.788-.48 1.73-.712 2.807-.712.75 0 1.441.097 2.037.308a5.394 5.394 0 011.692.98l-1.307 1.827c-.75-.52-1.5-.769-2.288-.769-1.519 0-2.288 1.057-2.288 3.172 0 1.058.193 1.827.596 2.269.404.461.962.692 1.673.692zM240.504 451.515c0 .75.443 1.134 1.308 1.134.48 0 .961-.096 1.46-.308l.712 2.038c-.826.442-1.807.673-2.941.673-1.192 0-2.077-.346-2.673-1.038-.596-.673-.903-1.634-.903-2.884v-8.594h-3v-2.076h6.037v11.055zM249.347 450.515c.193 1.557 1.02 2.326 2.461 2.326.865 0 1.75-.288 2.615-.846l1.211 1.654c-.5.442-1.096.769-1.788 1.019-.692.269-1.46.384-2.288.384-1.134 0-2.114-.23-2.903-.692a4.182 4.182 0 01-1.788-1.903c-.423-.808-.615-1.75-.615-2.826 0-1.02.192-1.961.596-2.788a4.585 4.585 0 011.711-1.961c.75-.48 1.634-.712 2.673-.712.98 0 1.826.212 2.537.616.712.423 1.27 1.038 1.673 1.807.384.807.577 1.73.577 2.826 0 .423-.02.788-.058 1.096h-6.614zm1.885-4.307c-.558 0-1 .193-1.327.596-.327.404-.538 1.039-.596 1.865h3.749c-.02-1.634-.634-2.46-1.826-2.46zM261.921 447.996c0 1.077.116 2.038.346 2.884.212.846.596 1.673 1.115 2.5.52.826 1.23 1.768 2.173 2.787l-1.75 1.596c-1.634-1.404-2.864-2.865-3.69-4.441-.847-1.557-1.27-3.326-1.27-5.326 0-2 .423-3.787 1.27-5.344.826-1.558 2.056-3.019 3.69-4.422l1.75 1.596c-1.307 1.441-2.23 2.768-2.788 3.98-.557 1.23-.846 2.633-.846 4.19z" fill="#b2b2b2" fill-rule="nonzero"/><path d="M272.63 445.555a3.49 3.49 0 011.173-1.02c.442-.25.922-.365 1.442-.365 1.268 0 2.21.481 2.845 1.423.615.942.923 2.288.923 4 0 1.056-.154 1.999-.48 2.825-.328.827-.79 1.461-1.404 1.923-.616.48-1.346.711-2.211.711-.52 0-.98-.115-1.423-.327a2.826 2.826 0 01-1.096-.923l-.115.923h-2.692V440.46l3.038-.327v5.422zm1.5 7.286c1.172 0 1.749-1.076 1.749-3.21 0-1.192-.135-2.02-.404-2.5s-.673-.711-1.192-.711c-.634 0-1.172.404-1.653 1.192v4.306c.404.616.904.923 1.5.923zM286.452 451.515c0 .75.443 1.134 1.308 1.134.48 0 .96-.096 1.46-.308l.712 2.038c-.827.442-1.807.673-2.941.673-1.192 0-2.077-.346-2.673-1.038-.596-.673-.903-1.634-.903-2.884v-8.594h-3v-2.076h6.037v11.055zM297.084 444.17c1.558 0 2.769.481 3.653 1.462.865.98 1.308 2.307 1.308 3.96 0 1.711-.443 3.057-1.308 4.018-.865.961-2.095 1.442-3.653 1.442-1.557 0-2.787-.48-3.652-1.442-.866-.942-1.308-2.288-1.308-3.999 0-1.096.192-2.038.596-2.864a4.435 4.435 0 011.711-1.904c.75-.442 1.634-.673 2.653-.673zm0 2.25c-.634 0-1.095.25-1.384.75-.288.519-.442 1.326-.442 2.441 0 1.135.154 1.942.442 2.442.289.519.75.769 1.384.769.635 0 1.096-.25 1.385-.77.288-.518.442-1.326.442-2.46 0-1.096-.154-1.903-.442-2.422-.289-.5-.75-.75-1.385-.75zM313.965 445.113c-.673.269-1.654.403-2.942.403.673.289 1.173.654 1.5 1.058.327.403.48.942.48 1.576 0 .654-.173 1.23-.538 1.75-.365.519-.865.942-1.519 1.23-.653.288-1.403.442-2.268.442-.423 0-.827-.038-1.192-.115a.663.663 0 00-.231.23.783.783 0 00-.096.347c0 .192.077.346.23.442.135.115.443.173.885.173h1.692c.769 0 1.442.134 2.038.384.596.25 1.038.616 1.365 1.058.327.442.48.961.48 1.519 0 1.057-.461 1.903-1.384 2.499-.942.596-2.288.884-4.076.884-1.269 0-2.268-.134-2.98-.384-.73-.27-1.25-.635-1.518-1.115-.289-.48-.443-1.077-.443-1.788h2.692c0 .327.058.577.192.75.116.173.346.307.673.403.327.096.827.135 1.461.135.904 0 1.519-.096 1.865-.308.327-.211.5-.5.5-.865 0-.307-.115-.557-.365-.73-.25-.193-.635-.289-1.115-.289h-1.615c-1.058 0-1.846-.192-2.365-.577-.52-.365-.788-.846-.788-1.442 0-.384.096-.75.307-1.095.193-.327.462-.616.827-.846-.634-.346-1.096-.75-1.384-1.23-.289-.462-.423-1.02-.423-1.693 0-.75.192-1.422.577-1.98.384-.557.922-1 1.614-1.307.693-.288 1.48-.442 2.365-.442 1.02.019 1.904-.077 2.615-.308.711-.211 1.442-.557 2.192-1l.692 2.23zm-5.422 1.057c-.48 0-.865.154-1.134.461-.289.308-.423.73-.423 1.25 0 .558.134.98.423 1.288.288.308.653.462 1.134.462.5 0 .884-.154 1.154-.462.269-.288.403-.73.403-1.326 0-1.116-.519-1.673-1.557-1.673zM318.136 446.381c0-.557.192-1.019.596-1.422.384-.404.865-.596 1.423-.596.557 0 1.038.192 1.422.596.385.403.577.865.577 1.422a1.9 1.9 0 01-.577 1.404c-.384.404-.865.596-1.422.596-.558 0-1.039-.192-1.423-.596a1.847 1.847 0 01-.596-1.404zm0 6.633c0-.538.192-1 .596-1.403a1.943 1.943 0 011.423-.577c.557 0 1.038.192 1.422.577.385.403.577.865.577 1.403 0 .558-.192 1.038-.577 1.442-.384.404-.865.596-1.422.596-.558 0-1.039-.192-1.423-.596a1.96 1.96 0 01-.596-1.442z" fill="#008aff" fill-rule="nonzero"/><path d="M348.378 450.822c0 .827-.211 1.577-.653 2.211-.443.635-1.058 1.135-1.865 1.48-.827.366-1.788.54-2.903.54-2.211 0-3.96-.635-5.268-1.923l1.596-1.77c1.019.904 2.21 1.347 3.595 1.347.673 0 1.211-.154 1.615-.443.404-.269.596-.672.596-1.192 0-.48-.173-.865-.5-1.153-.346-.27-.98-.538-1.903-.827-1.558-.48-2.673-1.038-3.326-1.672-.654-.635-.98-1.462-.98-2.48 0-.789.21-1.48.672-2.077.442-.596 1.038-1.038 1.807-1.346.75-.307 1.596-.461 2.538-.461 1.96 0 3.557.577 4.768 1.73l-1.48 1.711a4.986 4.986 0 00-1.442-.846 5.081 5.081 0 00-1.615-.269c-.616 0-1.096.116-1.442.327-.366.23-.539.558-.539.98 0 .289.077.52.25.712.154.192.423.365.789.538.365.173.922.366 1.672.596 1.365.404 2.365.942 3.038 1.577.653.653.98 1.557.98 2.71zM359.528 454.13c-.96.614-2.076.922-3.345.922-1.307 0-2.288-.327-2.941-1-.673-.673-1-1.595-1-2.807v-4.633h-2.134v-2.095h2.134v-2.211l3.038-.366v2.577h3.287l-.307 2.095h-2.98v4.633c0 .5.115.866.346 1.077.23.212.596.327 1.115.327.634 0 1.23-.154 1.788-.461l1 1.941zM369.66 444.209c.616 0 1.173.096 1.692.308l-.557 4.268h-1.923v-1.865c-.557.096-1.057.384-1.5.903-.441.52-.768 1.154-1.018 1.942v2.922h2.018v2.038h-6.402v-2.038h1.346v-6.152h-1.346v-2.018h3.672l.539 2.287c.365-.865.846-1.518 1.403-1.96.558-.424 1.25-.635 2.077-.635zM377.813 439.172c.519 0 .96.154 1.288.48.326.327.5.75.5 1.23 0 .5-.174.905-.5 1.231-.327.327-.77.481-1.288.481-.52 0-.962-.173-1.289-.5a1.6 1.6 0 01-.519-1.211c0-.48.173-.904.52-1.23.326-.327.768-.481 1.288-.481zm1.826 13.477h2.615v2.076h-8.536v-2.076h2.883v-6.056h-2.787v-2.076h5.825v8.132zM384.945 444.517h2.653l.211 1.172c.462-.519.942-.903 1.461-1.153.5-.25 1.077-.366 1.711-.366.885 0 1.577.27 2.077.808.48.538.73 1.288.73 2.25v7.497h-3.037v-6.613c0-.635-.077-1.077-.212-1.327-.134-.25-.404-.365-.769-.365-.308 0-.596.096-.884.288-.289.212-.596.5-.904.885v7.132h-3.037v-10.208zM406.247 445.113c-.673.269-1.654.403-2.942.403.673.289 1.173.654 1.5 1.058.327.403.48.942.48 1.576 0 .654-.173 1.23-.538 1.75-.365.519-.865.942-1.519 1.23-.653.288-1.403.442-2.268.442-.423 0-.827-.038-1.192-.115a.663.663 0 00-.231.23.783.783 0 00-.096.347c0 .192.077.346.23.442.135.115.443.173.885.173h1.692c.769 0 1.442.134 2.038.384.596.25 1.038.616 1.365 1.058.327.442.48.961.48 1.519 0 1.057-.461 1.903-1.384 2.499-.942.596-2.288.884-4.076.884-1.269 0-2.268-.134-2.98-.384-.73-.27-1.25-.635-1.518-1.115-.289-.48-.443-1.077-.443-1.788h2.692c0 .327.058.577.192.75.116.173.346.307.673.403.327.096.827.135 1.461.135.904 0 1.519-.096 1.865-.308.327-.211.5-.5.5-.865 0-.307-.115-.557-.365-.73-.25-.193-.635-.289-1.115-.289h-1.615c-1.058 0-1.846-.192-2.365-.577-.52-.365-.788-.846-.788-1.442 0-.384.096-.75.307-1.095.193-.327.462-.616.827-.846-.634-.346-1.096-.75-1.384-1.23-.289-.462-.423-1.02-.423-1.693 0-.75.192-1.422.577-1.98.384-.557.922-1 1.614-1.307.693-.288 1.48-.442 2.365-.442 1.02.019 1.904-.077 2.615-.308.711-.211 1.442-.557 2.192-1l.692 2.23zm-5.422 1.057c-.48 0-.865.154-1.134.461-.289.308-.423.73-.423 1.25 0 .558.134.98.423 1.288.288.308.653.462 1.134.462.5 0 .884-.154 1.154-.462.269-.288.403-.73.403-1.326 0-1.116-.519-1.673-1.557-1.673zM428.336 447.92h-8.728v-2.384h8.728v2.383zm0 4.018h-8.728v-2.365h8.728v2.365z" fill="#b2b2b2" fill-rule="nonzero"/><path d="M443.755 440.46h2.884l-.366 5.383h-2.153l-.365-5.383zm3.672 0h2.903l-.365 5.383h-2.173l-.365-5.383zM458.578 444.17c1.557 0 2.769.481 3.653 1.462.865.98 1.307 2.307 1.307 3.96 0 1.711-.442 3.057-1.307 4.018-.865.961-2.096 1.442-3.653 1.442s-2.788-.48-3.653-1.442c-.865-.942-1.307-2.288-1.307-3.999 0-1.096.192-2.038.596-2.864a4.435 4.435 0 011.711-1.904c.75-.442 1.634-.673 2.653-.673zm0 2.25c-.634 0-1.096.25-1.384.75-.289.519-.442 1.326-.442 2.441 0 1.135.153 1.942.442 2.442.288.519.75.769 1.384.769.635 0 1.096-.25 1.384-.77.289-.518.443-1.326.443-2.46 0-1.096-.154-1.903-.443-2.422-.288-.5-.75-.75-1.384-.75zM468.73 451.495c0 .481.096.808.269 1 .173.212.423.308.769.308.307 0 .615-.096.942-.308.327-.192.576-.461.788-.807v-7.171h3.038v10.208h-2.654l-.134-1.192c-.327.48-.788.865-1.346 1.115a4.06 4.06 0 01-1.788.404c-.961 0-1.692-.27-2.172-.846-.5-.557-.75-1.326-.75-2.326v-7.363h3.038v6.978zM481.322 452.88c.519 0 .942-.077 1.25-.25.288-.154.441-.385.441-.712 0-.23-.057-.423-.173-.557-.134-.135-.365-.289-.692-.423-.327-.135-.846-.289-1.557-.48-1.019-.27-1.807-.654-2.346-1.135-.538-.48-.807-1.134-.807-1.98 0-.942.384-1.692 1.173-2.288.769-.596 1.845-.885 3.249-.885 1.615 0 2.999.423 4.133 1.25l-1.21 1.788c-.943-.577-1.885-.865-2.827-.865-.5 0-.865.058-1.096.192-.25.135-.365.327-.365.596 0 .173.057.327.192.442.115.135.346.25.692.385.327.134.846.288 1.519.48.73.212 1.327.424 1.807.673.462.25.827.577 1.077.98.25.405.384.943.384 1.577 0 .712-.211 1.327-.653 1.846-.443.52-1.02.904-1.75 1.154-.73.25-1.538.384-2.422.384-.942 0-1.807-.134-2.576-.404a5.78 5.78 0 01-1.961-1.134l1.518-1.711c.923.711 1.923 1.077 3 1.077zM492.857 452.88c.52 0 .942-.077 1.25-.25.288-.154.442-.385.442-.712 0-.23-.058-.423-.173-.557-.135-.135-.365-.289-.692-.423-.327-.135-.846-.289-1.557-.48-1.02-.27-1.808-.654-2.346-1.135-.538-.48-.807-1.134-.807-1.98 0-.942.384-1.692 1.172-2.288.77-.596 1.846-.885 3.25-.885 1.614 0 2.999.423 4.133 1.25l-1.211 1.788c-.942-.577-1.884-.865-2.826-.865-.5 0-.866.058-1.096.192-.25.135-.366.327-.366.596 0 .173.058.327.193.442.115.135.346.25.692.385.327.134.846.288 1.519.48.73.212 1.326.424 1.807.673.461.25.827.577 1.076.98.25.405.385.943.385 1.577 0 .712-.212 1.327-.654 1.846-.442.52-1.019.904-1.75 1.154-.73.25-1.537.384-2.422.384-.942 0-1.807-.134-2.576-.404a5.78 5.78 0 01-1.96-1.134l1.518-1.711c.923.711 1.923 1.077 3 1.077zM508.892 451.784c0 .365.057.653.153.826.096.173.27.308.52.404l-.635 2c-.615-.058-1.134-.193-1.538-.423a2.224 2.224 0 01-.961-.923 3.646 3.646 0 01-1.461 1.019 4.77 4.77 0 01-1.885.365c-1.057 0-1.884-.288-2.518-.904-.635-.595-.942-1.365-.942-2.307 0-1.095.442-1.96 1.307-2.576.865-.596 2.096-.903 3.672-.903h1.365v-.366c0-1.057-.673-1.576-2.018-1.576-.346 0-.77.038-1.289.134-.519.097-1.038.231-1.518.404l-.692-2.018c.653-.25 1.345-.443 2.057-.577a10.314 10.314 0 011.922-.193c2.98 0 4.46 1.212 4.46 3.615v3.999zm-4.768 1.096c.346 0 .692-.097 1.057-.308.346-.192.615-.461.788-.807v-1.673h-.75c-1.634 0-2.46.519-2.46 1.538 0 .404.115.711.365.923.23.211.557.327 1 .327zM519.388 444.17c.73 0 1.269.231 1.615.712.327.48.5 1.25.5 2.288v7.555h-2.596v-7.21c0-.365-.038-.634-.096-.768-.077-.135-.211-.212-.404-.212-.365 0-.71.23-1.057.673v7.517h-2.153v-7.21c0-.365-.039-.634-.096-.768-.077-.135-.212-.212-.404-.212-.365 0-.711.23-1.057.673v7.517h-2.634v-10.208h2.21l.212.98c.327-.461.673-.807 1-1.019.327-.211.692-.308 1.134-.308.404 0 .73.097 1 .289.269.211.461.519.577.923.692-.808 1.441-1.212 2.249-1.212zM531.962 451.784c0 .365.057.653.154.826.096.173.269.308.519.404l-.635 2c-.615-.058-1.134-.193-1.538-.423a2.224 2.224 0 01-.961-.923 3.646 3.646 0 01-1.461 1.019 4.77 4.77 0 01-1.884.365c-1.058 0-1.884-.288-2.519-.904-.634-.595-.942-1.365-.942-2.307 0-1.095.442-1.96 1.307-2.576.866-.596 2.096-.903 3.672-.903h1.366v-.366c0-1.057-.673-1.576-2.02-1.576-.345 0-.768.038-1.287.134-.52.097-1.038.231-1.52.404l-.691-2.018c.653-.25 1.346-.443 2.057-.577a10.314 10.314 0 011.922-.193c2.98 0 4.46 1.212 4.46 3.615v3.999zm-4.768 1.096c.346 0 .692-.097 1.057-.308.346-.192.615-.461.789-.807v-1.673h-.75c-1.634 0-2.461.519-2.461 1.538 0 .404.115.711.365.923.23.211.558.327 1 .327zM537.94 445.536c.865-.904 1.865-1.366 3-1.366.903 0 1.595.27 2.076.789.48.538.73 1.288.73 2.268v7.498h-3.037v-6.652c0-.615-.077-1.038-.212-1.288-.134-.25-.404-.365-.769-.365-.307 0-.596.096-.884.307-.289.212-.596.539-.904.943v7.055h-3.037V440.46l3.037-.308v5.384zM555.032 451.784c0 .365.058.653.154.826.096.173.269.308.519.404l-.635 2c-.615-.058-1.134-.193-1.538-.423a2.224 2.224 0 01-.96-.923 3.646 3.646 0 01-1.462 1.019 4.77 4.77 0 01-1.884.365c-1.057 0-1.884-.288-2.519-.904-.634-.595-.942-1.365-.942-2.307 0-1.095.443-1.96 1.308-2.576.865-.596 2.095-.903 3.672-.903h1.365v-.366c0-1.057-.673-1.576-2.019-1.576-.346 0-.769.038-1.288.134-.52.097-1.038.231-1.519.404l-.692-2.018c.654-.25 1.346-.443 2.057-.577a10.314 10.314 0 011.923-.193c2.98 0 4.46 1.212 4.46 3.615v3.999zm-4.768 1.096c.346 0 .692-.097 1.057-.308.347-.192.616-.461.789-.807v-1.673h-.75c-1.634 0-2.46.519-2.46 1.538 0 .404.114.711.364.923.231.211.558.327 1 .327zM564.472 440.133c1.307 0 2.48.212 3.5.654l-.847 1.98a6.064 6.064 0 00-2.172-.384c-.596 0-1.038.115-1.288.326-.27.212-.404.577-.404 1.077v1.365h3.326l-.346 2.115h-2.98v7.46h-3.019v-7.46h-2.153v-2.115h2.153v-1.461c0-1.058.366-1.903 1.116-2.576.73-.654 1.768-.98 3.114-.98zM576.007 440.133c1.307 0 2.48.212 3.499.654l-.846 1.98a6.064 6.064 0 00-2.173-.384c-.596 0-1.038.115-1.288.326-.269.212-.404.577-.404 1.077v1.365h3.326l-.346 2.115h-2.98v7.46h-3.018v-7.46h-2.153v-2.115h2.153v-1.461c0-1.058.365-1.903 1.115-2.576.73-.654 1.769-.98 3.115-.98zM583.332 452.899c0-.577.211-1.077.634-1.5a1.99 1.99 0 011.5-.634c.596 0 1.096.211 1.519.634.403.423.615.923.615 1.5a2.12 2.12 0 01-.615 1.519 2.062 2.062 0 01-1.519.634 1.99 1.99 0 01-1.5-.634 2.062 2.062 0 01-.634-1.52zM601.423 440.46v14.265h-2.691l-.154-1.115a3.21 3.21 0 01-1.173 1.038c-.48.27-1.019.404-1.653.404-1.23 0-2.153-.48-2.788-1.461-.653-.98-.961-2.307-.961-3.999 0-1.057.173-1.98.5-2.807s.807-1.461 1.423-1.922c.615-.462 1.326-.693 2.153-.693.923 0 1.692.327 2.307.962v-4.999l3.037.327zm-4.537 5.94c-.557 0-.98.25-1.288.77-.307.519-.461 1.345-.461 2.441 0 1.173.134 2 .423 2.48.269.481.653.73 1.153.73.635 0 1.192-.384 1.673-1.172v-4.402a2.29 2.29 0 00-.673-.635 1.704 1.704 0 00-.827-.211zM606.748 450.515c.192 1.557 1.02 2.326 2.461 2.326.865 0 1.75-.288 2.615-.846l1.21 1.654c-.499.442-1.095.769-1.787 1.019-.692.269-1.461.384-2.288.384-1.134 0-2.115-.23-2.903-.692a4.182 4.182 0 01-1.788-1.903c-.423-.808-.615-1.75-.615-2.826 0-1.02.192-1.961.596-2.788a4.585 4.585 0 011.711-1.961c.75-.48 1.634-.712 2.672-.712.98 0 1.827.212 2.538.616.711.423 1.269 1.038 1.673 1.807.384.807.576 1.73.576 2.826 0 .423-.019.788-.057 1.096h-6.614zm1.884-4.307c-.557 0-1 .193-1.326.596-.327.404-.539 1.039-.596 1.865h3.749c-.02-1.634-.635-2.46-1.827-2.46zM621.879 454.725h-3.576l-3.441-10.208h3.287l1.98 7.882 2.077-7.882h3.076l-3.403 10.208zM628.32 440.46h2.884l-.366 5.383h-2.153l-.365-5.383zm3.672 0h2.903l-.365 5.383h-2.173l-.365-5.383z" fill="#ff2c2c" fill-rule="nonzero"/><path d="M643.892 447.996c0-1.557-.27-2.96-.827-4.19-.557-1.212-1.5-2.539-2.807-3.98l1.75-1.596c1.634 1.403 2.864 2.864 3.71 4.422.827 1.557 1.25 3.345 1.25 5.344 0 2-.423 3.769-1.25 5.326-.846 1.576-2.076 3.037-3.71 4.44l-1.75-1.595c.942-1.019 1.673-1.96 2.192-2.788a9.25 9.25 0 001.115-2.499c.211-.846.327-1.807.327-2.884zM652.659 446.381c0-.557.192-1.019.596-1.422.385-.404.865-.596 1.423-.596.557 0 1.038.192 1.422.596.385.403.577.865.577 1.422a1.9 1.9 0 01-.577 1.404c-.384.404-.865.596-1.422.596-.558 0-1.038-.192-1.423-.596a1.847 1.847 0 01-.596-1.404zm0 6.633c0-.538.192-1 .596-1.403a1.943 1.943 0 011.423-.577c.557 0 1.038.192 1.422.577.385.403.577.865.577 1.403 0 .558-.192 1.038-.577 1.442-.384.404-.865.596-1.422.596-.558 0-1.038-.192-1.423-.596a1.96 1.96 0 01-.596-1.442zM675.768 451.841l-.692 2.884h-3.307l4.076-13.323h3.825l4.076 13.323h-3.383l-.693-2.884h-3.902zm3.383-2.268l-1.442-5.902-1.441 5.902h2.883zM692.648 444.209c.615 0 1.173.096 1.692.308l-.558 4.268h-1.922v-1.865c-.558.096-1.058.384-1.5.903-.442.52-.769 1.154-1.019 1.942v2.922h2.019v2.038h-6.402v-2.038h1.346v-6.152h-1.346v-2.018h3.672l.538 2.287c.365-.865.846-1.518 1.404-1.96.557-.424 1.25-.635 2.076-.635zM705.586 454.13c-.961.614-2.076.922-3.345.922-1.307 0-2.288-.327-2.942-1-.673-.673-1-1.595-1-2.807v-4.633h-2.133v-2.095h2.134v-2.211l3.037-.366v2.577h3.288l-.308 2.095h-2.98v4.633c0 .5.116.866.346 1.077.231.212.596.327 1.115.327.635 0 1.23-.154 1.788-.461l1 1.941zM712.335 439.172c.519 0 .96.154 1.288.48.327.327.5.75.5 1.23 0 .5-.173.905-.5 1.231-.327.327-.77.481-1.288.481-.52 0-.962-.173-1.289-.5a1.6 1.6 0 01-.519-1.211c0-.48.173-.904.52-1.23.326-.327.768-.481 1.288-.481zm1.826 13.477h2.615v2.076h-8.536v-2.076h2.883v-6.056h-2.787v-2.076h5.825v8.132zM724.89 452.649c.384 0 .749-.077 1.114-.23.366-.135.75-.347 1.154-.635l1.346 1.922a6.1 6.1 0 01-1.692.98c-.635.25-1.346.366-2.096.366-1.096 0-2.019-.23-2.807-.673a4.54 4.54 0 01-1.826-1.884c-.423-.807-.635-1.75-.635-2.807s.212-2.018.654-2.845a4.946 4.946 0 011.865-1.961c.788-.48 1.73-.712 2.807-.712.75 0 1.442.097 2.038.308a5.394 5.394 0 011.692.98l-1.308 1.827c-.75-.52-1.5-.769-2.288-.769-1.518 0-2.287 1.057-2.287 3.172 0 1.058.192 1.827.596 2.269.403.461.96.692 1.672.692zM736.328 451.515c0 .75.442 1.134 1.307 1.134.48 0 .961-.096 1.461-.308l.711 2.038c-.826.442-1.807.673-2.941.673-1.192 0-2.076-.346-2.672-1.038-.596-.673-.904-1.634-.904-2.884v-8.594h-3v-2.076h6.038v11.055zM745.172 450.515c.192 1.557 1.019 2.326 2.46 2.326.866 0 1.75-.288 2.615-.846l1.211 1.654c-.5.442-1.095.769-1.788 1.019-.692.269-1.46.384-2.287.384-1.135 0-2.115-.23-2.903-.692a4.182 4.182 0 01-1.788-1.903c-.423-.808-.616-1.75-.616-2.826 0-1.02.193-1.961.596-2.788a4.585 4.585 0 011.711-1.961c.75-.48 1.635-.712 2.673-.712.98 0 1.826.212 2.538.616.71.423 1.268 1.038 1.672 1.807.385.807.577 1.73.577 2.826 0 .423-.02.788-.058 1.096h-6.613zm1.884-4.307c-.558 0-1 .193-1.327.596-.327.404-.538 1.039-.596 1.865h3.75c-.02-1.634-.635-2.46-1.827-2.46zM773.24 440.69c-.634 0-1.115.097-1.403.25-.308.174-.442.5-.384.962l.288 2.845c.02.116.02.27.02.48 0 .847-.25 1.481-.77 1.904-.519.442-1.269.73-2.23.865 1.019.154 1.769.443 2.269.846.5.404.75 1.038.75 1.884 0 .096-.02.27-.039.52l-.288 2.845c-.058.442.076.769.384.942.308.173.77.269 1.404.269v2.115c-1.635 0-2.827-.23-3.538-.673-.73-.442-1.096-1.192-1.096-2.25 0-.134.02-.326.039-.615l.288-2.768.02-.25c0-.596-.231-1.019-.693-1.269-.48-.25-1.134-.365-1.98-.365v-2.461c1.788 0 2.672-.538 2.672-1.634l-.019-.25-.288-2.75c-.02-.307-.039-.518-.039-.653 0-1.057.366-1.807 1.096-2.25.73-.442 1.903-.653 3.538-.653v2.115z" fill="#b2b2b2" fill-rule="nonzero"/></svg>