<?xml version="1.0" encoding="UTF-8" standalone="no"?>
<!DOCTYPE svg PUBLIC "-//W3C//DTD SVG 1.1//EN" "http://www.w3.org/Graphics/SVG/1.1/DTD/svg11.dtd">
<svg width="100%" height="100%" viewBox="0 0 800 123" version="1.1" xmlns="http://www.w3.org/2000/svg" xmlns:xlink="http://www.w3.org/1999/xlink" xml:space="preserve" xmlns:serif="http://www.serif.com/" style="fill-rule:evenodd;clip-rule:evenodd;stroke-linejoin:round;stroke-miterlimit:2;">
    <g transform="matrix(1,0,0,1,0,-377)">
        <rect x="0" y="0" width="800" height="500" style="fill:rgb(9,31,42);"/>
        <g transform="matrix(0.105233,0,0,0.105233,9.45354,333.259)">
            <g transform="matrix(182.694,0,0,182.694,206.94,1154.25)">
                <path d="M0.133,-0.84C0.218,-0.84 0.28,-0.828 0.318,-0.805C0.355,-0.782 0.374,-0.743 0.374,-0.688C0.374,-0.681 0.373,-0.671 0.372,-0.656L0.357,-0.512L0.356,-0.499C0.356,-0.442 0.402,-0.414 0.495,-0.414L0.495,-0.286C0.402,-0.286 0.356,-0.258 0.356,-0.201L0.357,-0.188L0.372,-0.045C0.373,-0.029 0.374,-0.018 0.374,-0.011C0.374,0.044 0.355,0.083 0.317,0.106C0.279,0.129 0.218,0.14 0.133,0.14L0.133,0.03C0.166,0.03 0.191,0.025 0.207,0.017C0.222,0.008 0.229,-0.009 0.226,-0.033L0.211,-0.181C0.21,-0.187 0.21,-0.195 0.21,-0.206C0.21,-0.25 0.224,-0.283 0.251,-0.306C0.278,-0.328 0.316,-0.343 0.367,-0.35C0.314,-0.358 0.275,-0.373 0.249,-0.394C0.223,-0.415 0.21,-0.448 0.21,-0.492C0.21,-0.504 0.21,-0.513 0.211,-0.519L0.226,-0.667C0.229,-0.69 0.222,-0.707 0.206,-0.716C0.19,-0.725 0.166,-0.73 0.133,-0.73L0.133,-0.84Z" style="fill:rgb(178,178,178);fill-rule:nonzero;"/>
            </g>
            <g transform="matrix(182.694,0,0,182.694,535.79,1154.25)">
                <path d="M-0.521,0.055L-0.101,-0.817L0.021,-0.76L-0.398,0.112L-0.521,0.055ZM-0.021,0.055L0.399,-0.817L0.521,-0.76L0.102,0.112L-0.021,0.055Z" style="fill:rgb(178,178,178);fill-rule:nonzero;"/>
            </g>
            <g transform="matrix(182.694,0,0,182.694,755.022,1154.25)">
                <path d="M0.257,-0.409L0.497,-0.409L0.497,-0.295L0.257,-0.295L0.257,-0.118L0.546,-0.118L0.546,-0L0.093,-0L0.093,-0.693L0.546,-0.693L0.529,-0.576L0.257,-0.576L0.257,-0.409Z" style="fill:rgb(178,178,178);fill-rule:nonzero;"/>
            </g>
            <g transform="matrix(182.694,0,0,182.694,864.639,1154.25)">
                <path d="M0.07,-0.531L0.208,-0.531L0.219,-0.47C0.243,-0.497 0.268,-0.517 0.295,-0.53C0.321,-0.543 0.351,-0.549 0.384,-0.549C0.43,-0.549 0.466,-0.535 0.492,-0.507C0.517,-0.479 0.53,-0.44 0.53,-0.39L0.53,-0L0.372,-0L0.372,-0.344C0.372,-0.377 0.368,-0.4 0.361,-0.413C0.354,-0.426 0.34,-0.432 0.321,-0.432C0.305,-0.432 0.29,-0.427 0.275,-0.417C0.26,-0.406 0.244,-0.391 0.228,-0.371L0.228,-0L0.07,-0L0.07,-0.531Z" style="fill:rgb(178,178,178);fill-rule:nonzero;"/>
            </g>
            <g transform="matrix(182.694,0,0,182.694,974.255,1154.25)">
                <path d="M0.53,-0.742L0.53,-0L0.39,-0L0.382,-0.058C0.366,-0.035 0.346,-0.017 0.321,-0.004C0.296,0.01 0.268,0.017 0.235,0.017C0.171,0.017 0.123,-0.008 0.09,-0.059C0.056,-0.11 0.04,-0.179 0.04,-0.267C0.04,-0.322 0.049,-0.37 0.066,-0.413C0.083,-0.456 0.108,-0.489 0.14,-0.513C0.172,-0.537 0.209,-0.549 0.252,-0.549C0.3,-0.549 0.34,-0.532 0.372,-0.499L0.372,-0.759L0.53,-0.742ZM0.294,-0.433C0.265,-0.433 0.243,-0.42 0.227,-0.393C0.211,-0.366 0.203,-0.323 0.203,-0.266C0.203,-0.205 0.21,-0.162 0.225,-0.137C0.239,-0.112 0.259,-0.099 0.285,-0.099C0.318,-0.099 0.347,-0.119 0.372,-0.16L0.372,-0.389C0.361,-0.404 0.349,-0.415 0.337,-0.422C0.324,-0.429 0.31,-0.433 0.294,-0.433Z" style="fill:rgb(178,178,178);fill-rule:nonzero;"/>
            </g>
            <g transform="matrix(182.694,0,0,182.694,1193.49,1154.25)">
                <path d="M0.3,-0.549C0.381,-0.549 0.444,-0.524 0.49,-0.473C0.535,-0.422 0.558,-0.353 0.558,-0.267C0.558,-0.178 0.535,-0.108 0.49,-0.058C0.445,-0.008 0.381,0.017 0.3,0.017C0.219,0.017 0.155,-0.008 0.11,-0.058C0.065,-0.107 0.042,-0.177 0.042,-0.266C0.042,-0.323 0.052,-0.372 0.073,-0.415C0.093,-0.457 0.123,-0.49 0.162,-0.514C0.201,-0.537 0.247,-0.549 0.3,-0.549ZM0.3,-0.432C0.267,-0.432 0.243,-0.419 0.228,-0.393C0.213,-0.366 0.205,-0.324 0.205,-0.266C0.205,-0.207 0.213,-0.165 0.228,-0.139C0.243,-0.112 0.267,-0.099 0.3,-0.099C0.333,-0.099 0.357,-0.112 0.372,-0.139C0.387,-0.166 0.395,-0.208 0.395,-0.267C0.395,-0.324 0.387,-0.366 0.372,-0.393C0.357,-0.419 0.333,-0.432 0.3,-0.432Z" style="fill:rgb(178,178,178);fill-rule:nonzero;"/>
            </g>
            <g transform="matrix(182.694,0,0,182.694,1303.1,1154.25)">
                <path d="M0.408,-0.759C0.476,-0.759 0.537,-0.748 0.59,-0.725L0.546,-0.622C0.512,-0.635 0.474,-0.642 0.433,-0.642C0.402,-0.642 0.379,-0.636 0.366,-0.625C0.352,-0.614 0.345,-0.595 0.345,-0.569L0.345,-0.498L0.518,-0.498L0.5,-0.388L0.345,-0.388L0.345,-0L0.188,-0L0.188,-0.388L0.076,-0.388L0.076,-0.498L0.188,-0.498L0.188,-0.574C0.188,-0.629 0.207,-0.673 0.246,-0.708C0.284,-0.742 0.338,-0.759 0.408,-0.759Z" style="fill:rgb(178,178,178);fill-rule:nonzero;"/>
            </g>
            <g transform="matrix(182.694,0,0,182.694,1522.34,1154.25)">
                <path d="M0.364,-0.549C0.431,-0.549 0.48,-0.525 0.511,-0.476C0.542,-0.427 0.558,-0.357 0.558,-0.267C0.558,-0.212 0.55,-0.164 0.534,-0.121C0.517,-0.078 0.494,-0.044 0.463,-0.02C0.432,0.005 0.396,0.017 0.354,0.017C0.303,0.017 0.261,-0.001 0.228,-0.038L0.228,0.205L0.07,0.222L0.07,-0.531L0.21,-0.531L0.217,-0.472C0.238,-0.498 0.261,-0.517 0.287,-0.53C0.312,-0.543 0.338,-0.549 0.364,-0.549ZM0.315,-0.432C0.282,-0.432 0.253,-0.411 0.228,-0.37L0.228,-0.146C0.239,-0.13 0.251,-0.118 0.264,-0.111C0.276,-0.103 0.29,-0.099 0.306,-0.099C0.335,-0.099 0.358,-0.112 0.373,-0.139C0.388,-0.165 0.395,-0.207 0.395,-0.265C0.395,-0.328 0.388,-0.371 0.375,-0.396C0.362,-0.42 0.342,-0.432 0.315,-0.432Z" style="fill:rgb(178,178,178);fill-rule:nonzero;"/>
            </g>
            <g transform="matrix(182.694,0,0,182.694,1631.95,1154.25)">
                <path d="M0.475,-0.547C0.507,-0.547 0.536,-0.542 0.563,-0.531L0.534,-0.309L0.434,-0.309L0.434,-0.406C0.405,-0.401 0.379,-0.386 0.356,-0.359C0.333,-0.332 0.316,-0.299 0.303,-0.258L0.303,-0.106L0.408,-0.106L0.408,-0L0.075,-0L0.075,-0.106L0.145,-0.106L0.145,-0.426L0.075,-0.426L0.075,-0.531L0.266,-0.531L0.294,-0.412C0.313,-0.457 0.338,-0.491 0.367,-0.514C0.396,-0.536 0.432,-0.547 0.475,-0.547Z" style="fill:rgb(178,178,178);fill-rule:nonzero;"/>
            </g>
            <g transform="matrix(182.694,0,0,182.694,1741.57,1154.25)">
                <path d="M0.3,-0.549C0.381,-0.549 0.444,-0.524 0.49,-0.473C0.535,-0.422 0.558,-0.353 0.558,-0.267C0.558,-0.178 0.535,-0.108 0.49,-0.058C0.445,-0.008 0.381,0.017 0.3,0.017C0.219,0.017 0.155,-0.008 0.11,-0.058C0.065,-0.107 0.042,-0.177 0.042,-0.266C0.042,-0.323 0.052,-0.372 0.073,-0.415C0.093,-0.457 0.123,-0.49 0.162,-0.514C0.201,-0.537 0.247,-0.549 0.3,-0.549ZM0.3,-0.432C0.267,-0.432 0.243,-0.419 0.228,-0.393C0.213,-0.366 0.205,-0.324 0.205,-0.266C0.205,-0.207 0.213,-0.165 0.228,-0.139C0.243,-0.112 0.267,-0.099 0.3,-0.099C0.333,-0.099 0.357,-0.112 0.372,-0.139C0.387,-0.166 0.395,-0.208 0.395,-0.267C0.395,-0.324 0.387,-0.366 0.372,-0.393C0.357,-0.419 0.333,-0.432 0.3,-0.432Z" style="fill:rgb(178,178,178);fill-rule:nonzero;"/>
            </g>
            <g transform="matrix(182.694,0,0,182.694,1851.19,1154.25)">
                <path d="M0.53,-0.742L0.53,-0L0.39,-0L0.382,-0.058C0.366,-0.035 0.346,-0.017 0.321,-0.004C0.296,0.01 0.268,0.017 0.235,0.017C0.171,0.017 0.123,-0.008 0.09,-0.059C0.056,-0.11 0.04,-0.179 0.04,-0.267C0.04,-0.322 0.049,-0.37 0.066,-0.413C0.083,-0.456 0.108,-0.489 0.14,-0.513C0.172,-0.537 0.209,-0.549 0.252,-0.549C0.3,-0.549 0.34,-0.532 0.372,-0.499L0.372,-0.759L0.53,-0.742ZM0.294,-0.433C0.265,-0.433 0.243,-0.42 0.227,-0.393C0.211,-0.366 0.203,-0.323 0.203,-0.266C0.203,-0.205 0.21,-0.162 0.225,-0.137C0.239,-0.112 0.259,-0.099 0.285,-0.099C0.318,-0.099 0.347,-0.119 0.372,-0.16L0.372,-0.389C0.361,-0.404 0.349,-0.415 0.337,-0.422C0.324,-0.429 0.31,-0.433 0.294,-0.433Z" style="fill:rgb(178,178,178);fill-rule:nonzero;"/>
            </g>
            <g transform="matrix(182.694,0,0,182.694,1960.8,1154.25)">
                <path d="M0.228,-0.168C0.228,-0.143 0.233,-0.126 0.242,-0.116C0.251,-0.105 0.264,-0.1 0.282,-0.1C0.298,-0.1 0.314,-0.105 0.331,-0.116C0.348,-0.126 0.361,-0.14 0.372,-0.158L0.372,-0.531L0.53,-0.531L0.53,-0L0.392,-0L0.385,-0.062C0.368,-0.037 0.344,-0.017 0.315,-0.004C0.286,0.01 0.255,0.017 0.222,0.017C0.172,0.017 0.134,0.003 0.109,-0.027C0.083,-0.056 0.07,-0.096 0.07,-0.148L0.07,-0.531L0.228,-0.531L0.228,-0.168Z" style="fill:rgb(178,178,178);fill-rule:nonzero;"/>
            </g>
            <g transform="matrix(182.694,0,0,182.694,2070.42,1154.25)">
                <path d="M0.352,-0.108C0.372,-0.108 0.391,-0.112 0.41,-0.12C0.429,-0.127 0.449,-0.138 0.47,-0.153L0.54,-0.053C0.515,-0.032 0.485,-0.015 0.452,-0.002C0.419,0.011 0.382,0.017 0.343,0.017C0.286,0.017 0.238,0.005 0.197,-0.018C0.156,-0.041 0.124,-0.074 0.102,-0.116C0.08,-0.158 0.069,-0.207 0.069,-0.262C0.069,-0.317 0.08,-0.367 0.103,-0.41C0.126,-0.453 0.158,-0.487 0.2,-0.512C0.241,-0.537 0.29,-0.549 0.346,-0.549C0.385,-0.549 0.421,-0.544 0.452,-0.533C0.483,-0.522 0.513,-0.505 0.54,-0.482L0.472,-0.387C0.433,-0.414 0.394,-0.427 0.353,-0.427C0.274,-0.427 0.234,-0.372 0.234,-0.262C0.234,-0.207 0.244,-0.167 0.265,-0.144C0.286,-0.12 0.315,-0.108 0.352,-0.108Z" style="fill:rgb(178,178,178);fill-rule:nonzero;"/>
            </g>
            <g transform="matrix(182.694,0,0,182.694,2180.04,1154.25)">
                <path d="M0.207,-0.219C0.217,-0.138 0.26,-0.098 0.335,-0.098C0.38,-0.098 0.426,-0.113 0.471,-0.142L0.534,-0.056C0.508,-0.033 0.477,-0.016 0.441,-0.003C0.405,0.011 0.365,0.017 0.322,0.017C0.263,0.017 0.212,0.005 0.171,-0.019C0.13,-0.042 0.098,-0.075 0.078,-0.118C0.056,-0.16 0.046,-0.209 0.046,-0.265C0.046,-0.318 0.056,-0.367 0.077,-0.41C0.097,-0.453 0.127,-0.487 0.166,-0.512C0.205,-0.537 0.251,-0.549 0.305,-0.549C0.356,-0.549 0.4,-0.538 0.437,-0.517C0.474,-0.495 0.503,-0.463 0.524,-0.423C0.544,-0.381 0.554,-0.333 0.554,-0.276C0.554,-0.254 0.553,-0.235 0.551,-0.219L0.207,-0.219ZM0.305,-0.443C0.276,-0.443 0.253,-0.433 0.236,-0.412C0.219,-0.391 0.208,-0.358 0.205,-0.315L0.4,-0.315C0.399,-0.4 0.367,-0.443 0.305,-0.443Z" style="fill:rgb(178,178,178);fill-rule:nonzero;"/>
            </g>
            <g transform="matrix(182.694,0,0,182.694,2289.65,1154.25)">
                <path d="M0.561,-0.482C0.561,-0.435 0.549,-0.396 0.524,-0.365C0.498,-0.333 0.465,-0.309 0.423,-0.292L0.604,-0L0.418,-0L0.268,-0.265L0.222,-0.265L0.222,-0L0.058,-0L0.058,-0.693L0.276,-0.693C0.371,-0.693 0.443,-0.676 0.49,-0.641C0.537,-0.606 0.561,-0.553 0.561,-0.482ZM0.392,-0.482C0.392,-0.515 0.383,-0.54 0.364,-0.555C0.345,-0.57 0.315,-0.578 0.276,-0.578L0.222,-0.578L0.222,-0.378L0.283,-0.378C0.319,-0.378 0.346,-0.386 0.365,-0.403C0.383,-0.42 0.392,-0.446 0.392,-0.482Z" style="fill:rgb(178,178,178);fill-rule:nonzero;"/>
            </g>
            <g transform="matrix(182.694,0,0,182.694,2399.27,1154.25)">
                <path d="M0.207,-0.219C0.217,-0.138 0.26,-0.098 0.335,-0.098C0.38,-0.098 0.426,-0.113 0.471,-0.142L0.534,-0.056C0.508,-0.033 0.477,-0.016 0.441,-0.003C0.405,0.011 0.365,0.017 0.322,0.017C0.263,0.017 0.212,0.005 0.171,-0.019C0.13,-0.042 0.098,-0.075 0.078,-0.118C0.056,-0.16 0.046,-0.209 0.046,-0.265C0.046,-0.318 0.056,-0.367 0.077,-0.41C0.097,-0.453 0.127,-0.487 0.166,-0.512C0.205,-0.537 0.251,-0.549 0.305,-0.549C0.356,-0.549 0.4,-0.538 0.437,-0.517C0.474,-0.495 0.503,-0.463 0.524,-0.423C0.544,-0.381 0.554,-0.333 0.554,-0.276C0.554,-0.254 0.553,-0.235 0.551,-0.219L0.207,-0.219ZM0.305,-0.443C0.276,-0.443 0.253,-0.433 0.236,-0.412C0.219,-0.391 0.208,-0.358 0.205,-0.315L0.4,-0.315C0.399,-0.4 0.367,-0.443 0.305,-0.443Z" style="fill:rgb(178,178,178);fill-rule:nonzero;"/>
            </g>
            <g transform="matrix(182.694,0,0,182.694,2508.88,1154.25)">
                <path d="M0.517,-0.153C0.517,-0.134 0.52,-0.119 0.525,-0.11C0.53,-0.101 0.539,-0.094 0.552,-0.089L0.519,0.015C0.487,0.012 0.46,0.005 0.439,-0.007C0.418,-0.017 0.401,-0.034 0.389,-0.055C0.369,-0.032 0.344,-0.014 0.313,-0.002C0.282,0.011 0.25,0.017 0.215,0.017C0.16,0.017 0.117,0.002 0.084,-0.03C0.051,-0.061 0.035,-0.101 0.035,-0.15C0.035,-0.207 0.058,-0.252 0.103,-0.284C0.148,-0.315 0.212,-0.331 0.294,-0.331L0.365,-0.331L0.365,-0.35C0.365,-0.405 0.33,-0.432 0.26,-0.432C0.242,-0.432 0.22,-0.43 0.193,-0.425C0.166,-0.42 0.139,-0.413 0.114,-0.404L0.078,-0.509C0.112,-0.522 0.148,-0.532 0.185,-0.539C0.222,-0.546 0.255,-0.549 0.285,-0.549C0.44,-0.549 0.517,-0.486 0.517,-0.361L0.517,-0.153ZM0.269,-0.096C0.287,-0.096 0.305,-0.101 0.324,-0.112C0.342,-0.122 0.356,-0.136 0.365,-0.154L0.365,-0.241L0.326,-0.241C0.241,-0.241 0.198,-0.214 0.198,-0.161C0.198,-0.14 0.204,-0.124 0.217,-0.113C0.229,-0.102 0.246,-0.096 0.269,-0.096Z" style="fill:rgb(178,178,178);fill-rule:nonzero;"/>
            </g>
            <g transform="matrix(182.694,0,0,182.694,2618.5,1154.25)">
                <path d="M0.53,-0.742L0.53,-0L0.39,-0L0.382,-0.058C0.366,-0.035 0.346,-0.017 0.321,-0.004C0.296,0.01 0.268,0.017 0.235,0.017C0.171,0.017 0.123,-0.008 0.09,-0.059C0.056,-0.11 0.04,-0.179 0.04,-0.267C0.04,-0.322 0.049,-0.37 0.066,-0.413C0.083,-0.456 0.108,-0.489 0.14,-0.513C0.172,-0.537 0.209,-0.549 0.252,-0.549C0.3,-0.549 0.34,-0.532 0.372,-0.499L0.372,-0.759L0.53,-0.742ZM0.294,-0.433C0.265,-0.433 0.243,-0.42 0.227,-0.393C0.211,-0.366 0.203,-0.323 0.203,-0.266C0.203,-0.205 0.21,-0.162 0.225,-0.137C0.239,-0.112 0.259,-0.099 0.285,-0.099C0.318,-0.099 0.347,-0.119 0.372,-0.16L0.372,-0.389C0.361,-0.404 0.349,-0.415 0.337,-0.422C0.324,-0.429 0.31,-0.433 0.294,-0.433Z" style="fill:rgb(178,178,178);fill-rule:nonzero;"/>
            </g>
            <g transform="matrix(182.694,0,0,182.694,2728.12,1154.25)">
                <path d="M0.463,-0.549C0.501,-0.549 0.529,-0.537 0.547,-0.512C0.564,-0.487 0.573,-0.447 0.573,-0.393L0.573,-0L0.438,-0L0.438,-0.375C0.438,-0.394 0.436,-0.408 0.433,-0.415C0.429,-0.422 0.422,-0.426 0.412,-0.426C0.393,-0.426 0.375,-0.414 0.357,-0.391L0.357,-0L0.245,-0L0.245,-0.375C0.245,-0.394 0.243,-0.408 0.24,-0.415C0.236,-0.422 0.229,-0.426 0.219,-0.426C0.2,-0.426 0.182,-0.414 0.164,-0.391L0.164,-0L0.027,-0L0.027,-0.531L0.142,-0.531L0.153,-0.48C0.17,-0.504 0.188,-0.522 0.205,-0.533C0.222,-0.544 0.241,-0.549 0.264,-0.549C0.285,-0.549 0.302,-0.544 0.316,-0.534C0.33,-0.523 0.34,-0.507 0.346,-0.486C0.382,-0.528 0.421,-0.549 0.463,-0.549Z" style="fill:rgb(178,178,178);fill-rule:nonzero;"/>
            </g>
            <g transform="matrix(182.694,0,0,182.694,2837.73,1154.25)">
                <path d="M0.207,-0.219C0.217,-0.138 0.26,-0.098 0.335,-0.098C0.38,-0.098 0.426,-0.113 0.471,-0.142L0.534,-0.056C0.508,-0.033 0.477,-0.016 0.441,-0.003C0.405,0.011 0.365,0.017 0.322,0.017C0.263,0.017 0.212,0.005 0.171,-0.019C0.13,-0.042 0.098,-0.075 0.078,-0.118C0.056,-0.16 0.046,-0.209 0.046,-0.265C0.046,-0.318 0.056,-0.367 0.077,-0.41C0.097,-0.453 0.127,-0.487 0.166,-0.512C0.205,-0.537 0.251,-0.549 0.305,-0.549C0.356,-0.549 0.4,-0.538 0.437,-0.517C0.474,-0.495 0.503,-0.463 0.524,-0.423C0.544,-0.381 0.554,-0.333 0.554,-0.276C0.554,-0.254 0.553,-0.235 0.551,-0.219L0.207,-0.219ZM0.305,-0.443C0.276,-0.443 0.253,-0.433 0.236,-0.412C0.219,-0.391 0.208,-0.358 0.205,-0.315L0.4,-0.315C0.399,-0.4 0.367,-0.443 0.305,-0.443Z" style="fill:rgb(178,178,178);fill-rule:nonzero;"/>
            </g>
        </g>
    </g>
</svg>
