<svg xmlns="http://www.w3.org/2000/svg" viewBox="0 0 800 123" fill-rule="evenodd" clip-rule="evenodd" stroke-linejoin="round" stroke-miterlimit="2"><path fill="#091f2a" d="M0-377h800v500H0z"/><path d="M33.787 61.575c1.635 0 2.827.23 3.557.673.711.442 1.077 1.192 1.077 2.25 0 .134-.02.326-.039.614l-.288 2.769-.02.25c0 1.096.885 1.634 2.673 1.634v2.46c-1.788 0-2.672.539-2.672 1.635l.019.25.288 2.749c.02.308.039.52.039.654 0 1.057-.366 1.807-1.096 2.25-.73.441-1.903.653-3.538.653V78.3c.635 0 1.116-.096 1.423-.25.289-.173.423-.5.365-.961l-.288-2.846c-.02-.115-.02-.269-.02-.48 0-.846.27-1.48.789-1.923.52-.423 1.25-.711 2.23-.846-1.019-.154-1.769-.442-2.268-.846-.5-.403-.75-1.038-.75-1.884 0-.23 0-.403.019-.519l.288-2.845c.058-.442-.076-.77-.384-.942-.308-.173-.77-.27-1.404-.27v-2.114zM55.82 78.782l8.075-16.765 2.345 1.096-8.055 16.764-2.365-1.095zm9.613 0l8.074-16.765 2.346 1.096-8.056 16.764-2.364-1.095zM93.848 69.861h4.614v2.192h-4.614v3.403h5.556v2.268h-8.71V64.401h8.71l-.327 2.25h-5.23v3.21zM101.788 67.515h2.653l.211 1.173c.462-.519.943-.903 1.462-1.153.5-.25 1.076-.366 1.71-.366.885 0 1.577.27 2.077.808.48.538.73 1.288.73 2.25v7.497h-3.037v-6.613c0-.635-.077-1.077-.212-1.327-.134-.25-.403-.365-.769-.365-.307 0-.596.096-.884.288-.288.212-.596.5-.904.885v7.132h-3.037V67.515zM122.167 63.459v14.265h-2.692l-.154-1.115a3.21 3.21 0 01-1.172 1.038c-.481.27-1.02.404-1.654.404-1.23 0-2.153-.48-2.787-1.461-.654-.98-.962-2.307-.962-3.999 0-1.057.173-1.98.5-2.807s.808-1.461 1.423-1.922c.615-.462 1.326-.693 2.153-.693.923 0 1.692.327 2.307.962v-4.999l3.038.327zm-4.537 5.94c-.558 0-.98.25-1.289.77-.307.519-.46 1.345-.46 2.441 0 1.173.134 2 .422 2.48.27.48.654.73 1.154.73.634 0 1.192-.384 1.672-1.172v-4.403a2.29 2.29 0 00-.673-.634 1.704 1.704 0 00-.826-.211zM140.816 67.17c1.557 0 2.768.48 3.653 1.46.865.981 1.307 2.308 1.307 3.961 0 1.711-.442 3.057-1.307 4.018-.866.961-2.096 1.442-3.653 1.442-1.558 0-2.788-.48-3.653-1.442-.865-.942-1.307-2.288-1.307-3.999 0-1.096.192-2.038.596-2.864a4.435 4.435 0 011.71-1.904c.75-.442 1.635-.673 2.654-.673zm0 2.249c-.635 0-1.096.25-1.385.75-.288.519-.442 1.326-.442 2.441 0 1.135.154 1.942.442 2.442.289.519.75.769 1.385.769.634 0 1.096-.25 1.384-.77.288-.518.442-1.326.442-2.46 0-1.096-.154-1.903-.442-2.422-.288-.5-.75-.75-1.384-.75zM154.427 63.132c1.307 0 2.48.212 3.499.654l-.846 1.98a6.064 6.064 0 00-2.173-.385c-.596 0-1.038.116-1.288.327-.269.212-.404.577-.404 1.077v1.365h3.326l-.346 2.115h-2.98v7.46h-3.018v-7.46h-2.153V68.15h2.153v-1.461c0-1.058.365-1.904 1.115-2.576.73-.654 1.769-.98 3.115-.98zM180.766 68.111c-.673.27-1.653.404-2.941.404.673.289 1.173.654 1.5 1.058.326.403.48.942.48 1.576 0 .654-.173 1.23-.538 1.75-.366.519-.865.942-1.52 1.23-.653.288-1.403.442-2.268.442-.423 0-.826-.038-1.192-.115a.663.663 0 00-.23.23.783.783 0 00-.097.347c0 .192.077.346.231.442.135.115.442.173.885.173h1.691c.77 0 1.442.134 2.038.384.596.25 1.038.616 1.365 1.058.327.442.48.961.48 1.519 0 1.057-.46 1.903-1.383 2.499-.942.596-2.288.884-4.076.884-1.269 0-2.269-.134-2.98-.384-.73-.27-1.25-.635-1.519-1.115-.288-.481-.442-1.077-.442-1.788h2.691c0 .327.058.576.193.75.115.173.346.307.673.403.326.096.826.135 1.46.135.904 0 1.52-.096 1.866-.308.326-.211.5-.5.5-.865 0-.308-.116-.557-.366-.73-.25-.193-.634-.289-1.115-.289h-1.615c-1.057 0-1.845-.192-2.365-.577-.519-.365-.788-.846-.788-1.442 0-.384.096-.75.308-1.095.192-.327.461-.616.827-.846-.635-.346-1.096-.75-1.385-1.23-.288-.462-.423-1.02-.423-1.693 0-.75.193-1.422.577-1.98.385-.557.923-1 1.615-1.307.692-.289 1.48-.442 2.365-.442 1.019.019 1.903-.077 2.614-.308.712-.211 1.442-.557 2.192-1l.692 2.23zm-5.421 1.058c-.481 0-.865.154-1.135.461-.288.308-.423.73-.423 1.25 0 .557.135.98.423 1.288.289.308.654.461 1.135.461.5 0 .884-.153 1.153-.461.27-.288.404-.73.404-1.327 0-1.115-.52-1.672-1.557-1.672zM185.168 73.514c.192 1.557 1.02 2.326 2.461 2.326.865 0 1.75-.288 2.615-.846l1.21 1.654c-.499.442-1.095.769-1.787 1.019-.692.269-1.461.384-2.288.384-1.134 0-2.115-.23-2.903-.692a4.182 4.182 0 01-1.788-1.903c-.423-.808-.615-1.75-.615-2.827 0-1.018.192-1.96.596-2.787a4.585 4.585 0 011.711-1.961c.75-.48 1.634-.712 2.672-.712.98 0 1.827.212 2.538.616.711.423 1.269 1.038 1.673 1.807.384.807.576 1.73.576 2.826 0 .423-.019.788-.057 1.096h-6.614zm1.884-4.307c-.557 0-1 .193-1.326.596-.327.404-.539 1.038-.596 1.865h3.749c-.02-1.634-.635-2.46-1.827-2.46zM203.26 77.128c-.962.615-2.077.923-3.346.923-1.307 0-2.287-.327-2.941-1-.673-.673-1-1.595-1-2.807v-4.633h-2.134v-2.096h2.134v-2.21l3.038-.366v2.576h3.287l-.307 2.096h-2.98v4.633c0 .5.115.866.346 1.077.23.211.596.327 1.115.327.634 0 1.23-.154 1.788-.462l1 1.942zM215.045 68.458c0 .903-.23 1.653-.711 2.249-.5.615-1.134 1.077-1.942 1.403l3.48 5.614h-3.576l-2.884-5.095h-.884v5.095h-3.153V64.401h4.191c1.826 0 3.21.327 4.114 1 .904.673 1.365 1.692 1.365 3.057zm-3.249 0c0-.635-.173-1.116-.538-1.404-.365-.288-.942-.442-1.692-.442h-1.038v3.845h1.173c.692 0 1.21-.154 1.576-.48.346-.327.52-.827.52-1.52zM219.774 73.514c.192 1.557 1.019 2.326 2.46 2.326.866 0 1.75-.288 2.616-.846l1.21 1.654c-.5.442-1.095.769-1.787 1.019-.692.269-1.461.384-2.288.384-1.134 0-2.115-.23-2.903-.692a4.182 4.182 0 01-1.788-1.903c-.423-.808-.615-1.75-.615-2.827 0-1.018.192-1.96.596-2.787a4.585 4.585 0 011.71-1.961c.75-.48 1.635-.712 2.673-.712.98 0 1.827.212 2.538.616.711.423 1.269 1.038 1.673 1.807.384.807.576 1.73.576 2.826 0 .423-.019.788-.057 1.096h-6.614zm1.884-4.307c-.557 0-1 .193-1.326.596-.327.404-.539 1.038-.596 1.865h3.749c-.02-1.634-.635-2.46-1.827-2.46zM237.27 74.783c0 .365.057.653.153.826.097.173.27.308.52.404l-.635 2c-.615-.058-1.134-.193-1.538-.423a2.224 2.224 0 01-.961-.923 3.646 3.646 0 01-1.461 1.019 4.77 4.77 0 01-1.884.365c-1.058 0-1.885-.288-2.519-.904-.634-.596-.942-1.365-.942-2.307 0-1.095.442-1.96 1.307-2.576.865-.596 2.096-.903 3.672-.903h1.365v-.366c0-1.057-.673-1.576-2.018-1.576-.346 0-.77.038-1.288.134-.52.097-1.039.231-1.52.404l-.691-2.019c.653-.25 1.345-.442 2.057-.576a10.314 10.314 0 011.922-.193c2.98 0 4.46 1.212 4.46 3.615v3.999zm-4.768 1.096c.346 0 .692-.097 1.057-.308.346-.192.615-.461.788-.808v-1.672h-.75c-1.634 0-2.46.519-2.46 1.538 0 .404.115.711.365.923.23.211.558.327 1 .327zM249.055 63.459v14.265h-2.691l-.154-1.115a3.21 3.21 0 01-1.173 1.038c-.48.27-1.019.404-1.653.404-1.23 0-2.154-.48-2.788-1.461-.654-.98-.961-2.307-.961-3.999 0-1.057.173-1.98.5-2.807.326-.827.807-1.461 1.422-1.922.615-.462 1.327-.693 2.153-.693.923 0 1.692.327 2.308.962v-4.999l3.037.327zm-4.537 5.94c-.558 0-.98.25-1.288.77-.308.519-.462 1.345-.462 2.441 0 1.173.135 2 .423 2.48.27.48.654.73 1.154.73.634 0 1.192-.384 1.673-1.172v-4.403a2.29 2.29 0 00-.673-.634 1.704 1.704 0 00-.827-.211zM259.302 67.17c.73 0 1.269.23 1.615.71.326.481.5 1.25.5 2.289v7.555h-2.596v-7.21c0-.365-.038-.634-.096-.768-.077-.135-.212-.212-.404-.212-.365 0-.711.23-1.057.673v7.517h-2.153v-7.21c0-.365-.039-.634-.097-.768-.077-.135-.211-.212-.403-.212-.366 0-.712.23-1.058.673v7.517h-2.634V67.515h2.211l.212.981c.327-.461.673-.807 1-1.019.326-.211.692-.308 1.134-.308.404 0 .73.097 1 .289.269.211.46.519.576.923.692-.808 1.442-1.212 2.25-1.212zM265.916 73.514c.192 1.557 1.019 2.326 2.46 2.326.866 0 1.75-.288 2.615-.846l1.211 1.654c-.5.442-1.096.769-1.788 1.019-.692.269-1.46.384-2.287.384-1.135 0-2.115-.23-2.904-.692a4.182 4.182 0 01-1.787-1.903c-.423-.808-.616-1.75-.616-2.827 0-1.018.193-1.96.596-2.787a4.585 4.585 0 011.711-1.961c.75-.48 1.635-.712 2.673-.712.98 0 1.826.212 2.537.616.712.423 1.27 1.038 1.673 1.807.385.807.577 1.73.577 2.826 0 .423-.02.788-.058 1.096h-6.613zm1.884-4.307c-.558 0-1 .193-1.327.596-.327.404-.538 1.038-.596 1.865h3.75c-.02-1.634-.635-2.46-1.827-2.46zM277.258 74.84l-.692 2.884h-3.307l4.076-13.323h3.826l4.075 13.323h-3.383l-.692-2.884h-3.903zm3.384-2.268L279.2 66.67l-1.442 5.902h2.884zM294.138 67.208c.615 0 1.173.096 1.692.307l-.557 4.269h-1.923v-1.865c-.558.096-1.057.384-1.5.903-.442.52-.769 1.154-1.019 1.942v2.922h2.02v2.038h-6.403v-2.038h1.346v-6.152h-1.346v-2.019h3.672l.538 2.288c.366-.865.846-1.518 1.404-1.96.557-.424 1.25-.635 2.076-.635zM307.077 77.128c-.96.615-2.076.923-3.345.923-1.307 0-2.288-.327-2.941-1-.673-.673-1-1.595-1-2.807v-4.633h-2.134v-2.096h2.134v-2.21l3.038-.366v2.576h3.287l-.308 2.096h-2.98v4.633c0 .5.116.866.347 1.077.23.211.596.327 1.115.327.634 0 1.23-.154 1.788-.462l1 1.942zM313.825 62.17c.519 0 .961.155 1.288.481.327.327.5.75.5 1.23 0 .5-.173.904-.5 1.231-.327.327-.77.48-1.288.48-.52 0-.961-.172-1.288-.499a1.6 1.6 0 01-.52-1.211c0-.48.174-.904.52-1.23.327-.327.769-.481 1.288-.481zm1.826 13.478h2.615v2.076h-8.536v-2.076h2.884v-6.056h-2.788v-2.077h5.825v8.133zM326.38 75.648c.384 0 .75-.077 1.114-.23.366-.135.75-.347 1.154-.635l1.346 1.922a6.1 6.1 0 01-1.692.98c-.635.25-1.346.366-2.096.366-1.096 0-2.018-.23-2.807-.673a4.54 4.54 0 01-1.826-1.884c-.423-.807-.634-1.75-.634-2.807s.211-2.019.653-2.845a4.946 4.946 0 011.865-1.961c.788-.48 1.73-.712 2.807-.712.75 0 1.442.097 2.038.308a5.394 5.394 0 011.692.98l-1.308 1.827c-.75-.52-1.5-.77-2.287-.77-1.52 0-2.288 1.058-2.288 3.173 0 1.058.192 1.827.596 2.269.403.461.961.692 1.672.692zM337.819 74.514c0 .75.442 1.134 1.307 1.134.48 0 .961-.096 1.461-.308l.712 2.038c-.827.442-1.807.673-2.942.673-1.192 0-2.076-.346-2.672-1.038-.596-.673-.904-1.634-.904-2.884v-8.594h-2.999V63.46h6.037v11.055zM346.662 73.514c.192 1.557 1.019 2.326 2.46 2.326.866 0 1.75-.288 2.615-.846l1.212 1.654c-.5.442-1.096.769-1.788 1.019-.692.269-1.461.384-2.288.384-1.134 0-2.115-.23-2.903-.692a4.182 4.182 0 01-1.788-1.903c-.423-.808-.615-1.75-.615-2.827 0-1.018.192-1.96.596-2.787a4.585 4.585 0 011.71-1.961c.75-.48 1.635-.712 2.673-.712.98 0 1.826.212 2.538.616.711.423 1.269 1.038 1.672 1.807.385.807.577 1.73.577 2.826 0 .423-.02.788-.058 1.096h-6.613zm1.884-4.307c-.558 0-1 .193-1.327.596-.326.404-.538 1.038-.596 1.865h3.75c-.02-1.634-.635-2.46-1.827-2.46z" fill="#b2b2b2" fill-rule="nonzero"/></svg>