<svg viewBox="0 0 800 400" xmlns="http://www.w3.org/2000/svg" fill-rule="evenodd" clip-rule="evenodd" stroke-linecap="round" stroke-linejoin="round" stroke-miterlimit="1.5"><path fill="#292929" d="M0 0h800v400H0z"/><path d="M707.035 384.567c-.52 0-.976-.11-1.386-.328-.41-.21-.738-.51-.966-.893a2.51 2.51 0 01-.346-1.304c0-.483.118-.92.346-1.303a2.43 2.43 0 01.966-.902c.41-.21.866-.32 1.386-.32.52 0 .975.11 1.385.32.41.218.73.52.957.902.228.383.347.82.347 1.303s-.119.921-.347 1.304a2.323 2.323 0 01-.957.893 2.88 2.88 0 01-1.385.328zm0-1.166c.364 0 .665-.119.902-.374.228-.246.346-.574.346-.985 0-.41-.118-.747-.346-.993-.237-.246-.538-.365-.902-.365-.365 0-.666.119-.903.365s-.355.583-.355.993c0 .41.118.739.355.985.237.255.538.374.903.374zM715.612 379.59v4.904h-1.35v-.583c-.19.21-.41.374-.674.483a2.045 2.045 0 01-.847.173c-.648 0-1.158-.182-1.532-.556-.373-.373-.565-.92-.565-1.65v-2.77h1.422v2.56c0 .794.328 1.186.994 1.186.337 0 .61-.11.82-.338.21-.218.31-.546.31-.984v-2.425h1.422zM718.583 384.567c-.41 0-.802-.045-1.194-.155-.392-.1-.702-.218-.93-.373l.474-1.021c.22.136.484.255.793.337.31.091.611.137.912.137.602 0 .902-.146.902-.447 0-.137-.082-.237-.246-.3-.164-.065-.419-.11-.756-.156a7.4 7.4 0 01-.994-.21 1.537 1.537 0 01-.674-.419c-.192-.2-.292-.483-.292-.856 0-.31.091-.584.273-.83.174-.237.438-.42.784-.556.338-.137.748-.2 1.213-.2.346 0 .692.036 1.039.109.337.082.62.182.847.319l-.474 1.012a2.79 2.79 0 00-1.412-.365c-.301 0-.529.046-.684.128-.155.082-.228.191-.228.328 0 .155.082.255.246.319.164.064.429.118.784.173.401.064.73.137.985.21.255.082.474.218.665.419.191.2.282.483.282.839 0 .3-.09.574-.273.81-.182.238-.447.42-.793.548-.355.136-.766.2-1.249.2zM723.423 384.567c-.41 0-.802-.045-1.194-.155-.392-.1-.702-.218-.93-.373l.475-1.021c.218.136.483.255.793.337.31.091.61.137.911.137.602 0 .902-.146.902-.447 0-.137-.082-.237-.246-.3-.164-.065-.419-.11-.756-.156a7.4 7.4 0 01-.994-.21 1.537 1.537 0 01-.674-.419c-.192-.2-.292-.483-.292-.856 0-.31.091-.584.273-.83.174-.237.438-.42.784-.556.338-.137.748-.2 1.213-.2.346 0 .692.036 1.039.109.337.082.62.182.847.319l-.474 1.012a2.79 2.79 0 00-1.412-.365c-.301 0-.529.046-.684.128-.155.082-.228.191-.228.328 0 .155.082.255.246.319.164.064.429.118.784.173.401.064.73.137.985.21.255.082.474.218.665.419.191.2.283.483.283.839 0 .3-.092.574-.274.81-.182.238-.447.42-.793.548-.355.136-.766.2-1.249.2zM728.592 379.518c.756 0 1.34.182 1.75.537.41.365.61.912.61 1.641v2.798h-1.33v-.61c-.265.455-.766.683-1.495.683-.374 0-.702-.064-.976-.191a1.42 1.42 0 01-.638-.529 1.39 1.39 0 01-.218-.766c0-.455.173-.81.52-1.075.336-.264.865-.392 1.585-.392h1.13c0-.31-.09-.547-.282-.72-.192-.164-.474-.246-.848-.246-.264 0-.52.036-.766.118-.255.082-.474.2-.647.338l-.51-.994c.264-.191.592-.337.966-.438.374-.1.757-.154 1.149-.154zm-.11 4.092c.246 0 .456-.055.647-.173a.902.902 0 00.401-.492v-.502h-.975c-.583 0-.875.192-.875.575 0 .182.073.328.219.428.137.11.337.164.583.164zM738.518 379.518c.61 0 1.103.182 1.467.537.356.365.538.912.538 1.632v2.807h-1.422v-2.588c0-.392-.082-.684-.237-.875-.164-.192-.392-.283-.693-.283-.337 0-.601.11-.793.32-.191.218-.291.537-.291.965v2.461h-1.422v-2.588c0-.775-.31-1.158-.93-1.158-.328 0-.592.11-.784.32-.191.218-.292.537-.292.965v2.461h-1.421v-4.904h1.358v.566c.182-.21.41-.365.674-.474.264-.11.547-.164.866-.164.346 0 .656.063.939.2.282.137.501.337.674.602.2-.256.456-.456.766-.593.3-.137.638-.21 1.003-.21zM743.777 379.518c.757 0 1.34.182 1.75.537.41.365.61.912.61 1.641v2.798h-1.33v-.61c-.264.455-.766.683-1.495.683-.374 0-.702-.064-.975-.191a1.42 1.42 0 01-.638-.529 1.39 1.39 0 01-.219-.766c0-.455.173-.81.52-1.075.337-.264.866-.392 1.586-.392h1.13c0-.31-.091-.547-.283-.72-.191-.164-.474-.246-.847-.246-.265 0-.52.036-.766.118-.255.082-.474.2-.647.338l-.51-.994c.264-.191.592-.337.966-.438.373-.1.756-.154 1.148-.154zm-.11 4.092c.247 0 .456-.055.648-.173a.902.902 0 00.4-.492v-.502h-.974c-.584 0-.875.192-.875.575 0 .182.072.328.218.428.137.11.338.164.584.164zM750.403 379.518c.611 0 1.103.182 1.477.546.374.365.556.903.556 1.623v2.807h-1.422v-2.588c0-.392-.082-.684-.255-.875-.173-.192-.42-.283-.738-.283-.356 0-.647.11-.857.328-.21.228-.32.556-.32.994v2.424h-1.421v-6.763h1.422v2.37c.191-.192.42-.337.683-.438.265-.1.556-.145.875-.145zM755.7 379.518c.756 0 1.34.182 1.75.537.41.365.61.912.61 1.641v2.798h-1.33v-.61c-.265.455-.766.683-1.495.683-.374 0-.702-.064-.976-.191a1.42 1.42 0 01-.638-.529 1.39 1.39 0 01-.219-.766c0-.455.174-.81.52-1.075.337-.264.866-.392 1.586-.392h1.13c0-.31-.09-.547-.282-.72-.192-.164-.474-.246-.848-.246-.264 0-.52.036-.766.118-.255.082-.474.2-.647.338l-.51-.994c.264-.191.592-.337.966-.438.374-.1.756-.154 1.148-.154zm-.11 4.092c.246 0 .456-.055.647-.173a.902.902 0 00.401-.492v-.502h-.975c-.583 0-.875.192-.875.575 0 .182.073.328.219.428.136.11.337.164.583.164zM760.904 379.7h1.258v1.094h-1.222v3.7h-1.422v-3.7h-.756V379.7h.756v-.219c0-.556.165-1.003.502-1.33.328-.329.793-.493 1.394-.493.21 0 .42.018.611.064.192.055.346.118.474.2l-.374 1.03a.952.952 0 00-.574-.173c-.428 0-.647.237-.647.711v.21z" fill="#fff" fill-opacity=".03" fill-rule="nonzero"/><path d="M764.432 379.7h1.258v1.094h-1.222v3.7h-1.422v-3.7h-.756V379.7h.756v-.219c0-.556.164-1.003.502-1.33.328-.329.793-.493 1.394-.493.21 0 .42.018.61.064.192.055.347.118.475.2l-.374 1.03a.952.952 0 00-.574-.173c-.428 0-.647.237-.647.711v.21zM766.847 384.567a.853.853 0 01-.629-.255.859.859 0 01-.255-.638c0-.264.082-.474.255-.638a.914.914 0 01.63-.237c.245 0 .455.082.628.237.173.164.255.374.255.638a.859.859 0 01-.255.638.853.853 0 01-.629.255zM773.629 377.731v6.763h-1.359v-.565c-.355.429-.866.638-1.53.638-.466 0-.876-.1-1.25-.31a2.23 2.23 0 01-.884-.884 2.737 2.737 0 01-.319-1.33c0-.502.11-.949.32-1.331.209-.383.51-.675.883-.885.374-.21.784-.31 1.25-.31.628 0 1.111.201 1.467.593v-2.379h1.422zm-2.644 5.67c.356 0 .656-.119.893-.374.237-.246.356-.574.356-.985 0-.41-.119-.747-.356-.993a1.189 1.189 0 00-.893-.365c-.364 0-.665.119-.902.365s-.356.583-.356.993c0 .41.119.739.356.985.237.255.538.374.902.374zM779.745 382.06c0 .019-.01.146-.028.383h-3.71c.064.301.228.547.475.72.246.174.556.265.93.265.254 0 .482-.037.683-.119.191-.073.374-.191.547-.355l.756.82c-.465.529-1.14.793-2.023.793-.556 0-1.04-.11-1.468-.328a2.288 2.288 0 01-.984-.893 2.51 2.51 0 01-.347-1.304c0-.483.119-.911.347-1.303.219-.383.538-.684.939-.902.392-.21.838-.32 1.33-.32.484 0 .912.1 1.304.31s.693.502.92.885c.22.392.329.838.329 1.349zm-2.543-1.467a1.23 1.23 0 00-.812.274 1.143 1.143 0 00-.4.747h2.415a1.188 1.188 0 00-.401-.747 1.206 1.206 0 00-.802-.274zM785.469 379.59l-2.07 4.904h-1.467l-2.06-4.904h1.468l1.358 3.337 1.404-3.337h1.367z" fill="#fff" fill-opacity=".03" fill-rule="nonzero"/><g><g filter="url(#_Effect1)" transform="matrix(.6972 0 0 .6972 1.561 24.368)"><circle cx="141.634" cy="182.213" r="23.565" fill="#fff" transform="translate(82.302 67.787)"/><circle cx="141.634" cy="182.213" r="23.565" fill="#fff" transform="translate(0 139.391)"/><circle cx="141.634" cy="182.213" r="23.565" fill="#fff"/></g><g filter="url(#_Effect2)" transform="matrix(.6972 0 0 .6972 1.561 24.368)"><circle cx="141.634" cy="182.213" r="23.565" fill="#fff" transform="translate(82.302 67.787)"/><circle cx="141.634" cy="182.213" r="23.565" fill="#fff" transform="translate(0 139.391)"/><circle cx="141.634" cy="182.213" r="23.565" fill="#fff"/></g><g filter="url(#_Effect3)" transform="matrix(.6972 0 0 .6972 227.441 24.368)"><circle cx="141.634" cy="182.213" r="23.565" fill="#fff" transform="translate(82.302 67.787)"/><circle cx="141.634" cy="182.213" r="23.565" fill="#fff" transform="translate(0 139.391)"/><circle cx="141.634" cy="182.213" r="23.565" fill="#fff"/></g><g transform="matrix(.6972 0 0 .6972 385.817 24.368)"><circle cx="141.634" cy="182.213" r="23.565" fill="#fff" transform="translate(82.302 67.787)"/><circle cx="141.634" cy="182.213" r="23.565" fill="#fff" transform="translate(0 139.391)"/><circle cx="141.634" cy="182.213" r="23.565" fill="#fff"/></g></g><g transform="translate(318.161 -290.539) scale(2.69212)"><circle cx="141.634" cy="182.213" r="23.565" fill="#fff"/></g><g transform="matrix(.0588 0 0 .0588 691.128 189.287)"><circle cx="141.634" cy="182.213" r="23.565" fill="#292929"/></g><g><path d="M551.371 175.575l94.07-26.028" fill="none" stroke="#fff" stroke-width=".63"/></g><g><path d="M551.371 221.397l94.07 26.028" fill="none" stroke="#fff" stroke-width=".63"/></g><defs><filter id="_Effect1" filterUnits="userSpaceOnUse" x="-199.335" y="-158.756" width="764.24" height="821.329"><feGaussianBlur in="SourceGraphic" stdDeviation="52.901"/></filter><filter id="_Effect2" filterUnits="userSpaceOnUse" x="-199.335" y="-158.756" width="764.24" height="821.329"><feGaussianBlur in="SourceGraphic" stdDeviation="52.901"/></filter><filter id="_Effect3" filterUnits="userSpaceOnUse" x="23.335" y="63.914" width="318.899" height="375.988"><feGaussianBlur in="SourceGraphic" stdDeviation="15.789"/></filter></defs></svg>