<?xml version="1.0" encoding="UTF-8" standalone="no"?>
<!DOCTYPE svg PUBLIC "-//W3C//DTD SVG 1.1//EN" "http://www.w3.org/Graphics/SVG/1.1/DTD/svg11.dtd">
<svg width="100%" height="100%" viewBox="0 0 800 500" version="1.1" xmlns="http://www.w3.org/2000/svg" xmlns:xlink="http://www.w3.org/1999/xlink" xml:space="preserve" xmlns:serif="http://www.serif.com/" style="fill-rule:evenodd;clip-rule:evenodd;stroke-linejoin:round;stroke-miterlimit:2;">
    <rect x="0" y="0" width="800" height="500" style="fill:rgb(9,31,42);"/>
    <g transform="matrix(0.105233,0,0,0.105233,9.45354,333.259)">
        <g transform="matrix(182.694,0,0,182.694,206.94,58.0878)">
            <path d="M0.029,0.055L0.449,-0.817L0.571,-0.76L0.152,0.112L0.029,0.055Z" style="fill:rgb(148,255,0);fill-rule:nonzero;"/>
        </g>
        <g transform="matrix(182.694,0,0,182.694,316.557,58.0878)">
            <path d="M0.246,-0.404L0.074,-0.483L0.028,-0.341L0.214,-0.303L0.086,-0.163L0.206,-0.076L0.3,-0.24L0.394,-0.076L0.514,-0.163L0.386,-0.303L0.572,-0.341L0.526,-0.483L0.354,-0.404L0.375,-0.593L0.225,-0.593L0.246,-0.404Z" style="fill:rgb(148,255,0);fill-rule:nonzero;"/>
        </g>
        <g transform="matrix(182.694,0,0,182.694,426.173,58.0878)">
            <path d="M0.246,-0.404L0.074,-0.483L0.028,-0.341L0.214,-0.303L0.086,-0.163L0.206,-0.076L0.3,-0.24L0.394,-0.076L0.514,-0.163L0.386,-0.303L0.572,-0.341L0.526,-0.483L0.354,-0.404L0.375,-0.593L0.225,-0.593L0.246,-0.404Z" style="fill:rgb(148,255,0);fill-rule:nonzero;"/>
        </g>
        <g transform="matrix(182.694,0,0,182.694,316.557,240.782)">
            <path d="M0.246,-0.404L0.074,-0.483L0.028,-0.341L0.214,-0.303L0.086,-0.163L0.206,-0.076L0.3,-0.24L0.394,-0.076L0.514,-0.163L0.386,-0.303L0.572,-0.341L0.526,-0.483L0.354,-0.404L0.375,-0.593L0.225,-0.593L0.246,-0.404Z" style="fill:rgb(148,255,0);fill-rule:nonzero;"/>
        </g>
        <g transform="matrix(182.694,0,0,182.694,535.79,240.782)">
            <path d="M0.381,-0L0.217,-0L0.217,-0.567L0.022,-0.567L0.022,-0.693L0.583,-0.693L0.567,-0.567L0.381,-0.567L0.381,-0Z" style="fill:rgb(148,255,0);fill-rule:nonzero;"/>
        </g>
        <g transform="matrix(182.694,0,0,182.694,645.406,240.782)">
            <path d="M0.228,-0.478C0.273,-0.525 0.325,-0.549 0.384,-0.549C0.431,-0.549 0.467,-0.535 0.492,-0.508C0.517,-0.48 0.53,-0.441 0.53,-0.39L0.53,-0L0.372,-0L0.372,-0.346C0.372,-0.378 0.368,-0.4 0.361,-0.413C0.354,-0.426 0.34,-0.432 0.321,-0.432C0.305,-0.432 0.29,-0.427 0.275,-0.416C0.26,-0.405 0.244,-0.388 0.228,-0.367L0.228,-0L0.07,-0L0.07,-0.742L0.228,-0.758L0.228,-0.478Z" style="fill:rgb(148,255,0);fill-rule:nonzero;"/>
        </g>
        <g transform="matrix(182.694,0,0,182.694,755.022,240.782)">
            <path d="M0.299,-0.809C0.326,-0.809 0.349,-0.801 0.366,-0.784C0.383,-0.767 0.392,-0.745 0.392,-0.72C0.392,-0.694 0.383,-0.673 0.366,-0.656C0.349,-0.639 0.326,-0.631 0.299,-0.631C0.272,-0.631 0.249,-0.64 0.232,-0.657C0.214,-0.674 0.205,-0.695 0.205,-0.72C0.205,-0.745 0.214,-0.767 0.232,-0.784C0.249,-0.801 0.272,-0.809 0.299,-0.809ZM0.394,-0.108L0.53,-0.108L0.53,-0L0.086,-0L0.086,-0.108L0.236,-0.108L0.236,-0.423L0.091,-0.423L0.091,-0.531L0.394,-0.531L0.394,-0.108Z" style="fill:rgb(148,255,0);fill-rule:nonzero;"/>
        </g>
        <g transform="matrix(182.694,0,0,182.694,864.639,240.782)">
            <path d="M0.283,-0.096C0.31,-0.096 0.332,-0.1 0.348,-0.109C0.363,-0.117 0.371,-0.129 0.371,-0.146C0.371,-0.158 0.368,-0.168 0.362,-0.175C0.355,-0.182 0.343,-0.19 0.326,-0.197C0.309,-0.204 0.282,-0.212 0.245,-0.222C0.192,-0.236 0.151,-0.256 0.123,-0.281C0.095,-0.306 0.081,-0.34 0.081,-0.384C0.081,-0.433 0.101,-0.472 0.142,-0.503C0.182,-0.534 0.238,-0.549 0.311,-0.549C0.395,-0.549 0.467,-0.527 0.526,-0.484L0.463,-0.391C0.414,-0.421 0.365,-0.436 0.316,-0.436C0.29,-0.436 0.271,-0.433 0.259,-0.426C0.246,-0.419 0.24,-0.409 0.24,-0.395C0.24,-0.386 0.243,-0.378 0.25,-0.372C0.256,-0.365 0.268,-0.359 0.286,-0.352C0.303,-0.345 0.33,-0.337 0.365,-0.327C0.403,-0.316 0.434,-0.305 0.459,-0.292C0.483,-0.279 0.502,-0.262 0.515,-0.241C0.528,-0.22 0.535,-0.192 0.535,-0.159C0.535,-0.122 0.524,-0.09 0.501,-0.063C0.478,-0.036 0.448,-0.016 0.41,-0.003C0.372,0.01 0.33,0.017 0.284,0.017C0.235,0.017 0.19,0.01 0.15,-0.004C0.11,-0.018 0.076,-0.038 0.048,-0.063L0.127,-0.152C0.175,-0.115 0.227,-0.096 0.283,-0.096Z" style="fill:rgb(148,255,0);fill-rule:nonzero;"/>
        </g>
        <g transform="matrix(182.694,0,0,182.694,1083.87,240.782)">
            <path d="M0.408,-0.759C0.476,-0.759 0.537,-0.748 0.59,-0.725L0.546,-0.622C0.512,-0.635 0.474,-0.642 0.433,-0.642C0.402,-0.642 0.379,-0.636 0.366,-0.625C0.352,-0.614 0.345,-0.595 0.345,-0.569L0.345,-0.498L0.518,-0.498L0.5,-0.388L0.345,-0.388L0.345,-0L0.188,-0L0.188,-0.388L0.076,-0.388L0.076,-0.498L0.188,-0.498L0.188,-0.574C0.188,-0.629 0.207,-0.673 0.246,-0.708C0.284,-0.742 0.338,-0.759 0.408,-0.759Z" style="fill:rgb(148,255,0);fill-rule:nonzero;"/>
        </g>
        <g transform="matrix(182.694,0,0,182.694,1193.49,240.782)">
            <path d="M0.228,-0.168C0.228,-0.143 0.233,-0.126 0.242,-0.116C0.251,-0.105 0.264,-0.1 0.282,-0.1C0.298,-0.1 0.314,-0.105 0.331,-0.116C0.348,-0.126 0.361,-0.14 0.372,-0.158L0.372,-0.531L0.53,-0.531L0.53,-0L0.392,-0L0.385,-0.062C0.368,-0.037 0.344,-0.017 0.315,-0.004C0.286,0.01 0.255,0.017 0.222,0.017C0.172,0.017 0.134,0.003 0.109,-0.027C0.083,-0.056 0.07,-0.096 0.07,-0.148L0.07,-0.531L0.228,-0.531L0.228,-0.168Z" style="fill:rgb(148,255,0);fill-rule:nonzero;"/>
        </g>
        <g transform="matrix(182.694,0,0,182.694,1303.1,240.782)">
            <path d="M0.07,-0.531L0.208,-0.531L0.219,-0.47C0.243,-0.497 0.268,-0.517 0.295,-0.53C0.321,-0.543 0.351,-0.549 0.384,-0.549C0.43,-0.549 0.466,-0.535 0.492,-0.507C0.517,-0.479 0.53,-0.44 0.53,-0.39L0.53,-0L0.372,-0L0.372,-0.344C0.372,-0.377 0.368,-0.4 0.361,-0.413C0.354,-0.426 0.34,-0.432 0.321,-0.432C0.305,-0.432 0.29,-0.427 0.275,-0.417C0.26,-0.406 0.244,-0.391 0.228,-0.371L0.228,-0L0.07,-0L0.07,-0.531Z" style="fill:rgb(148,255,0);fill-rule:nonzero;"/>
        </g>
        <g transform="matrix(182.694,0,0,182.694,1412.72,240.782)">
            <path d="M0.352,-0.108C0.372,-0.108 0.391,-0.112 0.41,-0.12C0.429,-0.127 0.449,-0.138 0.47,-0.153L0.54,-0.053C0.515,-0.032 0.485,-0.015 0.452,-0.002C0.419,0.011 0.382,0.017 0.343,0.017C0.286,0.017 0.238,0.005 0.197,-0.018C0.156,-0.041 0.124,-0.074 0.102,-0.116C0.08,-0.158 0.069,-0.207 0.069,-0.262C0.069,-0.317 0.08,-0.367 0.103,-0.41C0.126,-0.453 0.158,-0.487 0.2,-0.512C0.241,-0.537 0.29,-0.549 0.346,-0.549C0.385,-0.549 0.421,-0.544 0.452,-0.533C0.483,-0.522 0.513,-0.505 0.54,-0.482L0.472,-0.387C0.433,-0.414 0.394,-0.427 0.353,-0.427C0.274,-0.427 0.234,-0.372 0.234,-0.262C0.234,-0.207 0.244,-0.167 0.265,-0.144C0.286,-0.12 0.315,-0.108 0.352,-0.108Z" style="fill:rgb(148,255,0);fill-rule:nonzero;"/>
        </g>
        <g transform="matrix(182.694,0,0,182.694,1522.34,240.782)">
            <path d="M0.548,-0.031C0.498,0.001 0.44,0.017 0.374,0.017C0.306,0.017 0.255,-0 0.221,-0.035C0.186,-0.07 0.169,-0.118 0.169,-0.181L0.169,-0.422L0.058,-0.422L0.058,-0.531L0.169,-0.531L0.169,-0.646L0.327,-0.665L0.327,-0.531L0.498,-0.531L0.482,-0.422L0.327,-0.422L0.327,-0.181C0.327,-0.155 0.333,-0.136 0.345,-0.125C0.357,-0.114 0.376,-0.108 0.403,-0.108C0.436,-0.108 0.467,-0.116 0.496,-0.132L0.548,-0.031Z" style="fill:rgb(148,255,0);fill-rule:nonzero;"/>
        </g>
        <g transform="matrix(182.694,0,0,182.694,1631.95,240.782)">
            <path d="M0.299,-0.809C0.326,-0.809 0.349,-0.801 0.366,-0.784C0.383,-0.767 0.392,-0.745 0.392,-0.72C0.392,-0.694 0.383,-0.673 0.366,-0.656C0.349,-0.639 0.326,-0.631 0.299,-0.631C0.272,-0.631 0.249,-0.64 0.232,-0.657C0.214,-0.674 0.205,-0.695 0.205,-0.72C0.205,-0.745 0.214,-0.767 0.232,-0.784C0.249,-0.801 0.272,-0.809 0.299,-0.809ZM0.394,-0.108L0.53,-0.108L0.53,-0L0.086,-0L0.086,-0.108L0.236,-0.108L0.236,-0.423L0.091,-0.423L0.091,-0.531L0.394,-0.531L0.394,-0.108Z" style="fill:rgb(148,255,0);fill-rule:nonzero;"/>
        </g>
        <g transform="matrix(182.694,0,0,182.694,1741.57,240.782)">
            <path d="M0.3,-0.549C0.381,-0.549 0.444,-0.524 0.49,-0.473C0.535,-0.422 0.558,-0.353 0.558,-0.267C0.558,-0.178 0.535,-0.108 0.49,-0.058C0.445,-0.008 0.381,0.017 0.3,0.017C0.219,0.017 0.155,-0.008 0.11,-0.058C0.065,-0.107 0.042,-0.177 0.042,-0.266C0.042,-0.323 0.052,-0.372 0.073,-0.415C0.093,-0.457 0.123,-0.49 0.162,-0.514C0.201,-0.537 0.247,-0.549 0.3,-0.549ZM0.3,-0.432C0.267,-0.432 0.243,-0.419 0.228,-0.393C0.213,-0.366 0.205,-0.324 0.205,-0.266C0.205,-0.207 0.213,-0.165 0.228,-0.139C0.243,-0.112 0.267,-0.099 0.3,-0.099C0.333,-0.099 0.357,-0.112 0.372,-0.139C0.387,-0.166 0.395,-0.208 0.395,-0.267C0.395,-0.324 0.387,-0.366 0.372,-0.393C0.357,-0.419 0.333,-0.432 0.3,-0.432Z" style="fill:rgb(148,255,0);fill-rule:nonzero;"/>
        </g>
        <g transform="matrix(182.694,0,0,182.694,1851.19,240.782)">
            <path d="M0.07,-0.531L0.208,-0.531L0.219,-0.47C0.243,-0.497 0.268,-0.517 0.295,-0.53C0.321,-0.543 0.351,-0.549 0.384,-0.549C0.43,-0.549 0.466,-0.535 0.492,-0.507C0.517,-0.479 0.53,-0.44 0.53,-0.39L0.53,-0L0.372,-0L0.372,-0.344C0.372,-0.377 0.368,-0.4 0.361,-0.413C0.354,-0.426 0.34,-0.432 0.321,-0.432C0.305,-0.432 0.29,-0.427 0.275,-0.417C0.26,-0.406 0.244,-0.391 0.228,-0.371L0.228,-0L0.07,-0L0.07,-0.531Z" style="fill:rgb(148,255,0);fill-rule:nonzero;"/>
        </g>
        <g transform="matrix(182.694,0,0,182.694,2070.42,240.782)">
            <path d="M0.207,-0.219C0.217,-0.138 0.26,-0.098 0.335,-0.098C0.38,-0.098 0.426,-0.113 0.471,-0.142L0.534,-0.056C0.508,-0.033 0.477,-0.016 0.441,-0.003C0.405,0.011 0.365,0.017 0.322,0.017C0.263,0.017 0.212,0.005 0.171,-0.019C0.13,-0.042 0.098,-0.075 0.078,-0.118C0.056,-0.16 0.046,-0.209 0.046,-0.265C0.046,-0.318 0.056,-0.367 0.077,-0.41C0.097,-0.453 0.127,-0.487 0.166,-0.512C0.205,-0.537 0.251,-0.549 0.305,-0.549C0.356,-0.549 0.4,-0.538 0.437,-0.517C0.474,-0.495 0.503,-0.463 0.524,-0.423C0.544,-0.381 0.554,-0.333 0.554,-0.276C0.554,-0.254 0.553,-0.235 0.551,-0.219L0.207,-0.219ZM0.305,-0.443C0.276,-0.443 0.253,-0.433 0.236,-0.412C0.219,-0.391 0.208,-0.358 0.205,-0.315L0.4,-0.315C0.399,-0.4 0.367,-0.443 0.305,-0.443Z" style="fill:rgb(148,255,0);fill-rule:nonzero;"/>
        </g>
        <g transform="matrix(182.694,0,0,182.694,2180.04,240.782)">
            <path d="M0.022,-0L0.204,-0.279L0.039,-0.531L0.216,-0.531L0.301,-0.361L0.383,-0.531L0.551,-0.531L0.395,-0.285L0.578,-0L0.399,-0L0.294,-0.199L0.193,-0L0.022,-0Z" style="fill:rgb(148,255,0);fill-rule:nonzero;"/>
        </g>
        <g transform="matrix(182.694,0,0,182.694,2289.65,240.782)">
            <path d="M0.364,-0.549C0.431,-0.549 0.48,-0.525 0.511,-0.476C0.542,-0.427 0.558,-0.357 0.558,-0.267C0.558,-0.212 0.55,-0.164 0.534,-0.121C0.517,-0.078 0.494,-0.044 0.463,-0.02C0.432,0.005 0.396,0.017 0.354,0.017C0.303,0.017 0.261,-0.001 0.228,-0.038L0.228,0.205L0.07,0.222L0.07,-0.531L0.21,-0.531L0.217,-0.472C0.238,-0.498 0.261,-0.517 0.287,-0.53C0.312,-0.543 0.338,-0.549 0.364,-0.549ZM0.315,-0.432C0.282,-0.432 0.253,-0.411 0.228,-0.37L0.228,-0.146C0.239,-0.13 0.251,-0.118 0.264,-0.111C0.276,-0.103 0.29,-0.099 0.306,-0.099C0.335,-0.099 0.358,-0.112 0.373,-0.139C0.388,-0.165 0.395,-0.207 0.395,-0.265C0.395,-0.328 0.388,-0.371 0.375,-0.396C0.362,-0.42 0.342,-0.432 0.315,-0.432Z" style="fill:rgb(148,255,0);fill-rule:nonzero;"/>
        </g>
        <g transform="matrix(182.694,0,0,182.694,2399.27,240.782)">
            <path d="M0.347,-0.167C0.347,-0.128 0.37,-0.108 0.415,-0.108C0.44,-0.108 0.465,-0.113 0.491,-0.124L0.528,-0.018C0.485,0.005 0.434,0.017 0.375,0.017C0.313,0.017 0.267,-0.001 0.236,-0.037C0.205,-0.072 0.189,-0.122 0.189,-0.187L0.189,-0.634L0.033,-0.634L0.033,-0.742L0.347,-0.742L0.347,-0.167Z" style="fill:rgb(148,255,0);fill-rule:nonzero;"/>
        </g>
        <g transform="matrix(182.694,0,0,182.694,2508.88,240.782)">
            <path d="M0.517,-0.153C0.517,-0.134 0.52,-0.119 0.525,-0.11C0.53,-0.101 0.539,-0.094 0.552,-0.089L0.519,0.015C0.487,0.012 0.46,0.005 0.439,-0.007C0.418,-0.017 0.401,-0.034 0.389,-0.055C0.369,-0.032 0.344,-0.014 0.313,-0.002C0.282,0.011 0.25,0.017 0.215,0.017C0.16,0.017 0.117,0.002 0.084,-0.03C0.051,-0.061 0.035,-0.101 0.035,-0.15C0.035,-0.207 0.058,-0.252 0.103,-0.284C0.148,-0.315 0.212,-0.331 0.294,-0.331L0.365,-0.331L0.365,-0.35C0.365,-0.405 0.33,-0.432 0.26,-0.432C0.242,-0.432 0.22,-0.43 0.193,-0.425C0.166,-0.42 0.139,-0.413 0.114,-0.404L0.078,-0.509C0.112,-0.522 0.148,-0.532 0.185,-0.539C0.222,-0.546 0.255,-0.549 0.285,-0.549C0.44,-0.549 0.517,-0.486 0.517,-0.361L0.517,-0.153ZM0.269,-0.096C0.287,-0.096 0.305,-0.101 0.324,-0.112C0.342,-0.122 0.356,-0.136 0.365,-0.154L0.365,-0.241L0.326,-0.241C0.241,-0.241 0.198,-0.214 0.198,-0.161C0.198,-0.14 0.204,-0.124 0.217,-0.113C0.229,-0.102 0.246,-0.096 0.269,-0.096Z" style="fill:rgb(148,255,0);fill-rule:nonzero;"/>
        </g>
        <g transform="matrix(182.694,0,0,182.694,2618.5,240.782)">
            <path d="M0.299,-0.809C0.326,-0.809 0.349,-0.801 0.366,-0.784C0.383,-0.767 0.392,-0.745 0.392,-0.72C0.392,-0.694 0.383,-0.673 0.366,-0.656C0.349,-0.639 0.326,-0.631 0.299,-0.631C0.272,-0.631 0.249,-0.64 0.232,-0.657C0.214,-0.674 0.205,-0.695 0.205,-0.72C0.205,-0.745 0.214,-0.767 0.232,-0.784C0.249,-0.801 0.272,-0.809 0.299,-0.809ZM0.394,-0.108L0.53,-0.108L0.53,-0L0.086,-0L0.086,-0.108L0.236,-0.108L0.236,-0.423L0.091,-0.423L0.091,-0.531L0.394,-0.531L0.394,-0.108Z" style="fill:rgb(148,255,0);fill-rule:nonzero;"/>
        </g>
        <g transform="matrix(182.694,0,0,182.694,2728.12,240.782)">
            <path d="M0.07,-0.531L0.208,-0.531L0.219,-0.47C0.243,-0.497 0.268,-0.517 0.295,-0.53C0.321,-0.543 0.351,-0.549 0.384,-0.549C0.43,-0.549 0.466,-0.535 0.492,-0.507C0.517,-0.479 0.53,-0.44 0.53,-0.39L0.53,-0L0.372,-0L0.372,-0.344C0.372,-0.377 0.368,-0.4 0.361,-0.413C0.354,-0.426 0.34,-0.432 0.321,-0.432C0.305,-0.432 0.29,-0.427 0.275,-0.417C0.26,-0.406 0.244,-0.391 0.228,-0.371L0.228,-0L0.07,-0L0.07,-0.531Z" style="fill:rgb(148,255,0);fill-rule:nonzero;"/>
        </g>
        <g transform="matrix(182.694,0,0,182.694,2837.73,240.782)">
            <path d="M0.283,-0.096C0.31,-0.096 0.332,-0.1 0.348,-0.109C0.363,-0.117 0.371,-0.129 0.371,-0.146C0.371,-0.158 0.368,-0.168 0.362,-0.175C0.355,-0.182 0.343,-0.19 0.326,-0.197C0.309,-0.204 0.282,-0.212 0.245,-0.222C0.192,-0.236 0.151,-0.256 0.123,-0.281C0.095,-0.306 0.081,-0.34 0.081,-0.384C0.081,-0.433 0.101,-0.472 0.142,-0.503C0.182,-0.534 0.238,-0.549 0.311,-0.549C0.395,-0.549 0.467,-0.527 0.526,-0.484L0.463,-0.391C0.414,-0.421 0.365,-0.436 0.316,-0.436C0.29,-0.436 0.271,-0.433 0.259,-0.426C0.246,-0.419 0.24,-0.409 0.24,-0.395C0.24,-0.386 0.243,-0.378 0.25,-0.372C0.256,-0.365 0.268,-0.359 0.286,-0.352C0.303,-0.345 0.33,-0.337 0.365,-0.327C0.403,-0.316 0.434,-0.305 0.459,-0.292C0.483,-0.279 0.502,-0.262 0.515,-0.241C0.528,-0.22 0.535,-0.192 0.535,-0.159C0.535,-0.122 0.524,-0.09 0.501,-0.063C0.478,-0.036 0.448,-0.016 0.41,-0.003C0.372,0.01 0.33,0.017 0.284,0.017C0.235,0.017 0.19,0.01 0.15,-0.004C0.11,-0.018 0.076,-0.038 0.048,-0.063L0.127,-0.152C0.175,-0.115 0.227,-0.096 0.283,-0.096Z" style="fill:rgb(148,255,0);fill-rule:nonzero;"/>
        </g>
        <g transform="matrix(182.694,0,0,182.694,3056.97,240.782)">
            <path d="M0.228,-0.478C0.273,-0.525 0.325,-0.549 0.384,-0.549C0.431,-0.549 0.467,-0.535 0.492,-0.508C0.517,-0.48 0.53,-0.441 0.53,-0.39L0.53,-0L0.372,-0L0.372,-0.346C0.372,-0.378 0.368,-0.4 0.361,-0.413C0.354,-0.426 0.34,-0.432 0.321,-0.432C0.305,-0.432 0.29,-0.427 0.275,-0.416C0.26,-0.405 0.244,-0.388 0.228,-0.367L0.228,-0L0.07,-0L0.07,-0.742L0.228,-0.758L0.228,-0.478Z" style="fill:rgb(148,255,0);fill-rule:nonzero;"/>
        </g>
        <g transform="matrix(182.694,0,0,182.694,3166.58,240.782)">
            <path d="M0.3,-0.549C0.381,-0.549 0.444,-0.524 0.49,-0.473C0.535,-0.422 0.558,-0.353 0.558,-0.267C0.558,-0.178 0.535,-0.108 0.49,-0.058C0.445,-0.008 0.381,0.017 0.3,0.017C0.219,0.017 0.155,-0.008 0.11,-0.058C0.065,-0.107 0.042,-0.177 0.042,-0.266C0.042,-0.323 0.052,-0.372 0.073,-0.415C0.093,-0.457 0.123,-0.49 0.162,-0.514C0.201,-0.537 0.247,-0.549 0.3,-0.549ZM0.3,-0.432C0.267,-0.432 0.243,-0.419 0.228,-0.393C0.213,-0.366 0.205,-0.324 0.205,-0.266C0.205,-0.207 0.213,-0.165 0.228,-0.139C0.243,-0.112 0.267,-0.099 0.3,-0.099C0.333,-0.099 0.357,-0.112 0.372,-0.139C0.387,-0.166 0.395,-0.208 0.395,-0.267C0.395,-0.324 0.387,-0.366 0.372,-0.393C0.357,-0.419 0.333,-0.432 0.3,-0.432Z" style="fill:rgb(148,255,0);fill-rule:nonzero;"/>
        </g>
        <g transform="matrix(182.694,0,0,182.694,3276.2,240.782)">
            <path d="M0.347,-0L0.301,-0.357L0.253,-0L0.082,-0L0.003,-0.531L0.148,-0.531L0.183,-0.099L0.238,-0.464L0.372,-0.464L0.421,-0.099L0.457,-0.531L0.597,-0.531L0.521,-0L0.347,-0Z" style="fill:rgb(148,255,0);fill-rule:nonzero;"/>
        </g>
        <g transform="matrix(182.694,0,0,182.694,3495.43,240.782)">
            <path d="M0.548,-0.031C0.498,0.001 0.44,0.017 0.374,0.017C0.306,0.017 0.255,-0 0.221,-0.035C0.186,-0.07 0.169,-0.118 0.169,-0.181L0.169,-0.422L0.058,-0.422L0.058,-0.531L0.169,-0.531L0.169,-0.646L0.327,-0.665L0.327,-0.531L0.498,-0.531L0.482,-0.422L0.327,-0.422L0.327,-0.181C0.327,-0.155 0.333,-0.136 0.345,-0.125C0.357,-0.114 0.376,-0.108 0.403,-0.108C0.436,-0.108 0.467,-0.116 0.496,-0.132L0.548,-0.031Z" style="fill:rgb(148,255,0);fill-rule:nonzero;"/>
        </g>
        <g transform="matrix(182.694,0,0,182.694,3605.05,240.782)">
            <path d="M0.3,-0.549C0.381,-0.549 0.444,-0.524 0.49,-0.473C0.535,-0.422 0.558,-0.353 0.558,-0.267C0.558,-0.178 0.535,-0.108 0.49,-0.058C0.445,-0.008 0.381,0.017 0.3,0.017C0.219,0.017 0.155,-0.008 0.11,-0.058C0.065,-0.107 0.042,-0.177 0.042,-0.266C0.042,-0.323 0.052,-0.372 0.073,-0.415C0.093,-0.457 0.123,-0.49 0.162,-0.514C0.201,-0.537 0.247,-0.549 0.3,-0.549ZM0.3,-0.432C0.267,-0.432 0.243,-0.419 0.228,-0.393C0.213,-0.366 0.205,-0.324 0.205,-0.266C0.205,-0.207 0.213,-0.165 0.228,-0.139C0.243,-0.112 0.267,-0.099 0.3,-0.099C0.333,-0.099 0.357,-0.112 0.372,-0.139C0.387,-0.166 0.395,-0.208 0.395,-0.267C0.395,-0.324 0.387,-0.366 0.372,-0.393C0.357,-0.419 0.333,-0.432 0.3,-0.432Z" style="fill:rgb(148,255,0);fill-rule:nonzero;"/>
        </g>
        <g transform="matrix(182.694,0,0,182.694,3824.28,240.782)">
            <path d="M0.228,-0.168C0.228,-0.143 0.233,-0.126 0.242,-0.116C0.251,-0.105 0.264,-0.1 0.282,-0.1C0.298,-0.1 0.314,-0.105 0.331,-0.116C0.348,-0.126 0.361,-0.14 0.372,-0.158L0.372,-0.531L0.53,-0.531L0.53,-0L0.392,-0L0.385,-0.062C0.368,-0.037 0.344,-0.017 0.315,-0.004C0.286,0.01 0.255,0.017 0.222,0.017C0.172,0.017 0.134,0.003 0.109,-0.027C0.083,-0.056 0.07,-0.096 0.07,-0.148L0.07,-0.531L0.228,-0.531L0.228,-0.168Z" style="fill:rgb(148,255,0);fill-rule:nonzero;"/>
        </g>
        <g transform="matrix(182.694,0,0,182.694,3933.9,240.782)">
            <path d="M0.283,-0.096C0.31,-0.096 0.332,-0.1 0.348,-0.109C0.363,-0.117 0.371,-0.129 0.371,-0.146C0.371,-0.158 0.368,-0.168 0.362,-0.175C0.355,-0.182 0.343,-0.19 0.326,-0.197C0.309,-0.204 0.282,-0.212 0.245,-0.222C0.192,-0.236 0.151,-0.256 0.123,-0.281C0.095,-0.306 0.081,-0.34 0.081,-0.384C0.081,-0.433 0.101,-0.472 0.142,-0.503C0.182,-0.534 0.238,-0.549 0.311,-0.549C0.395,-0.549 0.467,-0.527 0.526,-0.484L0.463,-0.391C0.414,-0.421 0.365,-0.436 0.316,-0.436C0.29,-0.436 0.271,-0.433 0.259,-0.426C0.246,-0.419 0.24,-0.409 0.24,-0.395C0.24,-0.386 0.243,-0.378 0.25,-0.372C0.256,-0.365 0.268,-0.359 0.286,-0.352C0.303,-0.345 0.33,-0.337 0.365,-0.327C0.403,-0.316 0.434,-0.305 0.459,-0.292C0.483,-0.279 0.502,-0.262 0.515,-0.241C0.528,-0.22 0.535,-0.192 0.535,-0.159C0.535,-0.122 0.524,-0.09 0.501,-0.063C0.478,-0.036 0.448,-0.016 0.41,-0.003C0.372,0.01 0.33,0.017 0.284,0.017C0.235,0.017 0.19,0.01 0.15,-0.004C0.11,-0.018 0.076,-0.038 0.048,-0.063L0.127,-0.152C0.175,-0.115 0.227,-0.096 0.283,-0.096Z" style="fill:rgb(148,255,0);fill-rule:nonzero;"/>
        </g>
        <g transform="matrix(182.694,0,0,182.694,4043.51,240.782)">
            <path d="M0.207,-0.219C0.217,-0.138 0.26,-0.098 0.335,-0.098C0.38,-0.098 0.426,-0.113 0.471,-0.142L0.534,-0.056C0.508,-0.033 0.477,-0.016 0.441,-0.003C0.405,0.011 0.365,0.017 0.322,0.017C0.263,0.017 0.212,0.005 0.171,-0.019C0.13,-0.042 0.098,-0.075 0.078,-0.118C0.056,-0.16 0.046,-0.209 0.046,-0.265C0.046,-0.318 0.056,-0.367 0.077,-0.41C0.097,-0.453 0.127,-0.487 0.166,-0.512C0.205,-0.537 0.251,-0.549 0.305,-0.549C0.356,-0.549 0.4,-0.538 0.437,-0.517C0.474,-0.495 0.503,-0.463 0.524,-0.423C0.544,-0.381 0.554,-0.333 0.554,-0.276C0.554,-0.254 0.553,-0.235 0.551,-0.219L0.207,-0.219ZM0.305,-0.443C0.276,-0.443 0.253,-0.433 0.236,-0.412C0.219,-0.391 0.208,-0.358 0.205,-0.315L0.4,-0.315C0.399,-0.4 0.367,-0.443 0.305,-0.443Z" style="fill:rgb(148,255,0);fill-rule:nonzero;"/>
        </g>
        <g transform="matrix(182.694,0,0,182.694,316.557,423.476)">
            <path d="M0.246,-0.404L0.074,-0.483L0.028,-0.341L0.214,-0.303L0.086,-0.163L0.206,-0.076L0.3,-0.24L0.394,-0.076L0.514,-0.163L0.386,-0.303L0.572,-0.341L0.526,-0.483L0.354,-0.404L0.375,-0.593L0.225,-0.593L0.246,-0.404Z" style="fill:rgb(148,255,0);fill-rule:nonzero;"/>
        </g>
        <g transform="matrix(182.694,0,0,182.694,535.79,423.476)">
            <path d="M0.548,-0.031C0.498,0.001 0.44,0.017 0.374,0.017C0.306,0.017 0.255,-0 0.221,-0.035C0.186,-0.07 0.169,-0.118 0.169,-0.181L0.169,-0.422L0.058,-0.422L0.058,-0.531L0.169,-0.531L0.169,-0.646L0.327,-0.665L0.327,-0.531L0.498,-0.531L0.482,-0.422L0.327,-0.422L0.327,-0.181C0.327,-0.155 0.333,-0.136 0.345,-0.125C0.357,-0.114 0.376,-0.108 0.403,-0.108C0.436,-0.108 0.467,-0.116 0.496,-0.132L0.548,-0.031Z" style="fill:rgb(148,255,0);fill-rule:nonzero;"/>
        </g>
        <g transform="matrix(182.694,0,0,182.694,645.406,423.476)">
            <path d="M0.228,-0.478C0.273,-0.525 0.325,-0.549 0.384,-0.549C0.431,-0.549 0.467,-0.535 0.492,-0.508C0.517,-0.48 0.53,-0.441 0.53,-0.39L0.53,-0L0.372,-0L0.372,-0.346C0.372,-0.378 0.368,-0.4 0.361,-0.413C0.354,-0.426 0.34,-0.432 0.321,-0.432C0.305,-0.432 0.29,-0.427 0.275,-0.416C0.26,-0.405 0.244,-0.388 0.228,-0.367L0.228,-0L0.07,-0L0.07,-0.742L0.228,-0.758L0.228,-0.478Z" style="fill:rgb(148,255,0);fill-rule:nonzero;"/>
        </g>
        <g transform="matrix(182.694,0,0,182.694,755.022,423.476)">
            <path d="M0.299,-0.809C0.326,-0.809 0.349,-0.801 0.366,-0.784C0.383,-0.767 0.392,-0.745 0.392,-0.72C0.392,-0.694 0.383,-0.673 0.366,-0.656C0.349,-0.639 0.326,-0.631 0.299,-0.631C0.272,-0.631 0.249,-0.64 0.232,-0.657C0.214,-0.674 0.205,-0.695 0.205,-0.72C0.205,-0.745 0.214,-0.767 0.232,-0.784C0.249,-0.801 0.272,-0.809 0.299,-0.809ZM0.394,-0.108L0.53,-0.108L0.53,-0L0.086,-0L0.086,-0.108L0.236,-0.108L0.236,-0.423L0.091,-0.423L0.091,-0.531L0.394,-0.531L0.394,-0.108Z" style="fill:rgb(148,255,0);fill-rule:nonzero;"/>
        </g>
        <g transform="matrix(182.694,0,0,182.694,864.639,423.476)">
            <path d="M0.283,-0.096C0.31,-0.096 0.332,-0.1 0.348,-0.109C0.363,-0.117 0.371,-0.129 0.371,-0.146C0.371,-0.158 0.368,-0.168 0.362,-0.175C0.355,-0.182 0.343,-0.19 0.326,-0.197C0.309,-0.204 0.282,-0.212 0.245,-0.222C0.192,-0.236 0.151,-0.256 0.123,-0.281C0.095,-0.306 0.081,-0.34 0.081,-0.384C0.081,-0.433 0.101,-0.472 0.142,-0.503C0.182,-0.534 0.238,-0.549 0.311,-0.549C0.395,-0.549 0.467,-0.527 0.526,-0.484L0.463,-0.391C0.414,-0.421 0.365,-0.436 0.316,-0.436C0.29,-0.436 0.271,-0.433 0.259,-0.426C0.246,-0.419 0.24,-0.409 0.24,-0.395C0.24,-0.386 0.243,-0.378 0.25,-0.372C0.256,-0.365 0.268,-0.359 0.286,-0.352C0.303,-0.345 0.33,-0.337 0.365,-0.327C0.403,-0.316 0.434,-0.305 0.459,-0.292C0.483,-0.279 0.502,-0.262 0.515,-0.241C0.528,-0.22 0.535,-0.192 0.535,-0.159C0.535,-0.122 0.524,-0.09 0.501,-0.063C0.478,-0.036 0.448,-0.016 0.41,-0.003C0.372,0.01 0.33,0.017 0.284,0.017C0.235,0.017 0.19,0.01 0.15,-0.004C0.11,-0.018 0.076,-0.038 0.048,-0.063L0.127,-0.152C0.175,-0.115 0.227,-0.096 0.283,-0.096Z" style="fill:rgb(148,255,0);fill-rule:nonzero;"/>
        </g>
        <g transform="matrix(182.694,0,0,182.694,1083.87,423.476)">
            <path d="M0.228,-0.477C0.245,-0.5 0.265,-0.517 0.289,-0.53C0.312,-0.543 0.337,-0.549 0.364,-0.549C0.43,-0.549 0.479,-0.524 0.512,-0.475C0.544,-0.426 0.56,-0.356 0.56,-0.267C0.56,-0.212 0.552,-0.163 0.535,-0.12C0.518,-0.077 0.494,-0.044 0.462,-0.02C0.43,0.005 0.392,0.017 0.347,0.017C0.32,0.017 0.296,0.011 0.273,-0C0.25,-0.011 0.231,-0.027 0.216,-0.048L0.21,-0L0.07,-0L0.07,-0.742L0.228,-0.759L0.228,-0.477ZM0.306,-0.098C0.367,-0.098 0.397,-0.154 0.397,-0.265C0.397,-0.327 0.39,-0.37 0.376,-0.395C0.362,-0.42 0.341,-0.432 0.314,-0.432C0.281,-0.432 0.253,-0.411 0.228,-0.37L0.228,-0.146C0.249,-0.114 0.275,-0.098 0.306,-0.098Z" style="fill:rgb(148,255,0);fill-rule:nonzero;"/>
        </g>
        <g transform="matrix(182.694,0,0,182.694,1193.49,423.476)">
            <path d="M0.347,-0.167C0.347,-0.128 0.37,-0.108 0.415,-0.108C0.44,-0.108 0.465,-0.113 0.491,-0.124L0.528,-0.018C0.485,0.005 0.434,0.017 0.375,0.017C0.313,0.017 0.267,-0.001 0.236,-0.037C0.205,-0.072 0.189,-0.122 0.189,-0.187L0.189,-0.634L0.033,-0.634L0.033,-0.742L0.347,-0.742L0.347,-0.167Z" style="fill:rgb(148,255,0);fill-rule:nonzero;"/>
        </g>
        <g transform="matrix(182.694,0,0,182.694,1303.1,423.476)">
            <path d="M0.3,-0.549C0.381,-0.549 0.444,-0.524 0.49,-0.473C0.535,-0.422 0.558,-0.353 0.558,-0.267C0.558,-0.178 0.535,-0.108 0.49,-0.058C0.445,-0.008 0.381,0.017 0.3,0.017C0.219,0.017 0.155,-0.008 0.11,-0.058C0.065,-0.107 0.042,-0.177 0.042,-0.266C0.042,-0.323 0.052,-0.372 0.073,-0.415C0.093,-0.457 0.123,-0.49 0.162,-0.514C0.201,-0.537 0.247,-0.549 0.3,-0.549ZM0.3,-0.432C0.267,-0.432 0.243,-0.419 0.228,-0.393C0.213,-0.366 0.205,-0.324 0.205,-0.266C0.205,-0.207 0.213,-0.165 0.228,-0.139C0.243,-0.112 0.267,-0.099 0.3,-0.099C0.333,-0.099 0.357,-0.112 0.372,-0.139C0.387,-0.166 0.395,-0.208 0.395,-0.267C0.395,-0.324 0.387,-0.366 0.372,-0.393C0.357,-0.419 0.333,-0.432 0.3,-0.432Z" style="fill:rgb(148,255,0);fill-rule:nonzero;"/>
        </g>
        <g transform="matrix(182.694,0,0,182.694,1412.72,423.476)">
            <path d="M0.578,-0.5C0.543,-0.486 0.492,-0.479 0.425,-0.479C0.46,-0.464 0.486,-0.445 0.503,-0.424C0.52,-0.403 0.528,-0.375 0.528,-0.342C0.528,-0.308 0.519,-0.278 0.5,-0.251C0.481,-0.224 0.455,-0.202 0.421,-0.187C0.387,-0.172 0.348,-0.164 0.303,-0.164C0.281,-0.164 0.26,-0.166 0.241,-0.17C0.236,-0.167 0.232,-0.163 0.229,-0.158C0.226,-0.152 0.224,-0.146 0.224,-0.14C0.224,-0.13 0.228,-0.122 0.236,-0.117C0.243,-0.111 0.259,-0.108 0.282,-0.108L0.37,-0.108C0.41,-0.108 0.445,-0.101 0.476,-0.088C0.507,-0.075 0.53,-0.056 0.547,-0.033C0.564,-0.01 0.572,0.017 0.572,0.046C0.572,0.101 0.548,0.145 0.5,0.176C0.451,0.207 0.381,0.222 0.288,0.222C0.222,0.222 0.17,0.215 0.133,0.202C0.095,0.188 0.068,0.169 0.054,0.144C0.039,0.119 0.031,0.088 0.031,0.051L0.171,0.051C0.171,0.068 0.174,0.081 0.181,0.09C0.187,0.099 0.199,0.106 0.216,0.111C0.233,0.116 0.259,0.118 0.292,0.118C0.339,0.118 0.371,0.113 0.389,0.102C0.406,0.091 0.415,0.076 0.415,0.057C0.415,0.041 0.409,0.028 0.396,0.019C0.383,0.009 0.363,0.004 0.338,0.004L0.254,0.004C0.199,0.004 0.158,-0.006 0.131,-0.026C0.104,-0.045 0.09,-0.07 0.09,-0.101C0.09,-0.121 0.095,-0.14 0.106,-0.158C0.116,-0.175 0.13,-0.19 0.149,-0.202C0.116,-0.22 0.092,-0.241 0.077,-0.266C0.062,-0.29 0.055,-0.319 0.055,-0.354C0.055,-0.393 0.065,-0.428 0.085,-0.457C0.105,-0.486 0.133,-0.509 0.169,-0.525C0.205,-0.54 0.246,-0.548 0.292,-0.548C0.345,-0.547 0.391,-0.552 0.428,-0.564C0.465,-0.575 0.503,-0.593 0.542,-0.616L0.578,-0.5ZM0.296,-0.445C0.271,-0.445 0.251,-0.437 0.237,-0.421C0.222,-0.405 0.215,-0.383 0.215,-0.356C0.215,-0.327 0.222,-0.305 0.237,-0.289C0.252,-0.273 0.271,-0.265 0.296,-0.265C0.322,-0.265 0.342,-0.273 0.356,-0.289C0.37,-0.304 0.377,-0.327 0.377,-0.358C0.377,-0.416 0.35,-0.445 0.296,-0.445Z" style="fill:rgb(148,255,0);fill-rule:nonzero;"/>
        </g>
        <g transform="matrix(182.694,0,0,182.694,1631.95,423.476)">
            <path d="M0.207,-0.219C0.217,-0.138 0.26,-0.098 0.335,-0.098C0.38,-0.098 0.426,-0.113 0.471,-0.142L0.534,-0.056C0.508,-0.033 0.477,-0.016 0.441,-0.003C0.405,0.011 0.365,0.017 0.322,0.017C0.263,0.017 0.212,0.005 0.171,-0.019C0.13,-0.042 0.098,-0.075 0.078,-0.118C0.056,-0.16 0.046,-0.209 0.046,-0.265C0.046,-0.318 0.056,-0.367 0.077,-0.41C0.097,-0.453 0.127,-0.487 0.166,-0.512C0.205,-0.537 0.251,-0.549 0.305,-0.549C0.356,-0.549 0.4,-0.538 0.437,-0.517C0.474,-0.495 0.503,-0.463 0.524,-0.423C0.544,-0.381 0.554,-0.333 0.554,-0.276C0.554,-0.254 0.553,-0.235 0.551,-0.219L0.207,-0.219ZM0.305,-0.443C0.276,-0.443 0.253,-0.433 0.236,-0.412C0.219,-0.391 0.208,-0.358 0.205,-0.315L0.4,-0.315C0.399,-0.4 0.367,-0.443 0.305,-0.443Z" style="fill:rgb(148,255,0);fill-rule:nonzero;"/>
        </g>
        <g transform="matrix(182.694,0,0,182.694,1741.57,423.476)">
            <path d="M0.408,-0.759C0.476,-0.759 0.537,-0.748 0.59,-0.725L0.546,-0.622C0.512,-0.635 0.474,-0.642 0.433,-0.642C0.402,-0.642 0.379,-0.636 0.366,-0.625C0.352,-0.614 0.345,-0.595 0.345,-0.569L0.345,-0.498L0.518,-0.498L0.5,-0.388L0.345,-0.388L0.345,-0L0.188,-0L0.188,-0.388L0.076,-0.388L0.076,-0.498L0.188,-0.498L0.188,-0.574C0.188,-0.629 0.207,-0.673 0.246,-0.708C0.284,-0.742 0.338,-0.759 0.408,-0.759Z" style="fill:rgb(148,255,0);fill-rule:nonzero;"/>
        </g>
        <g transform="matrix(182.694,0,0,182.694,1851.19,423.476)">
            <path d="M0.408,-0.759C0.476,-0.759 0.537,-0.748 0.59,-0.725L0.546,-0.622C0.512,-0.635 0.474,-0.642 0.433,-0.642C0.402,-0.642 0.379,-0.636 0.366,-0.625C0.352,-0.614 0.345,-0.595 0.345,-0.569L0.345,-0.498L0.518,-0.498L0.5,-0.388L0.345,-0.388L0.345,-0L0.188,-0L0.188,-0.388L0.076,-0.388L0.076,-0.498L0.188,-0.498L0.188,-0.574C0.188,-0.629 0.207,-0.673 0.246,-0.708C0.284,-0.742 0.338,-0.759 0.408,-0.759Z" style="fill:rgb(148,255,0);fill-rule:nonzero;"/>
        </g>
        <g transform="matrix(182.694,0,0,182.694,1960.8,423.476)">
            <path d="M0.207,-0.219C0.217,-0.138 0.26,-0.098 0.335,-0.098C0.38,-0.098 0.426,-0.113 0.471,-0.142L0.534,-0.056C0.508,-0.033 0.477,-0.016 0.441,-0.003C0.405,0.011 0.365,0.017 0.322,0.017C0.263,0.017 0.212,0.005 0.171,-0.019C0.13,-0.042 0.098,-0.075 0.078,-0.118C0.056,-0.16 0.046,-0.209 0.046,-0.265C0.046,-0.318 0.056,-0.367 0.077,-0.41C0.097,-0.453 0.127,-0.487 0.166,-0.512C0.205,-0.537 0.251,-0.549 0.305,-0.549C0.356,-0.549 0.4,-0.538 0.437,-0.517C0.474,-0.495 0.503,-0.463 0.524,-0.423C0.544,-0.381 0.554,-0.333 0.554,-0.276C0.554,-0.254 0.553,-0.235 0.551,-0.219L0.207,-0.219ZM0.305,-0.443C0.276,-0.443 0.253,-0.433 0.236,-0.412C0.219,-0.391 0.208,-0.358 0.205,-0.315L0.4,-0.315C0.399,-0.4 0.367,-0.443 0.305,-0.443Z" style="fill:rgb(148,255,0);fill-rule:nonzero;"/>
        </g>
        <g transform="matrix(182.694,0,0,182.694,2070.42,423.476)">
            <path d="M0.352,-0.108C0.372,-0.108 0.391,-0.112 0.41,-0.12C0.429,-0.127 0.449,-0.138 0.47,-0.153L0.54,-0.053C0.515,-0.032 0.485,-0.015 0.452,-0.002C0.419,0.011 0.382,0.017 0.343,0.017C0.286,0.017 0.238,0.005 0.197,-0.018C0.156,-0.041 0.124,-0.074 0.102,-0.116C0.08,-0.158 0.069,-0.207 0.069,-0.262C0.069,-0.317 0.08,-0.367 0.103,-0.41C0.126,-0.453 0.158,-0.487 0.2,-0.512C0.241,-0.537 0.29,-0.549 0.346,-0.549C0.385,-0.549 0.421,-0.544 0.452,-0.533C0.483,-0.522 0.513,-0.505 0.54,-0.482L0.472,-0.387C0.433,-0.414 0.394,-0.427 0.353,-0.427C0.274,-0.427 0.234,-0.372 0.234,-0.262C0.234,-0.207 0.244,-0.167 0.265,-0.144C0.286,-0.12 0.315,-0.108 0.352,-0.108Z" style="fill:rgb(148,255,0);fill-rule:nonzero;"/>
        </g>
        <g transform="matrix(182.694,0,0,182.694,2180.04,423.476)">
            <path d="M0.548,-0.031C0.498,0.001 0.44,0.017 0.374,0.017C0.306,0.017 0.255,-0 0.221,-0.035C0.186,-0.07 0.169,-0.118 0.169,-0.181L0.169,-0.422L0.058,-0.422L0.058,-0.531L0.169,-0.531L0.169,-0.646L0.327,-0.665L0.327,-0.531L0.498,-0.531L0.482,-0.422L0.327,-0.422L0.327,-0.181C0.327,-0.155 0.333,-0.136 0.345,-0.125C0.357,-0.114 0.376,-0.108 0.403,-0.108C0.436,-0.108 0.467,-0.116 0.496,-0.132L0.548,-0.031Z" style="fill:rgb(148,255,0);fill-rule:nonzero;"/>
        </g>
        <g transform="matrix(182.694,0,0,182.694,2289.65,423.476)">
            <path d="M0.299,-0.809C0.326,-0.809 0.349,-0.801 0.366,-0.784C0.383,-0.767 0.392,-0.745 0.392,-0.72C0.392,-0.694 0.383,-0.673 0.366,-0.656C0.349,-0.639 0.326,-0.631 0.299,-0.631C0.272,-0.631 0.249,-0.64 0.232,-0.657C0.214,-0.674 0.205,-0.695 0.205,-0.72C0.205,-0.745 0.214,-0.767 0.232,-0.784C0.249,-0.801 0.272,-0.809 0.299,-0.809ZM0.394,-0.108L0.53,-0.108L0.53,-0L0.086,-0L0.086,-0.108L0.236,-0.108L0.236,-0.423L0.091,-0.423L0.091,-0.531L0.394,-0.531L0.394,-0.108Z" style="fill:rgb(148,255,0);fill-rule:nonzero;"/>
        </g>
        <g transform="matrix(182.694,0,0,182.694,2399.27,423.476)">
            <path d="M0.394,-0L0.208,-0L0.029,-0.531L0.2,-0.531L0.303,-0.121L0.411,-0.531L0.571,-0.531L0.394,-0Z" style="fill:rgb(148,255,0);fill-rule:nonzero;"/>
        </g>
        <g transform="matrix(182.694,0,0,182.694,2508.88,423.476)">
            <path d="M0.207,-0.219C0.217,-0.138 0.26,-0.098 0.335,-0.098C0.38,-0.098 0.426,-0.113 0.471,-0.142L0.534,-0.056C0.508,-0.033 0.477,-0.016 0.441,-0.003C0.405,0.011 0.365,0.017 0.322,0.017C0.263,0.017 0.212,0.005 0.171,-0.019C0.13,-0.042 0.098,-0.075 0.078,-0.118C0.056,-0.16 0.046,-0.209 0.046,-0.265C0.046,-0.318 0.056,-0.367 0.077,-0.41C0.097,-0.453 0.127,-0.487 0.166,-0.512C0.205,-0.537 0.251,-0.549 0.305,-0.549C0.356,-0.549 0.4,-0.538 0.437,-0.517C0.474,-0.495 0.503,-0.463 0.524,-0.423C0.544,-0.381 0.554,-0.333 0.554,-0.276C0.554,-0.254 0.553,-0.235 0.551,-0.219L0.207,-0.219ZM0.305,-0.443C0.276,-0.443 0.253,-0.433 0.236,-0.412C0.219,-0.391 0.208,-0.358 0.205,-0.315L0.4,-0.315C0.399,-0.4 0.367,-0.443 0.305,-0.443Z" style="fill:rgb(148,255,0);fill-rule:nonzero;"/>
        </g>
        <g transform="matrix(182.694,0,0,182.694,2618.5,423.476)">
            <path d="M0.347,-0.167C0.347,-0.128 0.37,-0.108 0.415,-0.108C0.44,-0.108 0.465,-0.113 0.491,-0.124L0.528,-0.018C0.485,0.005 0.434,0.017 0.375,0.017C0.313,0.017 0.267,-0.001 0.236,-0.037C0.205,-0.072 0.189,-0.122 0.189,-0.187L0.189,-0.634L0.033,-0.634L0.033,-0.742L0.347,-0.742L0.347,-0.167Z" style="fill:rgb(148,255,0);fill-rule:nonzero;"/>
        </g>
        <g transform="matrix(182.694,0,0,182.694,2728.12,423.476)">
            <path d="M0.395,-0C0.371,0.071 0.335,0.125 0.288,0.162C0.241,0.198 0.177,0.218 0.098,0.223L0.08,0.111C0.131,0.104 0.168,0.093 0.193,0.077C0.217,0.061 0.236,0.035 0.251,-0L0.196,-0L0.028,-0.531L0.195,-0.531L0.298,-0.101L0.41,-0.531L0.572,-0.531L0.395,-0Z" style="fill:rgb(148,255,0);fill-rule:nonzero;"/>
        </g>
        <g transform="matrix(182.694,0,0,182.694,2947.35,423.476)">
            <path d="M0.364,-0.255L0.237,-0.255L0.216,-0.693L0.384,-0.693L0.364,-0.255ZM0.3,-0.164C0.325,-0.164 0.347,-0.155 0.364,-0.138C0.381,-0.12 0.39,-0.099 0.39,-0.074C0.39,-0.049 0.381,-0.027 0.364,-0.01C0.347,0.008 0.325,0.017 0.3,0.017C0.275,0.017 0.254,0.008 0.237,-0.01C0.219,-0.027 0.21,-0.049 0.21,-0.074C0.21,-0.099 0.219,-0.12 0.237,-0.138C0.254,-0.155 0.275,-0.164 0.3,-0.164Z" style="fill:rgb(148,255,0);fill-rule:nonzero;"/>
        </g>
        <g transform="matrix(182.694,0,0,182.694,316.557,606.17)">
            <path d="M0.246,-0.404L0.074,-0.483L0.028,-0.341L0.214,-0.303L0.086,-0.163L0.206,-0.076L0.3,-0.24L0.394,-0.076L0.514,-0.163L0.386,-0.303L0.572,-0.341L0.526,-0.483L0.354,-0.404L0.375,-0.593L0.225,-0.593L0.246,-0.404Z" style="fill:rgb(148,255,0);fill-rule:nonzero;"/>
        </g>
        <g transform="matrix(182.694,0,0,182.694,426.173,788.864)">
            <path d="M-0.318,-0.428L-0.49,-0.507L-0.536,-0.365L-0.35,-0.327L-0.478,-0.187L-0.358,-0.1L-0.264,-0.264L-0.17,-0.1L-0.05,-0.187L-0.178,-0.327L0.008,-0.365L-0.038,-0.507L-0.21,-0.428L-0.189,-0.617L-0.339,-0.617L-0.318,-0.428ZM-0.054,0.055L0.366,-0.817L0.488,-0.76L0.069,0.112L-0.054,0.055Z" style="fill:rgb(148,255,0);fill-rule:nonzero;"/>
        </g>
        <g transform="matrix(182.694,0,0,182.694,206.94,1154.25)">
            <path d="M0.408,-0.759C0.476,-0.759 0.537,-0.748 0.59,-0.725L0.546,-0.622C0.512,-0.635 0.474,-0.642 0.433,-0.642C0.402,-0.642 0.379,-0.636 0.366,-0.625C0.352,-0.614 0.345,-0.595 0.345,-0.569L0.345,-0.498L0.518,-0.498L0.5,-0.388L0.345,-0.388L0.345,-0L0.188,-0L0.188,-0.388L0.076,-0.388L0.076,-0.498L0.188,-0.498L0.188,-0.574C0.188,-0.629 0.207,-0.673 0.246,-0.708C0.284,-0.742 0.338,-0.759 0.408,-0.759Z" style="fill:rgb(255,235,79);fill-rule:nonzero;"/>
        </g>
        <g transform="matrix(182.694,0,0,182.694,316.557,1154.25)">
            <path d="M0.228,-0.168C0.228,-0.143 0.233,-0.126 0.242,-0.116C0.251,-0.105 0.264,-0.1 0.282,-0.1C0.298,-0.1 0.314,-0.105 0.331,-0.116C0.348,-0.126 0.361,-0.14 0.372,-0.158L0.372,-0.531L0.53,-0.531L0.53,-0L0.392,-0L0.385,-0.062C0.368,-0.037 0.344,-0.017 0.315,-0.004C0.286,0.01 0.255,0.017 0.222,0.017C0.172,0.017 0.134,0.003 0.109,-0.027C0.083,-0.056 0.07,-0.096 0.07,-0.148L0.07,-0.531L0.228,-0.531L0.228,-0.168Z" style="fill:rgb(255,235,79);fill-rule:nonzero;"/>
        </g>
        <g transform="matrix(182.694,0,0,182.694,426.173,1154.25)">
            <path d="M0.07,-0.531L0.208,-0.531L0.219,-0.47C0.243,-0.497 0.268,-0.517 0.295,-0.53C0.321,-0.543 0.351,-0.549 0.384,-0.549C0.43,-0.549 0.466,-0.535 0.492,-0.507C0.517,-0.479 0.53,-0.44 0.53,-0.39L0.53,-0L0.372,-0L0.372,-0.344C0.372,-0.377 0.368,-0.4 0.361,-0.413C0.354,-0.426 0.34,-0.432 0.321,-0.432C0.305,-0.432 0.29,-0.427 0.275,-0.417C0.26,-0.406 0.244,-0.391 0.228,-0.371L0.228,-0L0.07,-0L0.07,-0.531Z" style="fill:rgb(255,235,79);fill-rule:nonzero;"/>
        </g>
        <g transform="matrix(182.694,0,0,182.694,645.406,1154.25)">
            <path d="M0.364,-0.549C0.431,-0.549 0.48,-0.525 0.511,-0.476C0.542,-0.427 0.558,-0.357 0.558,-0.267C0.558,-0.212 0.55,-0.164 0.534,-0.121C0.517,-0.078 0.494,-0.044 0.463,-0.02C0.432,0.005 0.396,0.017 0.354,0.017C0.303,0.017 0.261,-0.001 0.228,-0.038L0.228,0.205L0.07,0.222L0.07,-0.531L0.21,-0.531L0.217,-0.472C0.238,-0.498 0.261,-0.517 0.287,-0.53C0.312,-0.543 0.338,-0.549 0.364,-0.549ZM0.315,-0.432C0.282,-0.432 0.253,-0.411 0.228,-0.37L0.228,-0.146C0.239,-0.13 0.251,-0.118 0.264,-0.111C0.276,-0.103 0.29,-0.099 0.306,-0.099C0.335,-0.099 0.358,-0.112 0.373,-0.139C0.388,-0.165 0.395,-0.207 0.395,-0.265C0.395,-0.328 0.388,-0.371 0.375,-0.396C0.362,-0.42 0.342,-0.432 0.315,-0.432Z" style="fill:rgb(178,178,178);fill-rule:nonzero;"/>
        </g>
        <g transform="matrix(182.694,0,0,182.694,755.022,1154.25)">
            <path d="M0.475,-0.547C0.507,-0.547 0.536,-0.542 0.563,-0.531L0.534,-0.309L0.434,-0.309L0.434,-0.406C0.405,-0.401 0.379,-0.386 0.356,-0.359C0.333,-0.332 0.316,-0.299 0.303,-0.258L0.303,-0.106L0.408,-0.106L0.408,-0L0.075,-0L0.075,-0.106L0.145,-0.106L0.145,-0.426L0.075,-0.426L0.075,-0.531L0.266,-0.531L0.294,-0.412C0.313,-0.457 0.338,-0.491 0.367,-0.514C0.396,-0.536 0.432,-0.547 0.475,-0.547Z" style="fill:rgb(178,178,178);fill-rule:nonzero;"/>
        </g>
        <g transform="matrix(182.694,0,0,182.694,864.639,1154.25)">
            <path d="M0.3,-0.549C0.381,-0.549 0.444,-0.524 0.49,-0.473C0.535,-0.422 0.558,-0.353 0.558,-0.267C0.558,-0.178 0.535,-0.108 0.49,-0.058C0.445,-0.008 0.381,0.017 0.3,0.017C0.219,0.017 0.155,-0.008 0.11,-0.058C0.065,-0.107 0.042,-0.177 0.042,-0.266C0.042,-0.323 0.052,-0.372 0.073,-0.415C0.093,-0.457 0.123,-0.49 0.162,-0.514C0.201,-0.537 0.247,-0.549 0.3,-0.549ZM0.3,-0.432C0.267,-0.432 0.243,-0.419 0.228,-0.393C0.213,-0.366 0.205,-0.324 0.205,-0.266C0.205,-0.207 0.213,-0.165 0.228,-0.139C0.243,-0.112 0.267,-0.099 0.3,-0.099C0.333,-0.099 0.357,-0.112 0.372,-0.139C0.387,-0.166 0.395,-0.208 0.395,-0.267C0.395,-0.324 0.387,-0.366 0.372,-0.393C0.357,-0.419 0.333,-0.432 0.3,-0.432Z" style="fill:rgb(178,178,178);fill-rule:nonzero;"/>
        </g>
        <g transform="matrix(182.694,0,0,182.694,974.255,1154.25)">
            <path d="M0.53,-0.742L0.53,-0L0.39,-0L0.382,-0.058C0.366,-0.035 0.346,-0.017 0.321,-0.004C0.296,0.01 0.268,0.017 0.235,0.017C0.171,0.017 0.123,-0.008 0.09,-0.059C0.056,-0.11 0.04,-0.179 0.04,-0.267C0.04,-0.322 0.049,-0.37 0.066,-0.413C0.083,-0.456 0.108,-0.489 0.14,-0.513C0.172,-0.537 0.209,-0.549 0.252,-0.549C0.3,-0.549 0.34,-0.532 0.372,-0.499L0.372,-0.759L0.53,-0.742ZM0.294,-0.433C0.265,-0.433 0.243,-0.42 0.227,-0.393C0.211,-0.366 0.203,-0.323 0.203,-0.266C0.203,-0.205 0.21,-0.162 0.225,-0.137C0.239,-0.112 0.259,-0.099 0.285,-0.099C0.318,-0.099 0.347,-0.119 0.372,-0.16L0.372,-0.389C0.361,-0.404 0.349,-0.415 0.337,-0.422C0.324,-0.429 0.31,-0.433 0.294,-0.433Z" style="fill:rgb(178,178,178);fill-rule:nonzero;"/>
        </g>
        <g transform="matrix(182.694,0,0,182.694,1083.87,1154.25)">
            <path d="M0.228,-0.168C0.228,-0.143 0.233,-0.126 0.242,-0.116C0.251,-0.105 0.264,-0.1 0.282,-0.1C0.298,-0.1 0.314,-0.105 0.331,-0.116C0.348,-0.126 0.361,-0.14 0.372,-0.158L0.372,-0.531L0.53,-0.531L0.53,-0L0.392,-0L0.385,-0.062C0.368,-0.037 0.344,-0.017 0.315,-0.004C0.286,0.01 0.255,0.017 0.222,0.017C0.172,0.017 0.134,0.003 0.109,-0.027C0.083,-0.056 0.07,-0.096 0.07,-0.148L0.07,-0.531L0.228,-0.531L0.228,-0.168Z" style="fill:rgb(178,178,178);fill-rule:nonzero;"/>
        </g>
        <g transform="matrix(182.694,0,0,182.694,1193.49,1154.25)">
            <path d="M0.352,-0.108C0.372,-0.108 0.391,-0.112 0.41,-0.12C0.429,-0.127 0.449,-0.138 0.47,-0.153L0.54,-0.053C0.515,-0.032 0.485,-0.015 0.452,-0.002C0.419,0.011 0.382,0.017 0.343,0.017C0.286,0.017 0.238,0.005 0.197,-0.018C0.156,-0.041 0.124,-0.074 0.102,-0.116C0.08,-0.158 0.069,-0.207 0.069,-0.262C0.069,-0.317 0.08,-0.367 0.103,-0.41C0.126,-0.453 0.158,-0.487 0.2,-0.512C0.241,-0.537 0.29,-0.549 0.346,-0.549C0.385,-0.549 0.421,-0.544 0.452,-0.533C0.483,-0.522 0.513,-0.505 0.54,-0.482L0.472,-0.387C0.433,-0.414 0.394,-0.427 0.353,-0.427C0.274,-0.427 0.234,-0.372 0.234,-0.262C0.234,-0.207 0.244,-0.167 0.265,-0.144C0.286,-0.12 0.315,-0.108 0.352,-0.108Z" style="fill:rgb(178,178,178);fill-rule:nonzero;"/>
        </g>
        <g transform="matrix(182.694,0,0,182.694,1303.1,1154.25)">
            <path d="M0.207,-0.219C0.217,-0.138 0.26,-0.098 0.335,-0.098C0.38,-0.098 0.426,-0.113 0.471,-0.142L0.534,-0.056C0.508,-0.033 0.477,-0.016 0.441,-0.003C0.405,0.011 0.365,0.017 0.322,0.017C0.263,0.017 0.212,0.005 0.171,-0.019C0.13,-0.042 0.098,-0.075 0.078,-0.118C0.056,-0.16 0.046,-0.209 0.046,-0.265C0.046,-0.318 0.056,-0.367 0.077,-0.41C0.097,-0.453 0.127,-0.487 0.166,-0.512C0.205,-0.537 0.251,-0.549 0.305,-0.549C0.356,-0.549 0.4,-0.538 0.437,-0.517C0.474,-0.495 0.503,-0.463 0.524,-0.423C0.544,-0.381 0.554,-0.333 0.554,-0.276C0.554,-0.254 0.553,-0.235 0.551,-0.219L0.207,-0.219ZM0.305,-0.443C0.276,-0.443 0.253,-0.433 0.236,-0.412C0.219,-0.391 0.208,-0.358 0.205,-0.315L0.4,-0.315C0.399,-0.4 0.367,-0.443 0.305,-0.443Z" style="fill:rgb(178,178,178);fill-rule:nonzero;"/>
        </g>
        <g transform="matrix(182.694,0,0,182.694,1412.72,1154.25)">
            <path d="M0.561,-0.482C0.561,-0.435 0.549,-0.396 0.524,-0.365C0.498,-0.333 0.465,-0.309 0.423,-0.292L0.604,-0L0.418,-0L0.268,-0.265L0.222,-0.265L0.222,-0L0.058,-0L0.058,-0.693L0.276,-0.693C0.371,-0.693 0.443,-0.676 0.49,-0.641C0.537,-0.606 0.561,-0.553 0.561,-0.482ZM0.392,-0.482C0.392,-0.515 0.383,-0.54 0.364,-0.555C0.345,-0.57 0.315,-0.578 0.276,-0.578L0.222,-0.578L0.222,-0.378L0.283,-0.378C0.319,-0.378 0.346,-0.386 0.365,-0.403C0.383,-0.42 0.392,-0.446 0.392,-0.482Z" style="fill:rgb(178,178,178);fill-rule:nonzero;"/>
        </g>
        <g transform="matrix(182.694,0,0,182.694,1522.34,1154.25)">
            <path d="M0.207,-0.219C0.217,-0.138 0.26,-0.098 0.335,-0.098C0.38,-0.098 0.426,-0.113 0.471,-0.142L0.534,-0.056C0.508,-0.033 0.477,-0.016 0.441,-0.003C0.405,0.011 0.365,0.017 0.322,0.017C0.263,0.017 0.212,0.005 0.171,-0.019C0.13,-0.042 0.098,-0.075 0.078,-0.118C0.056,-0.16 0.046,-0.209 0.046,-0.265C0.046,-0.318 0.056,-0.367 0.077,-0.41C0.097,-0.453 0.127,-0.487 0.166,-0.512C0.205,-0.537 0.251,-0.549 0.305,-0.549C0.356,-0.549 0.4,-0.538 0.437,-0.517C0.474,-0.495 0.503,-0.463 0.524,-0.423C0.544,-0.381 0.554,-0.333 0.554,-0.276C0.554,-0.254 0.553,-0.235 0.551,-0.219L0.207,-0.219ZM0.305,-0.443C0.276,-0.443 0.253,-0.433 0.236,-0.412C0.219,-0.391 0.208,-0.358 0.205,-0.315L0.4,-0.315C0.399,-0.4 0.367,-0.443 0.305,-0.443Z" style="fill:rgb(178,178,178);fill-rule:nonzero;"/>
        </g>
        <g transform="matrix(182.694,0,0,182.694,1631.95,1154.25)">
            <path d="M0.517,-0.153C0.517,-0.134 0.52,-0.119 0.525,-0.11C0.53,-0.101 0.539,-0.094 0.552,-0.089L0.519,0.015C0.487,0.012 0.46,0.005 0.439,-0.007C0.418,-0.017 0.401,-0.034 0.389,-0.055C0.369,-0.032 0.344,-0.014 0.313,-0.002C0.282,0.011 0.25,0.017 0.215,0.017C0.16,0.017 0.117,0.002 0.084,-0.03C0.051,-0.061 0.035,-0.101 0.035,-0.15C0.035,-0.207 0.058,-0.252 0.103,-0.284C0.148,-0.315 0.212,-0.331 0.294,-0.331L0.365,-0.331L0.365,-0.35C0.365,-0.405 0.33,-0.432 0.26,-0.432C0.242,-0.432 0.22,-0.43 0.193,-0.425C0.166,-0.42 0.139,-0.413 0.114,-0.404L0.078,-0.509C0.112,-0.522 0.148,-0.532 0.185,-0.539C0.222,-0.546 0.255,-0.549 0.285,-0.549C0.44,-0.549 0.517,-0.486 0.517,-0.361L0.517,-0.153ZM0.269,-0.096C0.287,-0.096 0.305,-0.101 0.324,-0.112C0.342,-0.122 0.356,-0.136 0.365,-0.154L0.365,-0.241L0.326,-0.241C0.241,-0.241 0.198,-0.214 0.198,-0.161C0.198,-0.14 0.204,-0.124 0.217,-0.113C0.229,-0.102 0.246,-0.096 0.269,-0.096Z" style="fill:rgb(178,178,178);fill-rule:nonzero;"/>
        </g>
        <g transform="matrix(182.694,0,0,182.694,1741.57,1154.25)">
            <path d="M0.53,-0.742L0.53,-0L0.39,-0L0.382,-0.058C0.366,-0.035 0.346,-0.017 0.321,-0.004C0.296,0.01 0.268,0.017 0.235,0.017C0.171,0.017 0.123,-0.008 0.09,-0.059C0.056,-0.11 0.04,-0.179 0.04,-0.267C0.04,-0.322 0.049,-0.37 0.066,-0.413C0.083,-0.456 0.108,-0.489 0.14,-0.513C0.172,-0.537 0.209,-0.549 0.252,-0.549C0.3,-0.549 0.34,-0.532 0.372,-0.499L0.372,-0.759L0.53,-0.742ZM0.294,-0.433C0.265,-0.433 0.243,-0.42 0.227,-0.393C0.211,-0.366 0.203,-0.323 0.203,-0.266C0.203,-0.205 0.21,-0.162 0.225,-0.137C0.239,-0.112 0.259,-0.099 0.285,-0.099C0.318,-0.099 0.347,-0.119 0.372,-0.16L0.372,-0.389C0.361,-0.404 0.349,-0.415 0.337,-0.422C0.324,-0.429 0.31,-0.433 0.294,-0.433Z" style="fill:rgb(178,178,178);fill-rule:nonzero;"/>
        </g>
        <g transform="matrix(182.694,0,0,182.694,1851.19,1154.25)">
            <path d="M0.463,-0.549C0.501,-0.549 0.529,-0.537 0.547,-0.512C0.564,-0.487 0.573,-0.447 0.573,-0.393L0.573,-0L0.438,-0L0.438,-0.375C0.438,-0.394 0.436,-0.408 0.433,-0.415C0.429,-0.422 0.422,-0.426 0.412,-0.426C0.393,-0.426 0.375,-0.414 0.357,-0.391L0.357,-0L0.245,-0L0.245,-0.375C0.245,-0.394 0.243,-0.408 0.24,-0.415C0.236,-0.422 0.229,-0.426 0.219,-0.426C0.2,-0.426 0.182,-0.414 0.164,-0.391L0.164,-0L0.027,-0L0.027,-0.531L0.142,-0.531L0.153,-0.48C0.17,-0.504 0.188,-0.522 0.205,-0.533C0.222,-0.544 0.241,-0.549 0.264,-0.549C0.285,-0.549 0.302,-0.544 0.316,-0.534C0.33,-0.523 0.34,-0.507 0.346,-0.486C0.382,-0.528 0.421,-0.549 0.463,-0.549Z" style="fill:rgb(178,178,178);fill-rule:nonzero;"/>
        </g>
        <g transform="matrix(182.694,0,0,182.694,1960.8,1154.25)">
            <path d="M0.207,-0.219C0.217,-0.138 0.26,-0.098 0.335,-0.098C0.38,-0.098 0.426,-0.113 0.471,-0.142L0.534,-0.056C0.508,-0.033 0.477,-0.016 0.441,-0.003C0.405,0.011 0.365,0.017 0.322,0.017C0.263,0.017 0.212,0.005 0.171,-0.019C0.13,-0.042 0.098,-0.075 0.078,-0.118C0.056,-0.16 0.046,-0.209 0.046,-0.265C0.046,-0.318 0.056,-0.367 0.077,-0.41C0.097,-0.453 0.127,-0.487 0.166,-0.512C0.205,-0.537 0.251,-0.549 0.305,-0.549C0.356,-0.549 0.4,-0.538 0.437,-0.517C0.474,-0.495 0.503,-0.463 0.524,-0.423C0.544,-0.381 0.554,-0.333 0.554,-0.276C0.554,-0.254 0.553,-0.235 0.551,-0.219L0.207,-0.219ZM0.305,-0.443C0.276,-0.443 0.253,-0.433 0.236,-0.412C0.219,-0.391 0.208,-0.358 0.205,-0.315L0.4,-0.315C0.399,-0.4 0.367,-0.443 0.305,-0.443Z" style="fill:rgb(178,178,178);fill-rule:nonzero;"/>
        </g>
        <g transform="matrix(182.694,0,0,182.694,2070.42,1154.25)">
            <path d="M0.261,-0.35C0.261,-0.294 0.267,-0.244 0.279,-0.2C0.29,-0.156 0.31,-0.113 0.337,-0.07C0.364,-0.027 0.401,0.022 0.45,0.075L0.359,0.158C0.274,0.085 0.21,0.009 0.167,-0.073C0.123,-0.154 0.101,-0.246 0.101,-0.35C0.101,-0.454 0.123,-0.547 0.167,-0.628C0.21,-0.709 0.274,-0.785 0.359,-0.858L0.45,-0.775C0.382,-0.7 0.334,-0.631 0.305,-0.568C0.276,-0.504 0.261,-0.431 0.261,-0.35Z" style="fill:rgb(178,178,178);fill-rule:nonzero;"/>
        </g>
        <g transform="matrix(182.694,0,0,182.694,2178.21,1154.25)">
            <path d="M0.283,-0.096C0.31,-0.096 0.332,-0.1 0.348,-0.109C0.363,-0.117 0.371,-0.129 0.371,-0.146C0.371,-0.158 0.368,-0.168 0.362,-0.175C0.355,-0.182 0.343,-0.19 0.326,-0.197C0.309,-0.204 0.282,-0.212 0.245,-0.222C0.192,-0.236 0.151,-0.256 0.123,-0.281C0.095,-0.306 0.081,-0.34 0.081,-0.384C0.081,-0.433 0.101,-0.472 0.142,-0.503C0.182,-0.534 0.238,-0.549 0.311,-0.549C0.395,-0.549 0.467,-0.527 0.526,-0.484L0.463,-0.391C0.414,-0.421 0.365,-0.436 0.316,-0.436C0.29,-0.436 0.271,-0.433 0.259,-0.426C0.246,-0.419 0.24,-0.409 0.24,-0.395C0.24,-0.386 0.243,-0.378 0.25,-0.372C0.256,-0.365 0.268,-0.359 0.286,-0.352C0.303,-0.345 0.33,-0.337 0.365,-0.327C0.403,-0.316 0.434,-0.305 0.459,-0.292C0.483,-0.279 0.502,-0.262 0.515,-0.241C0.528,-0.22 0.535,-0.192 0.535,-0.159C0.535,-0.122 0.524,-0.09 0.501,-0.063C0.478,-0.036 0.448,-0.016 0.41,-0.003C0.372,0.01 0.33,0.017 0.284,0.017C0.235,0.017 0.19,0.01 0.15,-0.004C0.11,-0.018 0.076,-0.038 0.048,-0.063L0.127,-0.152C0.175,-0.115 0.227,-0.096 0.283,-0.096Z" style="fill:rgb(0,138,255);fill-rule:nonzero;"/>
        </g>
        <g transform="matrix(182.694,0,0,182.694,2287.82,1154.25)">
            <path d="M0.299,-0.809C0.326,-0.809 0.349,-0.801 0.366,-0.784C0.383,-0.767 0.392,-0.745 0.392,-0.72C0.392,-0.694 0.383,-0.673 0.366,-0.656C0.349,-0.639 0.326,-0.631 0.299,-0.631C0.272,-0.631 0.249,-0.64 0.232,-0.657C0.214,-0.674 0.205,-0.695 0.205,-0.72C0.205,-0.745 0.214,-0.767 0.232,-0.784C0.249,-0.801 0.272,-0.809 0.299,-0.809ZM0.394,-0.108L0.53,-0.108L0.53,-0L0.086,-0L0.086,-0.108L0.236,-0.108L0.236,-0.423L0.091,-0.423L0.091,-0.531L0.394,-0.531L0.394,-0.108Z" style="fill:rgb(0,138,255);fill-rule:nonzero;"/>
        </g>
        <g transform="matrix(182.694,0,0,182.694,2397.44,1154.25)">
            <path d="M0.548,-0.031C0.498,0.001 0.44,0.017 0.374,0.017C0.306,0.017 0.255,-0 0.221,-0.035C0.186,-0.07 0.169,-0.118 0.169,-0.181L0.169,-0.422L0.058,-0.422L0.058,-0.531L0.169,-0.531L0.169,-0.646L0.327,-0.665L0.327,-0.531L0.498,-0.531L0.482,-0.422L0.327,-0.422L0.327,-0.181C0.327,-0.155 0.333,-0.136 0.345,-0.125C0.357,-0.114 0.376,-0.108 0.403,-0.108C0.436,-0.108 0.467,-0.116 0.496,-0.132L0.548,-0.031Z" style="fill:rgb(0,138,255);fill-rule:nonzero;"/>
        </g>
        <g transform="matrix(182.694,0,0,182.694,2507.06,1154.25)">
            <path d="M0.207,-0.219C0.217,-0.138 0.26,-0.098 0.335,-0.098C0.38,-0.098 0.426,-0.113 0.471,-0.142L0.534,-0.056C0.508,-0.033 0.477,-0.016 0.441,-0.003C0.405,0.011 0.365,0.017 0.322,0.017C0.263,0.017 0.212,0.005 0.171,-0.019C0.13,-0.042 0.098,-0.075 0.078,-0.118C0.056,-0.16 0.046,-0.209 0.046,-0.265C0.046,-0.318 0.056,-0.367 0.077,-0.41C0.097,-0.453 0.127,-0.487 0.166,-0.512C0.205,-0.537 0.251,-0.549 0.305,-0.549C0.356,-0.549 0.4,-0.538 0.437,-0.517C0.474,-0.495 0.503,-0.463 0.524,-0.423C0.544,-0.381 0.554,-0.333 0.554,-0.276C0.554,-0.254 0.553,-0.235 0.551,-0.219L0.207,-0.219ZM0.305,-0.443C0.276,-0.443 0.253,-0.433 0.236,-0.412C0.219,-0.391 0.208,-0.358 0.205,-0.315L0.4,-0.315C0.399,-0.4 0.367,-0.443 0.305,-0.443Z" style="fill:rgb(0,138,255);fill-rule:nonzero;"/>
        </g>
        <g transform="matrix(182.694,0,0,182.694,2616.67,1154.25)">
            <path d="M0.195,-0.434C0.195,-0.463 0.205,-0.487 0.226,-0.508C0.246,-0.529 0.271,-0.539 0.3,-0.539C0.329,-0.539 0.354,-0.529 0.374,-0.508C0.394,-0.487 0.404,-0.463 0.404,-0.434C0.404,-0.405 0.394,-0.381 0.374,-0.361C0.354,-0.34 0.329,-0.33 0.3,-0.33C0.271,-0.33 0.246,-0.34 0.226,-0.361C0.205,-0.381 0.195,-0.405 0.195,-0.434ZM0.195,-0.089C0.195,-0.117 0.205,-0.141 0.226,-0.162C0.246,-0.182 0.271,-0.192 0.3,-0.192C0.329,-0.192 0.354,-0.182 0.374,-0.162C0.394,-0.141 0.404,-0.117 0.404,-0.089C0.404,-0.06 0.394,-0.035 0.374,-0.014C0.354,0.007 0.329,0.017 0.3,0.017C0.271,0.017 0.246,0.007 0.226,-0.014C0.205,-0.035 0.195,-0.06 0.195,-0.089Z" style="fill:rgb(0,138,255);fill-rule:nonzero;"/>
        </g>
        <g transform="matrix(182.694,0,0,182.694,2835.91,1154.25)">
            <path d="M0.568,-0.203C0.568,-0.16 0.557,-0.121 0.534,-0.088C0.511,-0.055 0.479,-0.029 0.437,-0.011C0.394,0.008 0.344,0.017 0.286,0.017C0.171,0.017 0.08,-0.016 0.012,-0.083L0.095,-0.175C0.148,-0.128 0.21,-0.105 0.282,-0.105C0.317,-0.105 0.345,-0.113 0.366,-0.128C0.387,-0.142 0.397,-0.163 0.397,-0.19C0.397,-0.215 0.388,-0.235 0.371,-0.25C0.353,-0.264 0.32,-0.278 0.272,-0.293C0.191,-0.318 0.133,-0.347 0.099,-0.38C0.065,-0.413 0.048,-0.456 0.048,-0.509C0.048,-0.55 0.059,-0.586 0.083,-0.617C0.106,-0.648 0.137,-0.671 0.177,-0.687C0.216,-0.703 0.26,-0.711 0.309,-0.711C0.411,-0.711 0.494,-0.681 0.557,-0.621L0.48,-0.532C0.457,-0.551 0.432,-0.566 0.405,-0.576C0.378,-0.585 0.35,-0.59 0.321,-0.59C0.289,-0.59 0.264,-0.584 0.246,-0.573C0.227,-0.561 0.218,-0.544 0.218,-0.522C0.218,-0.507 0.222,-0.495 0.231,-0.485C0.239,-0.475 0.253,-0.466 0.272,-0.457C0.291,-0.448 0.32,-0.438 0.359,-0.426C0.43,-0.405 0.482,-0.377 0.517,-0.344C0.551,-0.31 0.568,-0.263 0.568,-0.203Z" style="fill:rgb(178,178,178);fill-rule:nonzero;"/>
        </g>
        <g transform="matrix(182.694,0,0,182.694,2945.52,1154.25)">
            <path d="M0.548,-0.031C0.498,0.001 0.44,0.017 0.374,0.017C0.306,0.017 0.255,-0 0.221,-0.035C0.186,-0.07 0.169,-0.118 0.169,-0.181L0.169,-0.422L0.058,-0.422L0.058,-0.531L0.169,-0.531L0.169,-0.646L0.327,-0.665L0.327,-0.531L0.498,-0.531L0.482,-0.422L0.327,-0.422L0.327,-0.181C0.327,-0.155 0.333,-0.136 0.345,-0.125C0.357,-0.114 0.376,-0.108 0.403,-0.108C0.436,-0.108 0.467,-0.116 0.496,-0.132L0.548,-0.031Z" style="fill:rgb(178,178,178);fill-rule:nonzero;"/>
        </g>
        <g transform="matrix(182.694,0,0,182.694,3055.14,1154.25)">
            <path d="M0.475,-0.547C0.507,-0.547 0.536,-0.542 0.563,-0.531L0.534,-0.309L0.434,-0.309L0.434,-0.406C0.405,-0.401 0.379,-0.386 0.356,-0.359C0.333,-0.332 0.316,-0.299 0.303,-0.258L0.303,-0.106L0.408,-0.106L0.408,-0L0.075,-0L0.075,-0.106L0.145,-0.106L0.145,-0.426L0.075,-0.426L0.075,-0.531L0.266,-0.531L0.294,-0.412C0.313,-0.457 0.338,-0.491 0.367,-0.514C0.396,-0.536 0.432,-0.547 0.475,-0.547Z" style="fill:rgb(178,178,178);fill-rule:nonzero;"/>
        </g>
        <g transform="matrix(182.694,0,0,182.694,3164.76,1154.25)">
            <path d="M0.299,-0.809C0.326,-0.809 0.349,-0.801 0.366,-0.784C0.383,-0.767 0.392,-0.745 0.392,-0.72C0.392,-0.694 0.383,-0.673 0.366,-0.656C0.349,-0.639 0.326,-0.631 0.299,-0.631C0.272,-0.631 0.249,-0.64 0.232,-0.657C0.214,-0.674 0.205,-0.695 0.205,-0.72C0.205,-0.745 0.214,-0.767 0.232,-0.784C0.249,-0.801 0.272,-0.809 0.299,-0.809ZM0.394,-0.108L0.53,-0.108L0.53,-0L0.086,-0L0.086,-0.108L0.236,-0.108L0.236,-0.423L0.091,-0.423L0.091,-0.531L0.394,-0.531L0.394,-0.108Z" style="fill:rgb(178,178,178);fill-rule:nonzero;"/>
        </g>
        <g transform="matrix(182.694,0,0,182.694,3274.37,1154.25)">
            <path d="M0.07,-0.531L0.208,-0.531L0.219,-0.47C0.243,-0.497 0.268,-0.517 0.295,-0.53C0.321,-0.543 0.351,-0.549 0.384,-0.549C0.43,-0.549 0.466,-0.535 0.492,-0.507C0.517,-0.479 0.53,-0.44 0.53,-0.39L0.53,-0L0.372,-0L0.372,-0.344C0.372,-0.377 0.368,-0.4 0.361,-0.413C0.354,-0.426 0.34,-0.432 0.321,-0.432C0.305,-0.432 0.29,-0.427 0.275,-0.417C0.26,-0.406 0.244,-0.391 0.228,-0.371L0.228,-0L0.07,-0L0.07,-0.531Z" style="fill:rgb(178,178,178);fill-rule:nonzero;"/>
        </g>
        <g transform="matrix(182.694,0,0,182.694,3383.99,1154.25)">
            <path d="M0.578,-0.5C0.543,-0.486 0.492,-0.479 0.425,-0.479C0.46,-0.464 0.486,-0.445 0.503,-0.424C0.52,-0.403 0.528,-0.375 0.528,-0.342C0.528,-0.308 0.519,-0.278 0.5,-0.251C0.481,-0.224 0.455,-0.202 0.421,-0.187C0.387,-0.172 0.348,-0.164 0.303,-0.164C0.281,-0.164 0.26,-0.166 0.241,-0.17C0.236,-0.167 0.232,-0.163 0.229,-0.158C0.226,-0.152 0.224,-0.146 0.224,-0.14C0.224,-0.13 0.228,-0.122 0.236,-0.117C0.243,-0.111 0.259,-0.108 0.282,-0.108L0.37,-0.108C0.41,-0.108 0.445,-0.101 0.476,-0.088C0.507,-0.075 0.53,-0.056 0.547,-0.033C0.564,-0.01 0.572,0.017 0.572,0.046C0.572,0.101 0.548,0.145 0.5,0.176C0.451,0.207 0.381,0.222 0.288,0.222C0.222,0.222 0.17,0.215 0.133,0.202C0.095,0.188 0.068,0.169 0.054,0.144C0.039,0.119 0.031,0.088 0.031,0.051L0.171,0.051C0.171,0.068 0.174,0.081 0.181,0.09C0.187,0.099 0.199,0.106 0.216,0.111C0.233,0.116 0.259,0.118 0.292,0.118C0.339,0.118 0.371,0.113 0.389,0.102C0.406,0.091 0.415,0.076 0.415,0.057C0.415,0.041 0.409,0.028 0.396,0.019C0.383,0.009 0.363,0.004 0.338,0.004L0.254,0.004C0.199,0.004 0.158,-0.006 0.131,-0.026C0.104,-0.045 0.09,-0.07 0.09,-0.101C0.09,-0.121 0.095,-0.14 0.106,-0.158C0.116,-0.175 0.13,-0.19 0.149,-0.202C0.116,-0.22 0.092,-0.241 0.077,-0.266C0.062,-0.29 0.055,-0.319 0.055,-0.354C0.055,-0.393 0.065,-0.428 0.085,-0.457C0.105,-0.486 0.133,-0.509 0.169,-0.525C0.205,-0.54 0.246,-0.548 0.292,-0.548C0.345,-0.547 0.391,-0.552 0.428,-0.564C0.465,-0.575 0.503,-0.593 0.542,-0.616L0.578,-0.5ZM0.296,-0.445C0.271,-0.445 0.251,-0.437 0.237,-0.421C0.222,-0.405 0.215,-0.383 0.215,-0.356C0.215,-0.327 0.222,-0.305 0.237,-0.289C0.252,-0.273 0.271,-0.265 0.296,-0.265C0.322,-0.265 0.342,-0.273 0.356,-0.289C0.37,-0.304 0.377,-0.327 0.377,-0.358C0.377,-0.416 0.35,-0.445 0.296,-0.445Z" style="fill:rgb(178,178,178);fill-rule:nonzero;"/>
        </g>
        <g transform="matrix(182.694,0,0,182.694,3603.22,1154.25)">
            <path d="M0.527,-0.354L0.073,-0.354L0.073,-0.478L0.527,-0.478L0.527,-0.354ZM0.527,-0.145L0.073,-0.145L0.073,-0.268L0.527,-0.268L0.527,-0.145Z" style="fill:rgb(178,178,178);fill-rule:nonzero;"/>
        </g>
        <g transform="matrix(182.694,0,0,182.694,3822.45,1154.25)">
            <path d="M0.129,-0.742L0.279,-0.742L0.26,-0.462L0.148,-0.462L0.129,-0.742ZM0.32,-0.742L0.471,-0.742L0.452,-0.462L0.339,-0.462L0.32,-0.742Z" style="fill:rgb(255,44,44);fill-rule:nonzero;"/>
        </g>
        <g transform="matrix(182.694,0,0,182.694,3932.07,1154.25)">
            <path d="M0.3,-0.549C0.381,-0.549 0.444,-0.524 0.49,-0.473C0.535,-0.422 0.558,-0.353 0.558,-0.267C0.558,-0.178 0.535,-0.108 0.49,-0.058C0.445,-0.008 0.381,0.017 0.3,0.017C0.219,0.017 0.155,-0.008 0.11,-0.058C0.065,-0.107 0.042,-0.177 0.042,-0.266C0.042,-0.323 0.052,-0.372 0.073,-0.415C0.093,-0.457 0.123,-0.49 0.162,-0.514C0.201,-0.537 0.247,-0.549 0.3,-0.549ZM0.3,-0.432C0.267,-0.432 0.243,-0.419 0.228,-0.393C0.213,-0.366 0.205,-0.324 0.205,-0.266C0.205,-0.207 0.213,-0.165 0.228,-0.139C0.243,-0.112 0.267,-0.099 0.3,-0.099C0.333,-0.099 0.357,-0.112 0.372,-0.139C0.387,-0.166 0.395,-0.208 0.395,-0.267C0.395,-0.324 0.387,-0.366 0.372,-0.393C0.357,-0.419 0.333,-0.432 0.3,-0.432Z" style="fill:rgb(255,44,44);fill-rule:nonzero;"/>
        </g>
        <g transform="matrix(182.694,0,0,182.694,4041.69,1154.25)">
            <path d="M0.228,-0.168C0.228,-0.143 0.233,-0.126 0.242,-0.116C0.251,-0.105 0.264,-0.1 0.282,-0.1C0.298,-0.1 0.314,-0.105 0.331,-0.116C0.348,-0.126 0.361,-0.14 0.372,-0.158L0.372,-0.531L0.53,-0.531L0.53,-0L0.392,-0L0.385,-0.062C0.368,-0.037 0.344,-0.017 0.315,-0.004C0.286,0.01 0.255,0.017 0.222,0.017C0.172,0.017 0.134,0.003 0.109,-0.027C0.083,-0.056 0.07,-0.096 0.07,-0.148L0.07,-0.531L0.228,-0.531L0.228,-0.168Z" style="fill:rgb(255,44,44);fill-rule:nonzero;"/>
        </g>
        <g transform="matrix(182.694,0,0,182.694,4151.3,1154.25)">
            <path d="M0.283,-0.096C0.31,-0.096 0.332,-0.1 0.348,-0.109C0.363,-0.117 0.371,-0.129 0.371,-0.146C0.371,-0.158 0.368,-0.168 0.362,-0.175C0.355,-0.182 0.343,-0.19 0.326,-0.197C0.309,-0.204 0.282,-0.212 0.245,-0.222C0.192,-0.236 0.151,-0.256 0.123,-0.281C0.095,-0.306 0.081,-0.34 0.081,-0.384C0.081,-0.433 0.101,-0.472 0.142,-0.503C0.182,-0.534 0.238,-0.549 0.311,-0.549C0.395,-0.549 0.467,-0.527 0.526,-0.484L0.463,-0.391C0.414,-0.421 0.365,-0.436 0.316,-0.436C0.29,-0.436 0.271,-0.433 0.259,-0.426C0.246,-0.419 0.24,-0.409 0.24,-0.395C0.24,-0.386 0.243,-0.378 0.25,-0.372C0.256,-0.365 0.268,-0.359 0.286,-0.352C0.303,-0.345 0.33,-0.337 0.365,-0.327C0.403,-0.316 0.434,-0.305 0.459,-0.292C0.483,-0.279 0.502,-0.262 0.515,-0.241C0.528,-0.22 0.535,-0.192 0.535,-0.159C0.535,-0.122 0.524,-0.09 0.501,-0.063C0.478,-0.036 0.448,-0.016 0.41,-0.003C0.372,0.01 0.33,0.017 0.284,0.017C0.235,0.017 0.19,0.01 0.15,-0.004C0.11,-0.018 0.076,-0.038 0.048,-0.063L0.127,-0.152C0.175,-0.115 0.227,-0.096 0.283,-0.096Z" style="fill:rgb(255,44,44);fill-rule:nonzero;"/>
        </g>
        <g transform="matrix(182.694,0,0,182.694,4260.92,1154.25)">
            <path d="M0.283,-0.096C0.31,-0.096 0.332,-0.1 0.348,-0.109C0.363,-0.117 0.371,-0.129 0.371,-0.146C0.371,-0.158 0.368,-0.168 0.362,-0.175C0.355,-0.182 0.343,-0.19 0.326,-0.197C0.309,-0.204 0.282,-0.212 0.245,-0.222C0.192,-0.236 0.151,-0.256 0.123,-0.281C0.095,-0.306 0.081,-0.34 0.081,-0.384C0.081,-0.433 0.101,-0.472 0.142,-0.503C0.182,-0.534 0.238,-0.549 0.311,-0.549C0.395,-0.549 0.467,-0.527 0.526,-0.484L0.463,-0.391C0.414,-0.421 0.365,-0.436 0.316,-0.436C0.29,-0.436 0.271,-0.433 0.259,-0.426C0.246,-0.419 0.24,-0.409 0.24,-0.395C0.24,-0.386 0.243,-0.378 0.25,-0.372C0.256,-0.365 0.268,-0.359 0.286,-0.352C0.303,-0.345 0.33,-0.337 0.365,-0.327C0.403,-0.316 0.434,-0.305 0.459,-0.292C0.483,-0.279 0.502,-0.262 0.515,-0.241C0.528,-0.22 0.535,-0.192 0.535,-0.159C0.535,-0.122 0.524,-0.09 0.501,-0.063C0.478,-0.036 0.448,-0.016 0.41,-0.003C0.372,0.01 0.33,0.017 0.284,0.017C0.235,0.017 0.19,0.01 0.15,-0.004C0.11,-0.018 0.076,-0.038 0.048,-0.063L0.127,-0.152C0.175,-0.115 0.227,-0.096 0.283,-0.096Z" style="fill:rgb(255,44,44);fill-rule:nonzero;"/>
        </g>
        <g transform="matrix(182.694,0,0,182.694,4370.54,1154.25)">
            <path d="M0.517,-0.153C0.517,-0.134 0.52,-0.119 0.525,-0.11C0.53,-0.101 0.539,-0.094 0.552,-0.089L0.519,0.015C0.487,0.012 0.46,0.005 0.439,-0.007C0.418,-0.017 0.401,-0.034 0.389,-0.055C0.369,-0.032 0.344,-0.014 0.313,-0.002C0.282,0.011 0.25,0.017 0.215,0.017C0.16,0.017 0.117,0.002 0.084,-0.03C0.051,-0.061 0.035,-0.101 0.035,-0.15C0.035,-0.207 0.058,-0.252 0.103,-0.284C0.148,-0.315 0.212,-0.331 0.294,-0.331L0.365,-0.331L0.365,-0.35C0.365,-0.405 0.33,-0.432 0.26,-0.432C0.242,-0.432 0.22,-0.43 0.193,-0.425C0.166,-0.42 0.139,-0.413 0.114,-0.404L0.078,-0.509C0.112,-0.522 0.148,-0.532 0.185,-0.539C0.222,-0.546 0.255,-0.549 0.285,-0.549C0.44,-0.549 0.517,-0.486 0.517,-0.361L0.517,-0.153ZM0.269,-0.096C0.287,-0.096 0.305,-0.101 0.324,-0.112C0.342,-0.122 0.356,-0.136 0.365,-0.154L0.365,-0.241L0.326,-0.241C0.241,-0.241 0.198,-0.214 0.198,-0.161C0.198,-0.14 0.204,-0.124 0.217,-0.113C0.229,-0.102 0.246,-0.096 0.269,-0.096Z" style="fill:rgb(255,44,44);fill-rule:nonzero;"/>
        </g>
        <g transform="matrix(182.694,0,0,182.694,4480.15,1154.25)">
            <path d="M0.463,-0.549C0.501,-0.549 0.529,-0.537 0.547,-0.512C0.564,-0.487 0.573,-0.447 0.573,-0.393L0.573,-0L0.438,-0L0.438,-0.375C0.438,-0.394 0.436,-0.408 0.433,-0.415C0.429,-0.422 0.422,-0.426 0.412,-0.426C0.393,-0.426 0.375,-0.414 0.357,-0.391L0.357,-0L0.245,-0L0.245,-0.375C0.245,-0.394 0.243,-0.408 0.24,-0.415C0.236,-0.422 0.229,-0.426 0.219,-0.426C0.2,-0.426 0.182,-0.414 0.164,-0.391L0.164,-0L0.027,-0L0.027,-0.531L0.142,-0.531L0.153,-0.48C0.17,-0.504 0.188,-0.522 0.205,-0.533C0.222,-0.544 0.241,-0.549 0.264,-0.549C0.285,-0.549 0.302,-0.544 0.316,-0.534C0.33,-0.523 0.34,-0.507 0.346,-0.486C0.382,-0.528 0.421,-0.549 0.463,-0.549Z" style="fill:rgb(255,44,44);fill-rule:nonzero;"/>
        </g>
        <g transform="matrix(182.694,0,0,182.694,4589.77,1154.25)">
            <path d="M0.517,-0.153C0.517,-0.134 0.52,-0.119 0.525,-0.11C0.53,-0.101 0.539,-0.094 0.552,-0.089L0.519,0.015C0.487,0.012 0.46,0.005 0.439,-0.007C0.418,-0.017 0.401,-0.034 0.389,-0.055C0.369,-0.032 0.344,-0.014 0.313,-0.002C0.282,0.011 0.25,0.017 0.215,0.017C0.16,0.017 0.117,0.002 0.084,-0.03C0.051,-0.061 0.035,-0.101 0.035,-0.15C0.035,-0.207 0.058,-0.252 0.103,-0.284C0.148,-0.315 0.212,-0.331 0.294,-0.331L0.365,-0.331L0.365,-0.35C0.365,-0.405 0.33,-0.432 0.26,-0.432C0.242,-0.432 0.22,-0.43 0.193,-0.425C0.166,-0.42 0.139,-0.413 0.114,-0.404L0.078,-0.509C0.112,-0.522 0.148,-0.532 0.185,-0.539C0.222,-0.546 0.255,-0.549 0.285,-0.549C0.44,-0.549 0.517,-0.486 0.517,-0.361L0.517,-0.153ZM0.269,-0.096C0.287,-0.096 0.305,-0.101 0.324,-0.112C0.342,-0.122 0.356,-0.136 0.365,-0.154L0.365,-0.241L0.326,-0.241C0.241,-0.241 0.198,-0.214 0.198,-0.161C0.198,-0.14 0.204,-0.124 0.217,-0.113C0.229,-0.102 0.246,-0.096 0.269,-0.096Z" style="fill:rgb(255,44,44);fill-rule:nonzero;"/>
        </g>
        <g transform="matrix(182.694,0,0,182.694,4699.39,1154.25)">
            <path d="M0.228,-0.478C0.273,-0.525 0.325,-0.549 0.384,-0.549C0.431,-0.549 0.467,-0.535 0.492,-0.508C0.517,-0.48 0.53,-0.441 0.53,-0.39L0.53,-0L0.372,-0L0.372,-0.346C0.372,-0.378 0.368,-0.4 0.361,-0.413C0.354,-0.426 0.34,-0.432 0.321,-0.432C0.305,-0.432 0.29,-0.427 0.275,-0.416C0.26,-0.405 0.244,-0.388 0.228,-0.367L0.228,-0L0.07,-0L0.07,-0.742L0.228,-0.758L0.228,-0.478Z" style="fill:rgb(255,44,44);fill-rule:nonzero;"/>
        </g>
        <g transform="matrix(182.694,0,0,182.694,4809,1154.25)">
            <path d="M0.517,-0.153C0.517,-0.134 0.52,-0.119 0.525,-0.11C0.53,-0.101 0.539,-0.094 0.552,-0.089L0.519,0.015C0.487,0.012 0.46,0.005 0.439,-0.007C0.418,-0.017 0.401,-0.034 0.389,-0.055C0.369,-0.032 0.344,-0.014 0.313,-0.002C0.282,0.011 0.25,0.017 0.215,0.017C0.16,0.017 0.117,0.002 0.084,-0.03C0.051,-0.061 0.035,-0.101 0.035,-0.15C0.035,-0.207 0.058,-0.252 0.103,-0.284C0.148,-0.315 0.212,-0.331 0.294,-0.331L0.365,-0.331L0.365,-0.35C0.365,-0.405 0.33,-0.432 0.26,-0.432C0.242,-0.432 0.22,-0.43 0.193,-0.425C0.166,-0.42 0.139,-0.413 0.114,-0.404L0.078,-0.509C0.112,-0.522 0.148,-0.532 0.185,-0.539C0.222,-0.546 0.255,-0.549 0.285,-0.549C0.44,-0.549 0.517,-0.486 0.517,-0.361L0.517,-0.153ZM0.269,-0.096C0.287,-0.096 0.305,-0.101 0.324,-0.112C0.342,-0.122 0.356,-0.136 0.365,-0.154L0.365,-0.241L0.326,-0.241C0.241,-0.241 0.198,-0.214 0.198,-0.161C0.198,-0.14 0.204,-0.124 0.217,-0.113C0.229,-0.102 0.246,-0.096 0.269,-0.096Z" style="fill:rgb(255,44,44);fill-rule:nonzero;"/>
        </g>
        <g transform="matrix(182.694,0,0,182.694,4918.62,1154.25)">
            <path d="M0.408,-0.759C0.476,-0.759 0.537,-0.748 0.59,-0.725L0.546,-0.622C0.512,-0.635 0.474,-0.642 0.433,-0.642C0.402,-0.642 0.379,-0.636 0.366,-0.625C0.352,-0.614 0.345,-0.595 0.345,-0.569L0.345,-0.498L0.518,-0.498L0.5,-0.388L0.345,-0.388L0.345,-0L0.188,-0L0.188,-0.388L0.076,-0.388L0.076,-0.498L0.188,-0.498L0.188,-0.574C0.188,-0.629 0.207,-0.673 0.246,-0.708C0.284,-0.742 0.338,-0.759 0.408,-0.759Z" style="fill:rgb(255,44,44);fill-rule:nonzero;"/>
        </g>
        <g transform="matrix(182.694,0,0,182.694,5028.23,1154.25)">
            <path d="M0.408,-0.759C0.476,-0.759 0.537,-0.748 0.59,-0.725L0.546,-0.622C0.512,-0.635 0.474,-0.642 0.433,-0.642C0.402,-0.642 0.379,-0.636 0.366,-0.625C0.352,-0.614 0.345,-0.595 0.345,-0.569L0.345,-0.498L0.518,-0.498L0.5,-0.388L0.345,-0.388L0.345,-0L0.188,-0L0.188,-0.388L0.076,-0.388L0.076,-0.498L0.188,-0.498L0.188,-0.574C0.188,-0.629 0.207,-0.673 0.246,-0.708C0.284,-0.742 0.338,-0.759 0.408,-0.759Z" style="fill:rgb(255,44,44);fill-rule:nonzero;"/>
        </g>
        <g transform="matrix(182.694,0,0,182.694,5137.85,1154.25)">
            <path d="M0.189,-0.095C0.189,-0.125 0.2,-0.151 0.222,-0.173C0.243,-0.195 0.269,-0.206 0.3,-0.206C0.331,-0.206 0.357,-0.195 0.379,-0.173C0.4,-0.151 0.411,-0.125 0.411,-0.095C0.411,-0.064 0.4,-0.038 0.379,-0.016C0.357,0.006 0.331,0.017 0.3,0.017C0.269,0.017 0.243,0.006 0.222,-0.016C0.2,-0.038 0.189,-0.064 0.189,-0.095Z" style="fill:rgb(255,44,44);fill-rule:nonzero;"/>
        </g>
        <g transform="matrix(182.694,0,0,182.694,5247.47,1154.25)">
            <path d="M0.53,-0.742L0.53,-0L0.39,-0L0.382,-0.058C0.366,-0.035 0.346,-0.017 0.321,-0.004C0.296,0.01 0.268,0.017 0.235,0.017C0.171,0.017 0.123,-0.008 0.09,-0.059C0.056,-0.11 0.04,-0.179 0.04,-0.267C0.04,-0.322 0.049,-0.37 0.066,-0.413C0.083,-0.456 0.108,-0.489 0.14,-0.513C0.172,-0.537 0.209,-0.549 0.252,-0.549C0.3,-0.549 0.34,-0.532 0.372,-0.499L0.372,-0.759L0.53,-0.742ZM0.294,-0.433C0.265,-0.433 0.243,-0.42 0.227,-0.393C0.211,-0.366 0.203,-0.323 0.203,-0.266C0.203,-0.205 0.21,-0.162 0.225,-0.137C0.239,-0.112 0.259,-0.099 0.285,-0.099C0.318,-0.099 0.347,-0.119 0.372,-0.16L0.372,-0.389C0.361,-0.404 0.349,-0.415 0.337,-0.422C0.324,-0.429 0.31,-0.433 0.294,-0.433Z" style="fill:rgb(255,44,44);fill-rule:nonzero;"/>
        </g>
        <g transform="matrix(182.694,0,0,182.694,5357.08,1154.25)">
            <path d="M0.207,-0.219C0.217,-0.138 0.26,-0.098 0.335,-0.098C0.38,-0.098 0.426,-0.113 0.471,-0.142L0.534,-0.056C0.508,-0.033 0.477,-0.016 0.441,-0.003C0.405,0.011 0.365,0.017 0.322,0.017C0.263,0.017 0.212,0.005 0.171,-0.019C0.13,-0.042 0.098,-0.075 0.078,-0.118C0.056,-0.16 0.046,-0.209 0.046,-0.265C0.046,-0.318 0.056,-0.367 0.077,-0.41C0.097,-0.453 0.127,-0.487 0.166,-0.512C0.205,-0.537 0.251,-0.549 0.305,-0.549C0.356,-0.549 0.4,-0.538 0.437,-0.517C0.474,-0.495 0.503,-0.463 0.524,-0.423C0.544,-0.381 0.554,-0.333 0.554,-0.276C0.554,-0.254 0.553,-0.235 0.551,-0.219L0.207,-0.219ZM0.305,-0.443C0.276,-0.443 0.253,-0.433 0.236,-0.412C0.219,-0.391 0.208,-0.358 0.205,-0.315L0.4,-0.315C0.399,-0.4 0.367,-0.443 0.305,-0.443Z" style="fill:rgb(255,44,44);fill-rule:nonzero;"/>
        </g>
        <g transform="matrix(182.694,0,0,182.694,5466.7,1154.25)">
            <path d="M0.394,-0L0.208,-0L0.029,-0.531L0.2,-0.531L0.303,-0.121L0.411,-0.531L0.571,-0.531L0.394,-0Z" style="fill:rgb(255,44,44);fill-rule:nonzero;"/>
        </g>
        <g transform="matrix(182.694,0,0,182.694,5576.32,1154.25)">
            <path d="M0.129,-0.742L0.279,-0.742L0.26,-0.462L0.148,-0.462L0.129,-0.742ZM0.32,-0.742L0.471,-0.742L0.452,-0.462L0.339,-0.462L0.32,-0.742Z" style="fill:rgb(255,44,44);fill-rule:nonzero;"/>
        </g>
        <g transform="matrix(182.694,0,0,182.694,5685.93,1154.25)">
            <path d="M0.339,-0.35C0.339,-0.431 0.325,-0.504 0.296,-0.568C0.267,-0.631 0.218,-0.7 0.15,-0.775L0.241,-0.858C0.326,-0.785 0.39,-0.709 0.434,-0.628C0.477,-0.547 0.499,-0.454 0.499,-0.35C0.499,-0.246 0.477,-0.154 0.434,-0.073C0.39,0.009 0.326,0.085 0.241,0.158L0.15,0.075C0.199,0.022 0.237,-0.027 0.264,-0.07C0.291,-0.113 0.31,-0.156 0.322,-0.2C0.333,-0.244 0.339,-0.294 0.339,-0.35Z" style="fill:rgb(178,178,178);fill-rule:nonzero;"/>
        </g>
        <g transform="matrix(182.694,0,0,182.694,5795.55,1154.25)">
            <path d="M0.195,-0.434C0.195,-0.463 0.205,-0.487 0.226,-0.508C0.246,-0.529 0.271,-0.539 0.3,-0.539C0.329,-0.539 0.354,-0.529 0.374,-0.508C0.394,-0.487 0.404,-0.463 0.404,-0.434C0.404,-0.405 0.394,-0.381 0.374,-0.361C0.354,-0.34 0.329,-0.33 0.3,-0.33C0.271,-0.33 0.246,-0.34 0.226,-0.361C0.205,-0.381 0.195,-0.405 0.195,-0.434ZM0.195,-0.089C0.195,-0.117 0.205,-0.141 0.226,-0.162C0.246,-0.182 0.271,-0.192 0.3,-0.192C0.329,-0.192 0.354,-0.182 0.374,-0.162C0.394,-0.141 0.404,-0.117 0.404,-0.089C0.404,-0.06 0.394,-0.035 0.374,-0.014C0.354,0.007 0.329,0.017 0.3,0.017C0.271,0.017 0.246,0.007 0.226,-0.014C0.205,-0.035 0.195,-0.06 0.195,-0.089Z" style="fill:rgb(178,178,178);fill-rule:nonzero;"/>
        </g>
        <g transform="matrix(182.694,0,0,182.694,6014.78,1154.25)">
            <path d="M0.197,-0.15L0.161,-0L-0.011,-0L0.201,-0.693L0.4,-0.693L0.612,-0L0.436,-0L0.4,-0.15L0.197,-0.15ZM0.373,-0.268L0.298,-0.575L0.223,-0.268L0.373,-0.268Z" style="fill:rgb(178,178,178);fill-rule:nonzero;"/>
        </g>
        <g transform="matrix(182.694,0,0,182.694,6124.4,1154.25)">
            <path d="M0.475,-0.547C0.507,-0.547 0.536,-0.542 0.563,-0.531L0.534,-0.309L0.434,-0.309L0.434,-0.406C0.405,-0.401 0.379,-0.386 0.356,-0.359C0.333,-0.332 0.316,-0.299 0.303,-0.258L0.303,-0.106L0.408,-0.106L0.408,-0L0.075,-0L0.075,-0.106L0.145,-0.106L0.145,-0.426L0.075,-0.426L0.075,-0.531L0.266,-0.531L0.294,-0.412C0.313,-0.457 0.338,-0.491 0.367,-0.514C0.396,-0.536 0.432,-0.547 0.475,-0.547Z" style="fill:rgb(178,178,178);fill-rule:nonzero;"/>
        </g>
        <g transform="matrix(182.694,0,0,182.694,6234.01,1154.25)">
            <path d="M0.548,-0.031C0.498,0.001 0.44,0.017 0.374,0.017C0.306,0.017 0.255,-0 0.221,-0.035C0.186,-0.07 0.169,-0.118 0.169,-0.181L0.169,-0.422L0.058,-0.422L0.058,-0.531L0.169,-0.531L0.169,-0.646L0.327,-0.665L0.327,-0.531L0.498,-0.531L0.482,-0.422L0.327,-0.422L0.327,-0.181C0.327,-0.155 0.333,-0.136 0.345,-0.125C0.357,-0.114 0.376,-0.108 0.403,-0.108C0.436,-0.108 0.467,-0.116 0.496,-0.132L0.548,-0.031Z" style="fill:rgb(178,178,178);fill-rule:nonzero;"/>
        </g>
        <g transform="matrix(182.694,0,0,182.694,6343.63,1154.25)">
            <path d="M0.299,-0.809C0.326,-0.809 0.349,-0.801 0.366,-0.784C0.383,-0.767 0.392,-0.745 0.392,-0.72C0.392,-0.694 0.383,-0.673 0.366,-0.656C0.349,-0.639 0.326,-0.631 0.299,-0.631C0.272,-0.631 0.249,-0.64 0.232,-0.657C0.214,-0.674 0.205,-0.695 0.205,-0.72C0.205,-0.745 0.214,-0.767 0.232,-0.784C0.249,-0.801 0.272,-0.809 0.299,-0.809ZM0.394,-0.108L0.53,-0.108L0.53,-0L0.086,-0L0.086,-0.108L0.236,-0.108L0.236,-0.423L0.091,-0.423L0.091,-0.531L0.394,-0.531L0.394,-0.108Z" style="fill:rgb(178,178,178);fill-rule:nonzero;"/>
        </g>
        <g transform="matrix(182.694,0,0,182.694,6453.25,1154.25)">
            <path d="M0.352,-0.108C0.372,-0.108 0.391,-0.112 0.41,-0.12C0.429,-0.127 0.449,-0.138 0.47,-0.153L0.54,-0.053C0.515,-0.032 0.485,-0.015 0.452,-0.002C0.419,0.011 0.382,0.017 0.343,0.017C0.286,0.017 0.238,0.005 0.197,-0.018C0.156,-0.041 0.124,-0.074 0.102,-0.116C0.08,-0.158 0.069,-0.207 0.069,-0.262C0.069,-0.317 0.08,-0.367 0.103,-0.41C0.126,-0.453 0.158,-0.487 0.2,-0.512C0.241,-0.537 0.29,-0.549 0.346,-0.549C0.385,-0.549 0.421,-0.544 0.452,-0.533C0.483,-0.522 0.513,-0.505 0.54,-0.482L0.472,-0.387C0.433,-0.414 0.394,-0.427 0.353,-0.427C0.274,-0.427 0.234,-0.372 0.234,-0.262C0.234,-0.207 0.244,-0.167 0.265,-0.144C0.286,-0.12 0.315,-0.108 0.352,-0.108Z" style="fill:rgb(178,178,178);fill-rule:nonzero;"/>
        </g>
        <g transform="matrix(182.694,0,0,182.694,6562.86,1154.25)">
            <path d="M0.347,-0.167C0.347,-0.128 0.37,-0.108 0.415,-0.108C0.44,-0.108 0.465,-0.113 0.491,-0.124L0.528,-0.018C0.485,0.005 0.434,0.017 0.375,0.017C0.313,0.017 0.267,-0.001 0.236,-0.037C0.205,-0.072 0.189,-0.122 0.189,-0.187L0.189,-0.634L0.033,-0.634L0.033,-0.742L0.347,-0.742L0.347,-0.167Z" style="fill:rgb(178,178,178);fill-rule:nonzero;"/>
        </g>
        <g transform="matrix(182.694,0,0,182.694,6672.48,1154.25)">
            <path d="M0.207,-0.219C0.217,-0.138 0.26,-0.098 0.335,-0.098C0.38,-0.098 0.426,-0.113 0.471,-0.142L0.534,-0.056C0.508,-0.033 0.477,-0.016 0.441,-0.003C0.405,0.011 0.365,0.017 0.322,0.017C0.263,0.017 0.212,0.005 0.171,-0.019C0.13,-0.042 0.098,-0.075 0.078,-0.118C0.056,-0.16 0.046,-0.209 0.046,-0.265C0.046,-0.318 0.056,-0.367 0.077,-0.41C0.097,-0.453 0.127,-0.487 0.166,-0.512C0.205,-0.537 0.251,-0.549 0.305,-0.549C0.356,-0.549 0.4,-0.538 0.437,-0.517C0.474,-0.495 0.503,-0.463 0.524,-0.423C0.544,-0.381 0.554,-0.333 0.554,-0.276C0.554,-0.254 0.553,-0.235 0.551,-0.219L0.207,-0.219ZM0.305,-0.443C0.276,-0.443 0.253,-0.433 0.236,-0.412C0.219,-0.391 0.208,-0.358 0.205,-0.315L0.4,-0.315C0.399,-0.4 0.367,-0.443 0.305,-0.443Z" style="fill:rgb(178,178,178);fill-rule:nonzero;"/>
        </g>
        <g transform="matrix(182.694,0,0,182.694,6891.71,1154.25)">
            <path d="M0.467,-0.73C0.434,-0.73 0.409,-0.725 0.394,-0.717C0.378,-0.708 0.371,-0.691 0.374,-0.667L0.389,-0.519C0.39,-0.513 0.39,-0.505 0.39,-0.494C0.39,-0.45 0.377,-0.417 0.35,-0.395C0.323,-0.372 0.284,-0.357 0.234,-0.35C0.287,-0.342 0.326,-0.327 0.352,-0.306C0.378,-0.285 0.391,-0.252 0.391,-0.208C0.391,-0.203 0.39,-0.194 0.389,-0.181L0.374,-0.033C0.371,-0.01 0.378,0.007 0.394,0.016C0.41,0.025 0.434,0.03 0.467,0.03L0.467,0.14C0.382,0.14 0.32,0.128 0.283,0.105C0.245,0.082 0.226,0.043 0.226,-0.012C0.226,-0.019 0.227,-0.029 0.228,-0.044L0.243,-0.188L0.244,-0.201C0.244,-0.232 0.232,-0.254 0.208,-0.267C0.183,-0.28 0.149,-0.286 0.105,-0.286L0.105,-0.414C0.198,-0.414 0.244,-0.442 0.244,-0.499L0.243,-0.512L0.228,-0.655C0.227,-0.671 0.226,-0.682 0.226,-0.689C0.226,-0.744 0.245,-0.783 0.283,-0.806C0.321,-0.829 0.382,-0.84 0.467,-0.84L0.467,-0.73Z" style="fill:rgb(178,178,178);fill-rule:nonzero;"/>
        </g>
    </g>
</svg>
